<svg width="24" height="24" viewBox="0 0 24 24" fill="none" xmlns="http://www.w3.org/2000/svg">
<path d="M12 0C5.38293 0 0 5.38293 0 12C0 18.6171 5.38293 24 12 24C18.6171 24 24 18.6171 24 12C24 5.38293 18.6171 0 12 0Z" fill="#136CFB"/>
<path d="M14.066 14.9643V14.9642C14.0659 14.6763 13.8319 14.4422 13.5439 14.4422H10.4562C10.1683 14.4422 9.93418 14.6763 9.93418 14.9643V15.9113C9.93418 16.1992 10.1682 16.4333 10.4562 16.4333H13.5439C13.8319 16.4333 14.066 16.1993 14.066 15.9113V14.9643ZM13.3233 15.6907H10.6768V15.1849H13.3233V15.6907Z" fill="white" stroke="white" stroke-width="0.2"/>
<path d="M15.6887 7.54523H15.9753C16.3773 7.54523 16.7402 7.76839 16.9217 8.12714L16.9217 8.12715L18.9562 12.1495L19.0014 12.239L18.9993 12.24C19.0656 12.3798 19.1002 12.533 19.1 12.6886M15.6887 7.54523L19 12.6885M15.6887 7.54523H15.5887H15.6887ZM19.1 12.6886L19 12.6885M19.1 12.6886V12.6885H19M19.1 12.6886V16.938C19.1 17.5171 18.629 17.9882 18.0498 17.9882H5.95025C5.37106 17.9882 4.9 17.5172 4.9 16.938L4.9 12.6886M19 12.6885V16.938C19 17.4619 18.5737 17.8882 18.0498 17.8882H5.95025C5.42629 17.8882 5 17.4619 5 16.938V12.6885M4.9 12.6886L5 12.6885M4.9 12.6886L4.9 12.6885H5M4.9 12.6886L5 12.6885M5.13737 12.1969C5.11999 12.2255 5.10419 12.2549 5.09002 12.285L5.08809 12.284L5.00066 12.24C5.01494 12.2099 5.0307 12.1804 5.04789 12.1516C5.04923 12.1494 5.05057 12.1471 5.05192 12.1449L5.1332 12.1943M5.13737 12.1969L5.13312 12.1947L5.13303 12.1947L5.1332 12.1943M5.13737 12.1969L5.13738 12.1968C5.13737 12.1968 5.13737 12.1968 5.13737 12.1969ZM5.1332 12.1943L5.17816 12.1054L5.17797 12.1053L5.1332 12.1943ZM15.6886 8.34813V8.24813H15.9753C16.0415 8.24796 16.1064 8.26623 16.1628 8.30091C16.2192 8.33558 16.2648 8.38528 16.2944 8.44443L17.9099 11.6383H17.7979M15.6886 8.34813H15.5886V8.62676H15.6886M15.6886 8.34813L15.9753 8.34813L15.9756 8.34813C16.0232 8.34801 16.0699 8.36115 16.1104 8.38608C16.1509 8.41102 16.1837 8.44676 16.2051 8.4893L16.2052 8.48957L17.7979 11.6383M15.6886 8.34813V8.62676M15.6886 8.62676V8.72676H15.9494C16.0992 8.72676 16.2207 8.84822 16.2207 8.99806V10.3535H16.3207M15.6886 8.62676H15.9494C16.1544 8.62676 16.3207 8.79299 16.3207 8.99806V10.3535M16.3207 10.3535V10.4535H16.5563C16.7062 10.4535 16.8276 10.5749 16.8276 10.7248V11.6383H16.9276M16.3207 10.3535H16.5563C16.7614 10.3535 16.9276 10.5197 16.9276 10.7248V11.6383M16.9276 11.6383V11.7383H17.8484L17.7979 11.6383M16.9276 11.6383H17.7979M8.41135 7.64523H8.31135V7.54523H8.41135V7.64523ZM7.79479 8.48957L7.79493 8.48928C7.81628 8.44675 7.84906 8.411 7.88959 8.38607C7.93013 8.36114 7.97681 8.348 8.0244 8.34813H8.02468H8.31135V8.62673H8.05063C7.84556 8.62673 7.67933 8.79296 7.67933 8.99804V10.3535H7.44368C7.23861 10.3535 7.07238 10.5197 7.07238 10.7248V11.6383H6.20215L7.79479 8.48957ZM9.46731 13.2629L9.46735 13.263C9.52489 13.3902 9.61789 13.4983 9.73521 13.5741C9.85254 13.6499 9.98922 13.6902 10.1289 13.6904H10.129H13.871L13.8711 13.6904C14.0108 13.6902 14.1475 13.6499 14.2648 13.5741C14.3821 13.4983 14.4751 13.3903 14.5326 13.263L14.5327 13.2629L14.9031 12.4412H18.0497C18.186 12.4412 18.297 12.5523 18.297 12.6885V16.938V16.9418C18.295 17.0763 18.1848 17.1853 18.0498 17.1853H5.95025C5.81395 17.1853 5.7029 17.0742 5.7029 16.938V12.6885C5.7029 12.5523 5.81393 12.4412 5.95025 12.4412H9.09689L9.46731 13.2629ZM9.05396 7.64261H14.946V8.62673H9.05396V7.64261ZM15.5781 9.36934V10.3535H8.42194V9.36934H15.5781Z" fill="white" stroke="white" stroke-width="0.2"/>
</svg>
