<svg width="309" height="250" viewBox="0 0 309 250" fill="none" xmlns="http://www.w3.org/2000/svg">
<path d="M96.1141 215.646C175.589 215.898 256.204 287.617 274.492 169.322C283.786 109.132 325.562 85.6341 300.317 46.8662C282.973 20.2873 223.582 -0.443458 195.083 0.00721007C152.148 0.677971 133.682 33.7234 110.569 68.5611C84.3892 107.979 50.6359 111.416 20.4636 141.433C-1.54619 163.338 -10.6811 219.503 18.1261 242.121C53.4315 269.831 62.2205 215.542 96.1141 215.646Z" fill="#136CFB"/>
<path opacity="0.9" d="M96.1141 215.646C175.589 215.898 256.204 287.617 274.492 169.322C283.786 109.132 325.562 85.6341 300.317 46.8662C282.973 20.2873 223.582 -0.443458 195.083 0.00721007C152.148 0.677971 133.682 33.7234 110.569 68.5611C84.3892 107.979 50.6359 111.416 20.4636 141.433C-1.54619 163.338 -10.6811 219.503 18.1261 242.121C53.4315 269.831 62.2205 215.542 96.1141 215.646Z" fill="white"/>
<path d="M247.323 22.5261H163.228C160.343 22.5735 157.58 23.6944 155.478 25.6697C153.375 27.645 152.085 30.3331 151.858 33.2089L138.778 234.559C138.672 235.93 138.852 237.309 139.307 238.606C139.762 239.904 140.482 241.093 141.422 242.097C142.361 243.101 143.5 243.898 144.764 244.439C146.029 244.979 147.392 245.25 148.767 245.235H232.892C235.776 245.189 238.539 244.07 240.641 242.096C242.744 240.122 244.035 237.434 244.262 234.559L253.644 89.8378C254.042 89.6987 254.392 89.4475 254.651 89.1144C254.911 88.7813 255.068 88.3804 255.105 87.9599L256.786 62.064C256.815 61.6617 256.713 61.2608 256.494 60.922C256.275 60.5832 255.952 60.3249 255.573 60.1862L257.319 33.2089C257.426 31.8369 257.246 30.4578 256.79 29.1592C256.335 27.8607 255.614 26.6711 254.674 25.6663C253.733 24.6615 252.594 23.8634 251.329 23.3228C250.063 22.7821 248.699 22.5108 247.323 22.5261Z" fill="#136CFB"/>
<path d="M145.047 74.6612H146.699C147.21 74.652 147.699 74.4532 148.072 74.1035C148.445 73.7538 148.674 73.278 148.716 72.7687L149.446 61.9544C149.465 61.7111 149.432 61.4666 149.351 61.2365C149.27 61.0065 149.141 60.7958 148.974 60.6178C148.808 60.4399 148.605 60.2986 148.381 60.2029C148.157 60.1072 147.915 60.0592 147.671 60.0619H146.027C145.515 60.0694 145.025 60.2676 144.652 60.6177C144.279 60.9677 144.05 61.4444 144.01 61.9544L143.279 72.7687C143.261 73.0114 143.293 73.2552 143.374 73.4848C143.455 73.7143 143.582 73.9247 143.749 74.1025C143.915 74.2803 144.116 74.4218 144.339 74.5179C144.563 74.6141 144.804 74.6629 145.047 74.6612Z" fill="#136CFB"/>
<path d="M143.798 93.9662H145.442C145.955 93.957 146.446 93.7575 146.82 93.4064C147.194 93.0553 147.425 92.5777 147.466 92.0664L148.197 81.2594C148.215 81.0161 148.183 80.7717 148.101 80.5416C148.02 80.3115 147.892 80.1008 147.725 79.9229C147.558 79.745 147.356 79.6037 147.132 79.5079C146.907 79.4122 146.665 79.3642 146.421 79.3669H144.777C144.265 79.3743 143.774 79.5723 143.4 79.9222C143.025 80.2721 142.795 80.7488 142.753 81.2594L142.022 92.0664C142.002 92.3106 142.033 92.5563 142.113 92.7877C142.194 93.0192 142.322 93.2312 142.489 93.4102C142.656 93.5892 142.859 93.7312 143.085 93.8269C143.31 93.9227 143.553 93.9701 143.798 93.9662Z" fill="#136CFB"/>
<path d="M228.42 245.235H144.324C142.949 245.25 141.586 244.979 140.321 244.439C139.057 243.898 137.919 243.101 136.979 242.097C136.04 241.093 135.319 239.904 134.864 238.606C134.409 237.309 134.229 235.93 134.336 234.559L147.386 33.2089C147.614 30.3325 148.907 27.6444 151.01 25.6692C153.114 23.694 155.878 22.5734 158.763 22.5262H242.851C244.227 22.5119 245.59 22.784 246.855 23.325C248.119 23.8661 249.257 24.6644 250.197 25.6691C251.136 26.6738 251.856 27.863 252.311 29.161C252.766 30.4591 252.946 31.8376 252.84 33.2089L239.79 234.559C239.563 237.434 238.272 240.122 236.169 242.096C234.067 244.07 231.304 245.189 228.42 245.235Z" fill="#263238"/>
<path opacity="0.2" d="M192.088 236.673C195.034 233.821 195.256 229.272 192.584 226.511C189.912 223.751 185.357 223.825 182.412 226.677C179.466 229.529 179.244 234.078 181.916 236.839C184.588 239.599 189.142 239.525 192.088 236.673Z" fill="white"/>
<path d="M236.019 219.098H140.422C140.097 219.098 139.775 219.03 139.476 218.901C139.177 218.771 138.909 218.582 138.686 218.344C138.463 218.107 138.292 217.826 138.182 217.519C138.072 217.213 138.026 216.887 138.047 216.562L149.234 43.8844C149.284 43.288 149.555 42.7319 149.995 42.326C150.435 41.9201 151.011 41.6939 151.609 41.6923H247.213C247.539 41.6926 247.861 41.7597 248.16 41.8893C248.458 42.019 248.727 42.2084 248.95 42.446C249.172 42.6836 249.344 42.9643 249.453 43.2708C249.563 43.5772 249.609 43.903 249.588 44.2278L238.394 216.869C238.355 217.473 238.088 218.039 237.647 218.453C237.206 218.867 236.624 219.097 236.019 219.098Z" fill="white"/>
<path opacity="0.2" d="M209.346 151.038C220.039 140.686 220.844 124.171 211.144 114.15C201.443 104.13 184.911 104.398 174.218 114.75C163.524 125.102 162.719 141.617 172.42 151.637C182.12 161.658 198.653 161.389 209.346 151.038Z" fill="#136CFB"/>
<path opacity="0.2" d="M189.196 173.13C167.005 173.13 150.119 155.074 151.558 132.883C152.998 110.692 172.215 92.6364 194.413 92.6364C216.612 92.6364 233.491 110.692 232.052 132.883C230.612 155.074 211.366 173.13 189.196 173.13ZM194.311 93.3671C172.522 93.3671 153.648 111.094 152.238 132.883C150.827 154.672 167.4 172.399 189.189 172.399C210.978 172.399 229.852 154.672 231.27 132.883C232.687 111.094 216.13 93.3671 194.311 93.3671Z" fill="#136CFB"/>
<path d="M185.543 145.531L183.351 141.301C178.601 132.086 167.663 123.852 163.841 121.455L167.451 116.055C171.974 118.89 181.013 125.912 186.683 134.257C197.168 121.835 211.987 109.04 231.825 95.2375L235.208 100.352C214.018 115.098 198.768 128.579 188.626 141.571L185.543 145.531Z" fill="#136CFB"/>
<path opacity="0.2" d="M184.507 34.0203C185.698 32.8667 185.786 31.0242 184.703 29.905C183.619 28.7858 181.775 28.8137 180.583 29.9673C179.391 31.1209 179.304 32.9634 180.387 34.0826C181.47 35.2018 183.315 35.1739 184.507 34.0203Z" fill="white"/>
<path opacity="0.2" d="M192.784 29.0805H216.963C217.338 29.0761 217.711 29.1503 218.056 29.2984C218.402 29.4465 218.713 29.6652 218.969 29.9404C219.224 30.2156 219.42 30.5413 219.543 30.8965C219.665 31.2518 219.712 31.6288 219.681 32.0033C219.621 32.7887 219.27 33.5235 218.697 34.0641C218.124 34.6046 217.37 34.912 216.583 34.9261H192.411C192.035 34.9292 191.663 34.8543 191.318 34.7059C190.973 34.5575 190.662 34.3389 190.406 34.0641C190.149 33.7892 189.953 33.4641 189.829 33.1094C189.705 32.7546 189.656 32.3779 189.686 32.0033C189.746 31.2179 190.096 30.483 190.669 29.9425C191.242 29.402 191.996 29.0946 192.784 29.0805Z" fill="white"/>
<path d="M102.784 83.0641C101.549 84.3282 100.227 85.7239 99.0066 87.1122C97.7863 88.5005 96.566 89.9254 95.4188 91.3867C94.2717 92.8481 93.2268 94.3095 92.1453 95.8513L91.4146 96.9985L90.6839 98.1603C90.4428 98.5476 90.2236 98.9421 90.0117 99.344L89.4271 100.418C89.1888 101.032 89.053 101.682 89.0253 102.34C88.9668 103.186 88.9668 104.036 89.0253 104.883C89.1685 106.709 89.4124 108.527 89.756 110.326C90.0775 112.168 90.4867 114.016 90.9178 115.858C91.3489 117.699 91.8238 119.562 92.3061 121.374L89.6025 122.39C87.9412 118.816 86.549 115.123 85.4375 111.342C84.8731 109.393 84.441 107.409 84.1442 105.401C83.9964 104.331 83.9208 103.252 83.9177 102.172C83.9005 100.899 84.116 99.6335 84.5534 98.438C84.7215 98.0288 84.8092 97.868 84.9261 97.6196L85.2622 96.9254C85.4814 96.4651 85.7079 96.0047 85.9929 95.559L86.7236 94.2145L87.4981 92.9066C88.5302 91.1836 89.6547 89.5176 90.8666 87.9159C92.0649 86.3157 93.3071 84.7593 94.6151 83.2541C95.923 81.7489 97.2456 80.3313 98.7654 78.8699L102.784 83.0641Z" fill="#B55B52"/>
<path d="M103.099 74.2959C99.1382 74.4712 95.3751 81.0475 95.3751 81.0475L100.607 91.7229C100.607 91.7229 107.695 85.8189 107.782 80.0318C107.841 76.2395 106.993 74.1132 103.099 74.2959Z" fill="#136CFB"/>
<path opacity="0.7" d="M103.099 74.2959C99.1382 74.4712 95.3751 81.0475 95.3751 81.0475L100.607 91.7229C100.607 91.7229 107.695 85.8189 107.782 80.0318C107.841 76.2395 106.993 74.1132 103.099 74.2959Z" fill="white"/>
<path opacity="0.2" d="M104.041 81.9682C102.887 83.7145 102.331 88.2448 102.156 90.2616C103.899 88.5661 105.377 86.6176 106.54 84.4817C105.758 82.5308 104.801 80.821 104.041 81.9682Z" fill="black"/>
<path d="M91.5245 120.264L96.3398 121.725L93.132 124.97C93.132 124.97 89.6612 123.896 89.179 121.535L91.5245 120.264Z" fill="#B55B52"/>
<path d="M99.2551 125.401L98.444 128.506L93.1318 124.94L96.3396 121.696L99.2551 125.401Z" fill="#B55B52"/>
<path d="M130.938 61.6184C130.785 62.0495 130.894 62.4879 131.179 62.5902C131.464 62.6925 131.815 62.4367 131.961 62.0056C132.107 61.5745 132.005 61.1288 131.72 61.0265C131.435 60.9242 131.091 61.1799 130.938 61.6184Z" fill="#263238"/>
<path d="M131.589 61.0045L132.736 61.0995C132.736 61.0995 131.917 61.706 131.589 61.0045Z" fill="#263238"/>
<path d="M131.157 62.1737C131.201 63.3105 131.397 64.4362 131.742 65.5203C131.463 65.5933 131.172 65.6049 130.888 65.5545C130.604 65.504 130.334 65.3926 130.098 65.228L131.157 62.1737Z" fill="#A02724"/>
<path d="M132.356 59.9304C132.304 59.9232 132.255 59.9005 132.216 59.8653C132.177 59.8302 132.149 59.7841 132.136 59.7331C132.056 59.4028 131.902 59.095 131.686 58.833C131.469 58.571 131.196 58.3615 130.887 58.2206C130.82 58.1958 130.766 58.146 130.736 58.0817C130.706 58.0175 130.702 57.944 130.726 57.8771C130.738 57.8436 130.756 57.8127 130.779 57.7864C130.803 57.76 130.832 57.7387 130.864 57.7237C130.896 57.7086 130.93 57.7003 130.966 57.699C131.001 57.6978 131.036 57.7037 131.07 57.7164C131.467 57.8892 131.819 58.1532 132.095 58.487C132.372 58.8209 132.566 59.2152 132.662 59.6381C132.671 59.6727 132.673 59.7086 132.668 59.7439C132.663 59.7791 132.651 59.813 132.632 59.8435C132.614 59.8741 132.59 59.9007 132.561 59.9219C132.532 59.9431 132.5 59.9584 132.465 59.9669L132.356 59.9304Z" fill="#263238"/>
<path d="M115.929 63.4524C116.032 66.9086 115.681 73.1268 113.007 74.8878C113.007 74.8878 113.365 78.439 119.583 79.6446C126.415 80.9672 123.405 76.9045 123.405 76.9045C119.824 75.297 120.372 72.5642 121.446 70.109L115.929 63.4524Z" fill="#B55B52"/>
<path d="M136.236 87.1049C136.849 88.7782 137.551 90.5903 138.296 92.3075C139.042 94.0246 139.758 95.7637 140.627 97.4223C141.497 99.081 142.344 100.747 143.265 102.362C143.74 103.158 144.215 103.955 144.726 104.715C144.975 105.109 145.231 105.489 145.501 105.847L145.895 106.403L146.093 106.688L146.195 106.826L146.261 106.899C146.736 107.44 147.282 107.914 147.883 108.31C148.607 108.804 149.359 109.258 150.134 109.669C151.734 110.531 153.451 111.313 155.197 112.051C156.944 112.789 158.726 113.512 160.531 114.148C162.336 114.784 164.185 115.456 165.96 116.077L165.281 118.89C161.365 118.236 157.496 117.325 153.699 116.165C151.755 115.572 149.848 114.867 147.985 114.053C147.009 113.62 146.057 113.132 145.136 112.592C144.066 111.982 143.097 111.21 142.264 110.304L142.089 110.107L141.964 109.954L141.723 109.654L141.241 109.04C140.912 108.639 140.598 108.229 140.306 107.813C139.685 106.987 139.115 106.14 138.552 105.285C137.443 103.589 136.421 101.838 135.49 100.038C134.562 98.248 133.686 96.4432 132.882 94.6019C132.078 92.7605 131.355 90.9484 130.69 88.9317L136.236 87.1049Z" fill="#B55B52"/>
<path d="M164.996 116.062L169.307 114.396L169.095 119.373C169.095 119.373 165.602 120.301 163.98 118.54L164.996 116.062Z" fill="#B55B52"/>
<path d="M172.558 116.106L174.034 119.285L169.095 119.373L169.307 114.396L172.558 116.106Z" fill="#B55B52"/>
<path d="M101.06 240.814L106.767 241.238L108.462 228.137L102.755 227.713L101.06 240.814Z" fill="#B55B52"/>
<path d="M55.8591 211.177L59.5857 215.605L70.6484 208.495L66.9219 204.067L55.8591 211.177Z" fill="#B55B52"/>
<path d="M61.3246 215.035L58.3214 209.263C58.2736 209.163 58.1907 209.083 58.0883 209.04C57.9859 208.997 57.8712 208.993 57.7661 209.029L52.9947 210.681C52.8749 210.729 52.7668 210.802 52.6773 210.895C52.5878 210.988 52.519 211.099 52.4756 211.22C52.4321 211.342 52.4148 211.471 52.4249 211.6C52.4351 211.728 52.4724 211.853 52.5343 211.967C53.6158 213.961 54.2369 214.889 55.5521 217.41C56.3705 218.967 57.4008 221.334 58.5187 223.49C59.6367 225.645 61.7703 224.688 61.4927 223.687C60.2359 219.222 61.0689 217.987 61.4927 216.051C61.5529 215.703 61.4937 215.345 61.3246 215.035Z" fill="#263238"/>
<path d="M107.125 240.427H100.709C100.599 240.426 100.492 240.464 100.407 240.535C100.323 240.606 100.266 240.705 100.249 240.814L99.3866 245.885C99.3688 246.012 99.3784 246.14 99.4147 246.263C99.451 246.385 99.5132 246.498 99.597 246.595C99.6808 246.691 99.7844 246.768 99.9006 246.821C100.017 246.874 100.143 246.901 100.271 246.901C102.514 246.864 103.588 246.733 106.409 246.733C108.148 246.733 111.728 246.916 114.125 246.916C116.521 246.916 116.711 244.548 115.718 244.329C111.268 243.372 109.543 242.042 108.067 240.778C107.807 240.549 107.471 240.424 107.125 240.427Z" fill="#263238"/>
<path opacity="0.2" d="M108.462 228.137L107.519 235.422L101.834 234.852L102.755 227.72L108.462 228.137Z" fill="black"/>
<path opacity="0.2" d="M66.922 204.067L70.6485 208.495L66.067 211.44L62.2017 207.1L66.922 204.067Z" fill="black"/>
<path d="M101.513 109.04L124.398 113.476C135.212 81.6393 132.626 80.5944 132.626 80.5944C130.945 79.6859 129.21 78.8807 127.431 78.1831L127.116 78.0662C125.655 77.5328 125.348 77.4524 123.39 76.8824C120.014 76.086 116.879 75.421 112.999 74.873L112.269 74.7707C111.538 74.683 110.866 74.61 110.193 74.5442C109.74 74.4931 109.287 74.4638 108.856 74.4346L107.395 74.3542C104.896 74.23 103.106 74.2665 103.106 74.2665C104.363 94.1488 103.405 99.8701 101.513 109.04Z" fill="#136CFB"/>
<path opacity="0.7" d="M101.513 109.04L124.398 113.476C135.212 81.6393 132.626 80.5944 132.626 80.5944C130.945 79.6859 129.21 78.8807 127.431 78.1831L127.116 78.0662C125.655 77.5328 125.348 77.4524 123.39 76.8824C120.014 76.086 116.879 75.421 112.999 74.873L112.269 74.7707C111.538 74.683 110.866 74.61 110.193 74.5442C109.74 74.4931 109.287 74.4638 108.856 74.4346L107.395 74.3542C104.896 74.23 103.106 74.2665 103.106 74.2665C104.363 94.1488 103.405 99.8701 101.513 109.04Z" fill="white"/>
<path opacity="0.2" d="M129.338 88.0256L127.27 87.6895C127.27 90.415 128.307 95.0915 129.316 98.0654C130.171 95.1426 130.836 92.7386 131.34 90.7146L129.338 88.0256Z" fill="black"/>
<path d="M131.83 80.2073C135.213 81.2887 137.675 87.9819 138.596 90.8681L132.02 98.5916C132.02 98.5916 125.283 88.9099 126.357 85.9067C127.409 82.7794 130.193 79.6739 131.83 80.2073Z" fill="#136CFB"/>
<path opacity="0.7" d="M131.83 80.2073C135.213 81.2887 137.675 87.9819 138.596 90.8681L132.02 98.5916C132.02 98.5916 125.283 88.9099 126.357 85.9067C127.409 82.7794 130.193 79.6739 131.83 80.2073Z" fill="white"/>
<path d="M134.021 55.4952C133.342 57.49 130.368 58.2865 127.409 57.2854C124.449 56.2844 122.579 53.8365 123.258 51.8417C123.938 49.847 126.912 49.0505 129.835 50.0589C132.757 51.0672 134.694 53.5004 134.021 55.4952Z" fill="#263238"/>
<path d="M116.858 54.9471C115.338 60.3834 114.578 62.6486 116.317 66.3898C118.933 72.0234 125.933 72.9076 129.045 68.0777C131.844 63.7373 133.861 55.5755 129.389 51.4909C128.445 50.5788 127.28 49.9286 126.008 49.6044C124.736 49.2802 123.402 49.2932 122.137 49.6422C120.872 49.9911 119.719 50.6639 118.793 51.5942C117.868 52.5245 117.2 53.6802 116.858 54.9471Z" fill="#B55B52"/>
<path d="M125.348 48.5974C123.156 49.8542 118.502 41.9846 112.722 48.5974C108.586 53.3396 111.224 60.2885 111.224 60.2885C111.224 60.2885 107.929 54.4941 105.298 57.3219C101.864 60.9754 105.415 74.0475 116.741 73.1488C128.066 72.25 126.97 63.0579 126.97 63.0579C126.97 63.0579 132.275 57.6653 132.012 52.8281C131.815 49.2039 129.002 46.5295 125.348 48.5974Z" fill="#263238"/>
<path d="M126.722 59.6163C126.439 60.6279 126.475 61.7019 126.824 62.6925C127.292 64.0881 128.366 64.0954 128.936 63.1309C129.506 62.1664 129.82 60.4931 129.009 59.3678C128.198 58.2426 127.087 58.4983 126.722 59.6163Z" fill="#B55B52"/>
<path d="M118.319 112.292C118.319 112.292 115.879 120.753 112.744 131.919C110.661 139.357 108.265 147.994 106.08 156.126C104.831 160.781 103.654 165.267 102.638 169.279C96.8952 191.967 68.2519 211.469 68.2519 211.469L62.7059 205.368C62.7059 205.368 81.9524 189.161 87.5496 167.993C98.8534 125.021 92.4964 117.772 101.506 109.04L118.319 112.292Z" fill="#263238"/>
<path opacity="0.2" d="M115.849 119.877C115.002 123.157 113.935 127.3 112.758 131.933C110.676 139.372 108.279 148.008 106.094 156.141C105.159 145.765 104.633 126.687 112.269 120.753C113.774 119.599 114.965 119.358 115.849 119.877Z" fill="black"/>
<path d="M68.7264 212.346L61.7994 204.725L63.8965 202.621L72.3945 210.629L68.7264 212.346Z" fill="#136CFB"/>
<path opacity="0.7" d="M68.7264 212.346L61.7994 204.725L63.8965 202.621L72.3945 210.629L68.7264 212.346Z" fill="white"/>
<path d="M62.3695 218.133C62.2998 218.132 62.2308 218.119 62.1649 218.097C61.4853 217.848 61.0542 216.548 60.8569 215.795C60.8506 215.769 60.852 215.742 60.8611 215.718C60.8703 215.693 60.8866 215.671 60.9081 215.656C60.9293 215.641 60.9549 215.632 60.9812 215.632C61.0074 215.632 61.033 215.641 61.0542 215.656C61.2588 215.773 63.0563 216.825 63.0929 217.563C63.0989 217.644 63.0831 217.724 63.0471 217.796C63.011 217.868 62.9562 217.929 62.8883 217.972C62.7389 218.084 62.5557 218.141 62.3695 218.133ZM61.2077 216.051C61.5073 217.037 61.8872 217.702 62.2599 217.834C62.3395 217.858 62.4241 217.863 62.5058 217.846C62.5876 217.829 62.6638 217.792 62.7275 217.739C62.8225 217.673 62.8298 217.607 62.8225 217.563C62.786 217.183 61.9164 216.496 61.2077 216.051Z" fill="#136CFB"/>
<path d="M124.033 113.476C124.033 113.476 125.494 158.647 122.264 175.665C118.947 193.399 108.82 233.588 108.82 233.588L100.592 232.528C100.592 232.528 105.795 191.857 108.009 174.277C110.413 155.103 107.278 110.202 107.278 110.202L124.033 113.476Z" fill="#263238"/>
<path d="M110.588 234.092L98.8605 232.579L98.9993 229.788L111.765 230.343L110.588 234.092Z" fill="#136CFB"/>
<path opacity="0.7" d="M110.588 234.092L98.8605 232.579L98.9993 229.788L111.765 230.343L110.588 234.092Z" fill="white"/>
<path d="M62.6472 216.365C62.0402 216.336 61.4479 216.168 60.9155 215.876C60.8956 215.863 60.8791 215.846 60.8676 215.826C60.8561 215.805 60.8499 215.782 60.8497 215.759C60.853 215.735 60.8611 215.712 60.8737 215.692C60.8863 215.672 60.903 215.655 60.9228 215.642C60.9886 215.642 62.3842 214.874 63.188 215.174C63.2887 215.21 63.3802 215.269 63.456 215.344C63.5317 215.42 63.5899 215.512 63.6264 215.612C63.6744 215.71 63.6883 215.82 63.6657 215.926C63.6432 216.032 63.5856 216.128 63.5022 216.197C63.2426 216.343 62.9429 216.402 62.6472 216.365ZM61.2808 215.773C61.9165 216.065 63.0272 216.226 63.3341 215.985C63.3852 215.941 63.4364 215.875 63.3341 215.707C63.3126 215.643 63.2763 215.584 63.2281 215.536C63.1799 215.488 63.1211 215.451 63.0564 215.43C62.4434 215.361 61.824 215.481 61.2808 215.773Z" fill="#136CFB"/>
<path d="M109.244 241.421C108.642 241.408 108.043 241.339 107.454 241.216C107.426 241.213 107.4 241.2 107.38 241.18C107.36 241.16 107.347 241.134 107.344 241.106C107.34 241.078 107.344 241.05 107.358 241.025C107.371 241 107.392 240.98 107.417 240.968C107.68 240.829 109.989 239.667 110.676 240.054C110.741 240.09 110.796 240.143 110.835 240.207C110.873 240.271 110.894 240.345 110.895 240.42C110.909 240.541 110.893 240.665 110.847 240.778C110.801 240.892 110.727 240.992 110.632 241.07C110.222 241.339 109.733 241.462 109.244 241.421ZM107.907 241.026C109.163 241.238 110.099 241.179 110.457 240.873C110.518 240.819 110.566 240.75 110.595 240.674C110.624 240.598 110.634 240.515 110.625 240.434C110.627 240.405 110.62 240.375 110.606 240.349C110.592 240.323 110.57 240.302 110.544 240.288C110.172 240.083 108.857 240.573 107.907 241.026Z" fill="#136CFB"/>
<path d="M107.483 241.223C107.457 241.231 107.429 241.231 107.402 241.223C107.383 241.21 107.367 241.191 107.357 241.169C107.347 241.147 107.342 241.123 107.344 241.099C107.344 240.997 107.629 238.527 109.01 238.673C109.375 238.71 109.485 238.892 109.507 239.046C109.609 239.689 108.228 240.931 107.534 241.238L107.483 241.223ZM108.9 238.907C108.082 238.907 107.753 240.259 107.651 240.843C108.382 240.42 109.302 239.448 109.244 239.06C109.244 239.06 109.244 238.936 108.981 238.914L108.9 238.907Z" fill="#136CFB"/>
<path d="M101.367 107.645L100 109.479C99.8981 109.625 100.059 109.822 100.322 109.873L124.325 114.521C124.53 114.521 124.72 114.521 124.749 114.367L125.297 112.365C125.297 112.234 125.173 112.073 124.946 112.029L101.769 107.542C101.699 107.524 101.625 107.523 101.554 107.541C101.484 107.559 101.419 107.595 101.367 107.645Z" fill="#136CFB"/>
<path d="M104.056 110.831L103.435 110.706C103.31 110.706 103.23 110.604 103.252 110.531L103.983 107.937C103.983 107.864 104.129 107.82 104.246 107.842L104.867 107.966C104.991 107.966 105.079 108.069 105.057 108.142L104.326 110.736C104.297 110.831 104.18 110.831 104.056 110.831Z" fill="#263238"/>
<path d="M119.729 113.892L119.108 113.775C118.984 113.775 118.904 113.666 118.925 113.593L119.656 111.006C119.656 110.926 119.795 110.882 119.919 110.911L120.54 111.028C120.657 111.028 120.745 111.138 120.723 111.211L119.992 113.797C119.97 113.878 119.853 113.922 119.729 113.892Z" fill="#263238"/>
</svg>
