<svg width="343" height="300" viewBox="0 0 343 300" fill="none" xmlns="http://www.w3.org/2000/svg">
<path d="M171.039 8.22097C98.3149 44.3038 164.327 108.659 122.347 143.662C80.3662 178.666 -33.767 138.202 9.71462 229.163C60.829 336.011 284.688 321.181 332.955 190.12C381.222 59.0595 243.754 -27.9046 171.039 8.22097Z" fill="#136CFB"/>
<path opacity="0.9" d="M171.039 8.22097C98.3149 44.3038 164.327 108.659 122.347 143.662C80.3662 178.666 -33.767 138.202 9.71462 229.163C60.829 336.011 284.688 321.181 332.955 190.12C381.222 59.0595 243.754 -27.9046 171.039 8.22097Z" fill="white"/>
<path d="M159.058 295.51C235.306 295.51 297.117 291.902 297.117 287.45C297.117 282.998 235.306 279.39 159.058 279.39C82.8109 279.39 21 282.998 21 287.45C21 291.902 82.8109 295.51 159.058 295.51Z" fill="#F5F5F5"/>
<path d="M283.132 133.869C282.969 131.341 282.698 128.785 282.335 126.278L283.132 126.165C283.496 128.692 283.766 131.27 283.937 133.819L283.132 133.869Z" fill="#136CFB"/>
<path d="M280.327 116.232C278.426 108.81 275.653 101.64 272.067 94.8702L272.779 94.4928C276.393 101.32 279.187 108.55 281.103 116.032L280.327 116.232Z" fill="#136CFB"/>
<path d="M253.295 208.114C290.688 170.722 290.688 110.097 253.295 72.7046C215.903 35.3124 155.278 35.3124 117.886 72.7046C80.494 110.097 80.494 170.722 117.886 208.114C155.278 245.506 215.903 245.506 253.295 208.114Z" fill="#136CFB"/>
<g opacity="0.2">
<path opacity="0.4" d="M193.444 234.858H193.351L192.689 234.908L193.921 234.687C192.646 234.773 190.944 234.865 189.648 234.922L188.936 235.122L187.292 235.165C187.563 235.002 187.805 234.792 188.004 234.545C189.655 234.502 191.87 234.41 193.522 234.331L193.009 234.595L195.387 234.417L193.429 234.851" fill="white"/>
<path d="M177.244 234.303C175.863 234.196 174.019 234.04 172.637 233.904C169.355 232.16 169.227 232.088 166.514 229.226C168.557 229.418 171.284 229.66 173.328 229.81C175.272 232.801 175.35 232.914 177.244 234.303Z" fill="white"/>
<path d="M168.799 232.352C164.99 231.868 164.406 231.789 161.33 231.248C154.658 227.361 151.874 224.989 146.256 216.78C152.095 217.762 152.992 217.919 158.41 218.574C162.042 225.901 163.843 228.599 168.799 232.352Z" fill="white"/>
<path d="M174.66 234.588C173.791 234.474 172.63 234.331 171.762 234.203L170.451 234.004L169.419 233.812C170.565 233.975 172.089 234.189 173.236 234.331L174.66 234.588Z" fill="white"/>
<path opacity="0.4" d="M186.529 235.179H184.856C182.172 235.129 182.115 235.129 180.748 235.058C177.949 234.887 177.899 234.88 176.475 234.744L175.614 234.652C174.614 234.479 173.627 234.241 172.659 233.94C174.04 234.075 175.884 234.232 177.266 234.339C180.669 234.524 182.542 234.623 186.971 234.602C186.864 234.801 186.764 235.172 186.551 235.214" fill="white"/>
<path d="M179.708 233.954C179.708 234.018 179.843 234.303 178.825 234.267C177.572 234.182 176.689 233.733 177.031 233.484C177.501 233.128 179.452 233.484 179.708 233.954Z" fill="white"/>
<path opacity="0.4" d="M183.93 234.075C183.93 234.111 183.866 234.417 182.777 234.41C181.687 234.403 181.039 234.011 181.303 233.748C181.766 233.299 183.973 233.57 183.93 234.075Z" fill="white"/>
<path opacity="0.4" d="M188.21 234.061C188.21 234.096 187.925 234.41 186.786 234.438C185.796 234.438 185.362 234.153 185.611 233.904C186.074 233.392 188.288 233.448 188.238 233.968C188.231 234.001 188.219 234.032 188.203 234.061" fill="white"/>
<path opacity="0.4" d="M198.072 225.837C195.565 225.943 192.226 226.079 189.719 226.136C190.168 222.049 190.246 221.308 190.609 216.53C193.635 216.445 197.659 216.31 200.678 216.167C200.031 219.446 199.161 222.677 198.072 225.837Z" fill="white"/>
<path opacity="0.4" d="M187.975 223.074C185.283 223.074 181.687 223.038 178.996 222.981C178.433 218.332 178.334 217.492 177.892 212.244C181.054 212.301 185.276 212.351 188.437 212.351C188.231 217.869 188.195 218.866 187.975 223.074Z" fill="white"/>
<path opacity="0.4" d="M200.108 229.048C197.886 229.183 194.924 229.354 192.703 229.447L193.215 227.652C195.594 227.546 198.762 227.382 201.14 227.225L200.108 229.048Z" fill="white"/>
<path opacity="0.4" d="M222.887 206.412C220.217 206.754 216.656 207.203 213.979 207.487L215.054 202.809C217.831 202.489 221.527 202.062 224.311 201.691L222.887 206.412Z" fill="white"/>
<path opacity="0.4" d="M188.452 212.002C185.276 212.002 181.039 211.959 177.864 211.895C177.415 205.365 177.394 205.109 177.194 201C180.662 201.057 185.276 201.114 188.744 201.114C188.566 208.463 188.566 208.463 188.452 212.002Z" fill="white"/>
<path d="M176.503 220.026C170.131 219.72 166.279 219.535 158.539 218.681C156.189 212.877 155.213 210.478 153.198 201.592C160.482 202.375 164.89 202.823 174.723 203.258C175.257 210.001 175.528 213.39 176.475 220.048" fill="white"/>
<path opacity="0.4" d="M210.831 214.537C203.996 215.113 199.866 215.462 190.787 215.662C191.164 209.673 191.357 206.668 191.691 197.227C199.901 196.992 204.864 196.849 215.018 195.924C213.779 203.272 213.16 206.96 210.831 214.537Z" fill="white"/>
<path opacity="0.4" d="M150.258 198.672C143.188 197.814 136.169 196.581 129.231 194.977C128.419 192.129 127.365 188.291 126.703 185.393C133.953 187.073 141.288 188.363 148.677 189.259C149.111 192.107 149.716 195.86 150.258 198.672Z" fill="white"/>
<path opacity="0.3" d="M135.931 186.169C130.091 185.108 124.308 183.749 118.607 182.096C117.027 173.679 116.236 169.457 116.094 158.99C122.014 160.709 128.02 162.119 134.087 163.212C134.294 171.116 134.443 176.819 135.931 186.169Z" fill="white"/>
<path d="M217.888 224.548C212.839 225.345 211.479 225.559 205.128 226.221L206.089 224.519C211.786 223.921 213.281 223.758 219.469 222.768L217.888 224.548Z" fill="white"/>
<path d="M212.462 229.29C208.033 230.002 207.35 230.095 203.398 230.529L203.54 230.394L201.967 230.55L202.9 229.461C207.692 228.948 208.98 228.813 214.214 227.98L212.462 229.29Z" fill="white"/>
<path d="M142.767 185.065C142.767 185.848 142.311 187.123 140.439 186.916C137.704 186.354 136.572 183.249 138.139 182.124C139.705 180.999 142.724 182.836 142.767 185.065Z" fill="white"/>
<path d="M207.229 217.969C206.921 218.447 206.5 218.843 206.004 219.121C205.507 219.4 204.95 219.551 204.381 219.564C202.472 219.649 201.96 218.51 202.807 217.52C204.053 216.096 207.136 215.925 207.328 217.328C207.352 217.549 207.31 217.772 207.207 217.969" fill="white"/>
<path d="M141.97 176.592C141.971 176.9 141.903 177.205 141.77 177.484C141.637 177.762 141.442 178.007 141.201 178.199C140.96 178.392 140.678 178.527 140.377 178.595C140.076 178.663 139.764 178.662 139.463 178.592C136.686 178.016 135.704 174.712 137.384 173.501C139.064 172.291 142.048 174.213 141.97 176.592Z" fill="white"/>
<path opacity="0.4" d="M241.2 216.124C238.429 217.375 235.574 218.431 232.656 219.286C234.415 217.413 236.736 214.893 238.352 212.877C241.285 212.024 244.163 210.99 246.968 209.78L247.929 209.339C245.964 211.418 243.614 214.551 241.215 216.103" fill="white"/>
<path opacity="0.4" d="M263.907 193.752C262.626 195.489 260.974 197.853 259.635 199.541L257.029 202.66C255.879 203.917 254.561 205.01 253.113 205.907C254.993 203.514 257.478 200.296 259.201 197.782C262.419 195.468 262.483 195.425 264.335 193.14L263.915 193.752" fill="white"/>
<path opacity="0.4" d="M278.81 157.509C277.913 161.525 276.568 166.844 275.378 170.774C276.525 166.844 277.878 161.518 278.711 157.537L279.024 156.327L278.81 157.509Z" fill="white"/>
<path opacity="0.4" d="M250.044 209.851C251.511 208.37 253.526 206.455 254.929 204.917L255.747 204.098C254.046 205.835 251.817 208.185 250.051 209.851" fill="white"/>
<path opacity="0.4" d="M242.375 216.253L244.141 214.893L244.561 214.565L242.375 216.253Z" fill="white"/>
<path opacity="0.4" d="M250.578 167.321C250.272 170.596 249.866 174.968 249.368 178.229C246.455 178.941 242.561 179.832 239.627 180.444C240.667 171.009 240.724 170.475 240.873 162.03C243.864 161.39 247.851 160.5 250.842 159.766C250.77 162.03 250.77 165.057 250.592 167.321" fill="white"/>
<path opacity="0.4" d="M262.59 173.886C258.285 175.631 253.868 177.082 249.367 178.229C249.787 174.961 250.314 170.603 250.578 167.321C258.054 165.185 258.197 165.185 264.057 162.899C263.679 166.203 263.152 170.61 262.59 173.886Z" fill="white"/>
<path opacity="0.4" d="M257.67 190.512C255.534 191.31 252.742 192.342 250.613 193.047C253.397 184.695 253.568 184.196 255.056 176.599C257.328 175.823 260.354 174.762 262.59 173.886C260.489 182.964 260.361 183.506 257.67 190.512Z" fill="white"/>
<path opacity="0.4" d="M273.1 154.896C270.579 156.284 267.169 158.071 264.555 159.303C263.174 144.421 263.131 143.845 260.518 131.84C263.017 130.629 266.335 128.991 268.749 127.567C271.882 141.858 272.067 142.712 273.093 154.881" fill="white"/>
<path opacity="0.4" d="M275.357 170.119C273.513 172.654 271.419 175.531 262.675 179.468C263.387 176.307 264.341 172.077 264.883 168.88C266.656 168.019 269.005 166.837 270.721 165.861C274.282 163.447 275.905 162.344 277.92 159.26C277.208 162.536 276.817 167.093 275.357 170.119Z" fill="white"/>
<path opacity="0.4" d="M251.475 207.466C250.599 207.95 249.439 208.62 248.534 209.061L247.915 209.36L246.954 209.802C251.425 204.105 253.896 200.951 257.392 193.724C259.001 192.947 261.13 191.872 262.683 190.989C260.39 195.084 254.701 204.881 251.475 207.466Z" fill="white"/>
<path opacity="0.4" d="M248.065 195.482C245.523 196.194 242.119 197.056 239.556 197.661C242.048 189.594 242.197 189.116 243.579 181.704C246.327 181.035 249.987 180.116 252.707 179.361C250.685 188.205 250.571 188.732 248.065 195.482Z" fill="white"/>
<path opacity="0.4" d="M224.453 221.308L222.608 221.678C226.539 216.616 226.881 216.203 229.729 210.998L231.922 210.563C226.838 219.108 225.065 220.973 224.46 221.329" fill="white"/>
<path opacity="0.4" d="M221.456 221.899L219.512 222.241C223.115 217.257 223.407 216.829 226.034 211.646L228.348 211.24C223.62 219.784 221.997 221.572 221.456 221.92" fill="white"/>
<path opacity="0.4" d="M218.301 222.44L216.271 222.754C219.597 217.705 219.796 217.399 222.174 212.258L224.595 211.881C221.562 217.819 221.32 218.289 218.301 222.44Z" fill="white"/>
<path opacity="0.4" d="M274.097 160.321C273.961 161.233 273.499 162.956 272.673 163.625C271.747 164.159 271.583 162.337 272.06 160.471C272.537 158.605 273.52 157.352 273.969 158.143C274.22 158.842 274.262 159.599 274.09 160.321" fill="white"/>
<path opacity="0.4" d="M265.624 184.481C264.912 186.048 263.245 189.017 261.252 190.178C259.343 191.025 259.65 188.625 260.326 186.81C261.843 182.722 265.538 178.934 266.321 180.665C266.628 181.377 266.364 182.801 265.609 184.474" fill="white"/>
<path opacity="0.4" d="M203.391 230.529L201.255 232.352C200.066 233.062 198.828 233.688 197.552 234.225L197.26 234.26L195.416 234.424L193.038 234.602L193.55 234.339L193.899 234.118C195.864 232.395 195.864 232.395 196.804 230.949L198.94 230.807L201.995 230.55L203.569 230.394L203.426 230.529" fill="white"/>
<path opacity="0.4" d="M192.688 234.915C191.578 234.987 190.097 235.072 188.986 235.122L189.698 234.922C190.98 234.866 192.681 234.773 193.97 234.688L192.738 234.908" fill="white"/>
<path opacity="0.4" d="M276.974 157.687C276.838 158.605 276.454 160.343 275.848 161.033C275.265 161.525 275.236 160.2 275.314 159.339C275.514 157.203 276.418 154.846 276.881 155.344C277.109 155.586 277.144 156.512 276.974 157.687Z" fill="white"/>
<path opacity="0.4" d="M278.825 154.938C278.702 156.094 278.429 157.228 278.013 158.313C277.949 158.406 277.821 158.584 277.764 158.214C277.543 156.904 278.476 152.197 278.875 152.517C279.017 152.646 279.003 153.628 278.825 154.903" fill="white"/>
<path d="M151.126 226.428C149.488 226.029 147.31 225.481 145.686 225.004C140.033 220.681 139.691 220.418 135.504 215.847C137.555 216.402 140.289 217.114 142.347 217.598C146.733 222.754 146.996 223.067 151.126 226.399" fill="white"/>
<path d="M141.436 221.771C138.587 220.939 135.798 219.911 133.091 218.695C130.955 216.851 128.071 214.366 126.042 212.379C127.651 213.091 129.808 213.96 131.453 214.572C132.671 214.964 134.301 215.512 135.505 215.868C137.242 217.684 139.57 220.091 141.436 221.771Z" fill="white"/>
<path opacity="0.7" d="M124.88 206.106C126.76 208.726 129.373 212.144 131.46 214.601C129.822 213.974 127.65 213.12 126.048 212.408C120.466 206.134 120.131 205.757 116.243 199.726L118.422 200.702C119.661 201.179 121.27 201.841 122.545 202.282L124.88 206.106Z" fill="white"/>
<path opacity="0.7" d="M133.731 208.705C135.056 210.798 136.829 213.582 138.288 215.583C136.28 215.035 133.617 214.287 131.631 213.668C130.021 211.589 127.892 208.797 126.426 206.611C125.457 204.952 124.119 202.781 123.229 201.086C125.528 201.798 128.604 202.681 130.933 203.293C131.766 204.924 132.791 207.138 133.731 208.705Z" fill="white"/>
<path d="M125.272 198.601C125.5 199.27 125.543 200.303 124.226 199.968C122.004 199.178 120.345 196.066 121.484 195.561C122.481 195.126 124.674 196.885 125.272 198.601Z" fill="white"/>
<path d="M115.361 182.174C116.108 184.752 117.084 188.198 117.952 190.719L115.054 189.729C112.918 188.832 110.027 187.593 107.934 186.525C104.573 177.161 104.509 176.983 102.608 166.858C106.062 168.645 109.65 170.161 113.338 171.394C113.88 174.648 114.556 179.013 115.375 182.21" fill="white"/>
<path d="M108.297 189.857L106.211 188.526C102.444 179.938 100.892 176.378 98.7129 164.473L100.999 165.932C102.821 175.381 103.576 179.29 108.297 189.857Z" fill="white"/>
<path d="M98.9905 178.97L97.8584 176.335L95.3662 169.514L95.6937 170.361C96.6479 172.953 97.894 176.428 98.9905 178.97Z" fill="white"/>
<path opacity="0.7" d="M95.6868 136.81L94.5973 135.749L94.5617 136.055C92.4256 133.349 92.4256 133.349 91.9414 131.961L92.689 127.026C92.4676 126.112 92.3271 125.181 92.2689 124.242L92.9311 120.974V121.985C94.0135 117.926 95.6512 112.565 97.0468 108.606C97.652 111.119 97.9297 112.266 100.913 115.135C98.2359 123.331 96.762 127.845 95.6583 136.81" fill="white"/>
<path d="M91.9343 131.961C91.1582 141.431 91.0941 142.2 91.4216 148.423C91.2366 147.747 91.0963 147.06 91.0015 146.365L90.8164 140.256C91.2508 130.024 91.2579 129.825 92.1906 124.271L92.3758 123.231L92.2619 124.242C92.323 125.18 92.4635 126.112 92.682 127.026L91.9343 131.961Z" fill="white"/>
<path d="M93.5149 162.963L93.166 161.475L92.0908 156.021L92.2119 156.576L93.5149 162.963Z" fill="white"/>
<path d="M91.9054 153.685C91.9695 154.248 92.0763 155.223 92.0549 155.465C92.0312 155.431 92.0143 155.392 92.0051 155.351C92.0051 155.216 91.9197 154.96 91.7915 154.084L91.3785 150.801C91.3204 150.388 91.2871 149.972 91.2788 149.555C91.3999 149.719 91.7772 152.61 91.9054 153.685Z" fill="white"/>
<path d="M186.779 48.0319C187.467 48.0692 188.152 48.1501 188.829 48.274L185.753 49.3705L186.779 48.0319Z" fill="white"/>
<path d="M163.965 49.5627L166.194 49.2637L163.965 49.5627Z" fill="white"/>
<path opacity="0.7" d="M166.122 49.3136L166.193 49.2638L166.642 49.0075C175.379 48.4663 176.504 48.4022 185.753 49.392C176.283 48.6301 175.293 48.5446 166.122 49.3136Z" fill="white"/>
<path opacity="0.7" d="M165.994 57.4024C165.467 57.2102 164.755 56.9539 164.235 56.7402C161.472 58.2854 157.827 60.3717 155.142 62.0735C155.89 62.3583 156.887 62.7855 157.641 63.0062L157.015 63.4904C156.096 63.1629 154.879 62.7001 153.967 62.3227C161.956 57.4452 162.433 57.1532 169.461 54.0914C169.86 54.2552 170.394 54.4759 170.807 54.6183L169.988 55.0171L170.216 55.0954L165.994 57.4024Z" fill="white"/>
<path opacity="0.4" d="M144.868 62.5648C144.387 62.0696 143.942 61.5414 143.536 60.984C152.9 56.4056 153.263 56.2276 162.192 53.3153C162.408 53.6258 162.646 53.9208 162.904 54.1982C153.305 57.9151 152.935 58.0575 144.832 62.5648" fill="white"/>
<path d="M162.939 54.1982L167.34 52.8026L162.939 54.1982Z" fill="white"/>
<path opacity="0.4" d="M132.229 80.4015C130.338 79.5331 128.551 78.4534 126.903 77.183C137.306 67.7342 142.347 63.9888 155.684 57.4309C156.524 58.0816 157.437 58.6335 158.404 59.0757C147.851 65.4841 142.86 69.0444 132.229 80.4015Z" fill="white"/>
<path opacity="0.7" d="M168.586 53.6642C168.258 53.4649 167.831 53.1943 167.525 52.9522C176.981 50.4956 177.75 50.2963 185.753 49.392C176.625 51.0582 175.877 51.1934 168.586 53.6642Z" fill="white"/>
<path opacity="0.4" d="M129.21 73.9717C128.547 73.2865 127.934 72.556 127.373 71.7857C135.276 65.7761 135.746 65.3773 142.973 61.2831C143.383 61.8487 143.833 62.3841 144.319 62.8852C136.031 68.2825 135.533 68.5815 129.21 73.9717Z" fill="white"/>
<path opacity="0.4" d="M134.778 65.9541C134.216 64.4801 133.966 63.8179 134.735 61.9381C143.864 57.0464 144.035 56.9538 153.54 53.6001C153.333 53.9905 153.225 54.4257 153.225 54.8675C153.225 55.3094 153.333 55.7446 153.54 56.135C143.693 60.4072 143.508 60.5141 134.75 65.9541" fill="white"/>
<path opacity="0.7" d="M172.239 53.6073C171.854 53.4506 171.349 53.237 170.971 53.059C179.608 50.4458 180.128 50.2891 185.753 49.392C181.574 50.3703 177.462 51.6141 173.442 53.116C173.072 53.3476 172.665 53.5138 172.239 53.6073Z" fill="white"/>
<path opacity="0.7" d="M179.708 51.4497L179.081 51.2574C177.152 51.9695 174.553 52.9236 172.673 53.7638L172.388 53.657C180.221 50.6949 180.676 50.5169 185.768 49.3848L181.752 50.5454L181.937 50.6024L179.708 51.4497Z" fill="white"/>
<path d="M158.005 54.5115C157.293 54.7393 155.62 55.2662 155.435 55.0882C155.47 54.6468 160.568 52.9521 160.946 53.301C160.903 53.5573 158.034 54.4972 158.005 54.5115Z" fill="white"/>
<path d="M157.735 53.6713C156.852 53.9348 155.349 54.3833 155.25 54.1769C155.428 53.7496 160.134 52.354 160.782 52.5392V52.5819C159.794 53.0191 158.776 53.3832 157.735 53.6713Z" fill="white"/>
<path d="M157.791 52.8381C157.028 53.1077 156.229 53.2636 155.42 53.301C155.755 52.8595 160.404 51.6134 160.924 51.827C160.853 52.0264 158.71 52.6174 157.791 52.8666" fill="white"/>
<path opacity="0.4" d="M119.604 73.1528C120.138 72.314 120.73 71.5144 121.377 70.7604C128.427 64.8718 128.847 64.5157 135.419 60.4927C134.914 61.0827 134.452 61.7086 134.038 62.3654C126.049 67.5989 125.571 67.9122 119.604 73.1528Z" fill="white"/>
<path d="M97.0678 108.606C95.6793 112.572 94.0202 117.926 92.9521 121.985V120.974L93.123 119.678C93.9704 116.488 95.1168 112.23 96.1492 109.097L97.0179 106.711L99.3392 101.214C99.0736 102.263 98.9208 103.337 98.8835 104.419L97.0962 108.606" fill="white"/>
<path d="M102.757 110.913C100.422 108.492 99.3539 107.395 98.8555 104.419C98.8958 103.338 99.0485 102.264 99.3112 101.215C100.806 98.2951 102.836 94.4216 104.516 91.609C103.939 93.9659 103.299 96.6432 107.756 100.723C106.197 103.749 104.146 107.801 102.772 110.913" fill="white"/>
<path opacity="0.4" d="M143.323 56.9823C143.792 56.4441 144.291 55.933 144.818 55.4514L148.343 54.0273L147.844 54.4617C156.467 51.6135 156.638 51.5636 161.302 50.6522C161.131 50.8374 160.889 51.0723 160.739 51.2717C151.312 53.7069 150.771 53.8564 143.33 56.9681" fill="white"/>
<path opacity="0.4" d="M137.875 59.6383C138.399 59.0294 138.96 58.4538 139.555 57.9151L143.621 55.9641C143.081 56.4583 142.569 56.9838 142.09 57.5377L137.875 59.6739" fill="white"/>
<path opacity="0.4" d="M105.029 93.1186C105.069 92.1149 105.21 91.1178 105.449 90.1422C110.832 82.6017 110.939 82.4593 114.399 78.6854C114.182 79.5504 114.055 80.4358 114.022 81.3271C107.97 88.6185 107.856 88.7537 105.029 93.1186Z" fill="white"/>
<path opacity="0.4" d="M103.327 93.3749L103.611 92.8551C105.748 89.537 108.596 85.1864 110.953 82.0249C116.912 74.9685 117.026 74.8333 120.758 71.3442C119.973 72.2091 119.258 73.1353 118.621 74.1141C112.007 80.9141 109.272 83.7267 103.348 93.4105" fill="white"/>
<path d="M132.976 103.87C131.93 105.886 129.715 106.391 129.146 104.753C128.576 103.116 130.42 100.189 132.392 100.588C133.724 101.065 133.532 102.795 132.976 103.87ZM138.787 108.563C139.919 105.53 141.45 101.492 142.689 98.5016C141.265 98.1812 139.314 97.7896 137.875 97.4336L140.225 92.791L138.63 92.3852C137.59 94.386 136.166 97.0277 135.191 99.057C133.112 98.4732 130.342 97.6685 128.291 97.0135C129.459 95.0482 130.968 92.4065 132.2 90.484C129.897 89.7273 127.649 88.8138 125.471 87.7498C120.145 95.3829 119.711 96.0024 116.606 101.613C120.879 103.536 126.233 105.928 138.787 108.563Z" fill="white"/>
<path d="M100.692 98.2595L102.01 95.7175L101.889 95.9525L100.692 98.2595Z" fill="white"/>
<path opacity="0.4" d="M115.973 101.3C114.548 100.495 112.654 99.3845 111.294 98.4518C116.663 90.128 116.991 89.6295 122.296 83.2781C123.463 84.0471 125.058 85.0226 126.283 85.6919C120.437 93.6241 120.088 94.1012 115.973 101.293" fill="white"/>
<path d="M175.799 46.145L177.821 45.9527C178.946 45.8744 180.441 45.7747 181.566 45.7178C182.027 45.7851 182.478 45.9045 182.912 46.0738C181.189 46.1664 180.876 46.1806 179.352 46.3301C178.171 46.1823 176.981 46.1204 175.792 46.145" fill="white"/>
<path d="M182.834 45.8246C184.97 45.7748 185.169 45.7676 186.757 45.7819L186.672 45.9029L188.516 45.9528L187.633 46.6221L187.128 47.1917C186.786 47.1917 186.33 47.1917 185.981 47.1917C184.999 47.1917 184.963 47.1917 184.429 47.1917C183.957 46.6726 183.421 46.2156 182.834 45.8317" fill="white"/>
<path d="M131.56 121.202C126.98 120.19 122.463 118.913 118.031 117.378C119.248 114.181 120.879 109.923 122.253 106.783C126.423 108.196 130.666 109.384 134.963 110.343C133.909 113.576 132.521 117.905 131.581 121.18" fill="white"/>
<path opacity="0.3" d="M119.142 144.607C114.189 143.226 109.351 141.462 104.673 139.33C106.239 130.294 107.023 125.759 110.633 115.833C114.966 117.813 119.449 119.446 124.04 120.717C121.612 129.668 120.402 134.161 119.142 144.607Z" fill="white"/>
<path d="M192.788 45.8958L194.718 46.0666L196.633 46.266C194.875 46.2573 193.119 46.4027 191.385 46.7004L189.548 46.5223C190.593 46.1596 191.684 45.9486 192.788 45.8958Z" fill="white"/>
<path opacity="0.4" d="M136.174 59.5884L137.363 58.8763L141.464 56.5764C140.788 56.9609 139.869 57.4736 139.207 57.9008L136.174 59.6168" fill="white"/>
<path opacity="0.4" d="M141.101 56.8898C141.948 56.3771 143.102 55.722 143.985 55.2663L148.129 53.358C146.782 53.9126 145.491 54.597 144.277 55.4016L141.101 56.8898Z" fill="white"/>
<path opacity="0.4" d="M146.242 54.5614C147.648 53.6532 149.147 52.8966 150.713 52.3042L153.64 51.229C152.384 51.7153 151.174 52.3109 150.023 53.0091L149.645 53.1373L149.161 53.4506L146.242 54.5614Z" fill="white"/>
<path d="M108.44 118.247C108.091 119.087 107.215 120.383 106.161 119.913C104.488 118.781 105.833 114.75 107.485 114.43C108.724 114.195 109.244 116.296 108.44 118.247Z" fill="white"/>
<path opacity="0.4" d="M124.275 68.1828L123.229 69.0728L127.23 65.7689C127.23 65.7689 125.657 67.0221 124.275 68.1828Z" fill="white"/>
<path d="M105.769 127.069C105.491 127.931 104.737 129.262 103.633 128.785C101.896 127.617 102.921 123.459 104.487 123.124C105.698 122.875 106.389 125.047 105.741 127.069" fill="white"/>
<path d="M103.861 136.176C103.662 137.052 103.028 138.412 101.939 137.92C100.208 136.774 100.821 132.459 102.302 132.139C103.477 131.882 104.331 134.111 103.861 136.176Z" fill="white"/>
<path d="M162.875 50.3745L161.295 50.6735C152.223 52.8097 152.223 52.8097 147.837 54.483L148.335 54.0486L149.161 53.4363L149.646 53.123L150.023 52.9948C158.154 50.5311 158.639 50.3887 163.965 49.5627L166.193 49.2637L166.122 49.3135L165.688 49.6126L165.218 49.9971L162.875 50.3745Z" fill="white"/>
<path d="M98.1786 146.792C98.1786 150.274 98.2142 154.917 98.4278 158.392C96.9714 157.316 95.5716 156.166 94.2339 154.945C93.8209 145.902 93.7497 144.265 94.5543 136.055L94.5899 135.749L95.6793 136.81C96.5979 137.522 97.8154 138.526 98.7696 139.188C98.5916 141.466 98.2213 144.507 98.1786 146.792Z" fill="white"/>
<path opacity="0.3" d="M109.116 163.718C103.085 161.183 102.85 161.083 98.4354 158.392C98.2858 154.917 98.1221 150.274 98.1862 146.792C102.957 149.641 103.049 149.705 108.902 152.14C108.902 155.615 108.902 160.25 109.123 163.718" fill="white"/>
<path d="M183.339 52.4751L184.051 51.5067L183.183 51.4213L180.79 53.7283H180.968L182.25 52.3968L183.339 52.4893" fill="white"/>
<path d="M186.202 49.748H185.789L185.753 49.3777L186.202 49.7337" fill="white"/>
<path d="M188.487 51.82C187.718 51.884 187.604 51.8983 186.9 51.9268L186.237 50.3816H185.846V50.2036C186.141 50.2047 186.435 50.1904 186.729 50.1609L188.502 51.8128" fill="white"/>
<path d="M183.56 50.9157C183.008 50.8532 182.46 50.7509 181.922 50.6096L181.737 50.5526L185.753 49.392L183.56 50.9157Z" fill="white"/>
<path opacity="0.3" d="M125.699 151.435C120.728 150.317 115.828 148.905 111.024 147.206L111.309 144.229C116.093 145.92 120.975 147.323 125.927 148.43L125.699 151.428" fill="white"/>
<path d="M204.786 56.3272L202.842 55.3446L204.786 56.3272Z" fill="white"/>
<path d="M219.461 52.3042C220.045 52.6745 220.821 53.1872 221.377 53.6073C212.462 50.8801 211.892 50.7377 204.024 49.6127C203.739 49.3991 203.348 49.1285 203.042 48.9434C208.625 49.432 214.135 50.5596 219.461 52.3042Z" fill="white"/>
<path opacity="0.3" d="M244.703 68.3039C244.782 69.0305 244.782 69.7633 244.703 70.4899C236.735 64.6582 236.258 64.3093 228.974 60.3361C229.034 59.8038 229.034 59.2663 228.974 58.734C237.611 63.2982 238.131 63.5688 244.71 68.3039" fill="white"/>
<path d="M213.673 54.1484C214.805 54.5258 216.015 55.0385 216.03 55.2521C215.773 55.4871 210.575 53.771 210.525 53.4364C210.696 53.3011 212.362 53.7069 213.673 54.1484Z" fill="white"/>
<path d="M213.26 54.9672C214.406 55.3873 215.531 55.9284 215.474 56.142C215.111 56.3628 210.013 54.4901 210.07 54.1625C210.305 54.0344 211.95 54.483 213.26 54.9672Z" fill="white"/>
<path d="M212.54 55.7647C213.651 56.2275 214.712 56.7972 214.584 57.0037C214.114 57.2173 209.5 55.366 209.329 54.8675C209.436 54.6682 211.18 55.1808 212.54 55.7362" fill="white"/>
<path opacity="0.4" d="M149.496 72.9036C147.46 75.3032 144.761 78.5145 142.838 81.0067C141.265 80.5154 139.171 79.8318 137.619 79.2764C144.028 72.2699 144.448 71.8498 150.343 66.8014C151.483 67.2073 153.021 67.7271 154.181 68.0831C152.757 69.5072 150.828 71.387 149.496 72.9036Z" fill="white"/>
<path opacity="0.4" d="M145.622 99.0713L142.688 98.5017C141.264 98.1813 139.313 97.7896 137.875 97.4336L140.225 92.7911C142.083 89.5157 144.632 85.1935 146.633 82.0178C148.527 82.445 151.055 82.9933 152.963 83.3636C148.848 91.3456 148.606 91.8227 145.608 99.0713" fill="white"/>
<path opacity="0.3" d="M248.064 82.4379C246.989 83.1499 245.537 84.04 244.412 84.6595C238.003 77.2471 237.612 76.8269 231.595 71.3656C232.463 70.8671 233.617 70.1907 234.443 69.6282C241.969 75.9796 242.418 76.3641 248.029 82.445" fill="white"/>
<path d="M154.345 106.861C151.639 106.484 148.029 105.964 145.331 105.53C148.528 96.5863 148.72 96.0523 151.839 89.0956C154.103 89.4516 157.129 89.9073 159.408 90.2135C156.844 97.8609 156.382 99.2351 154.345 106.861Z" fill="white"/>
<path d="M276.475 126.67C275.466 127.823 274.391 128.916 273.257 129.946C270.907 120.247 270.764 119.671 267.738 111.867C268.802 110.907 269.808 109.885 270.75 108.805C274.353 118.062 274.567 118.603 276.447 126.67" fill="white"/>
<path opacity="0.4" d="M280.355 140.598L280.12 147.191L279.764 148.993C280.049 138.825 280.07 138.212 279.052 129.825C279.263 128.715 279.361 127.586 279.344 126.457C279.793 130.686 280.37 136.34 280.362 140.598" fill="white"/>
<path opacity="0.4" d="M138.63 92.3853C137.59 94.3861 136.166 97.0278 135.191 99.0571C133.112 98.4733 130.342 97.6686 128.291 97.0136C129.459 95.0483 130.968 92.4066 132.2 90.4841C134.002 87.8495 136.43 84.3392 138.352 81.79C140.054 82.3241 142.325 83.0076 144.049 83.4776C142.382 86.1264 140.125 89.6368 138.63 92.3853Z" fill="white"/>
<path d="M230.221 68.019C229.324 68.5175 228.085 69.1583 227.194 69.5998L223.549 66.6234C224.389 66.2104 225.5 65.6479 226.312 65.1993L230.221 68.0475" fill="white"/>
<path opacity="0.3" d="M244.647 95.2618C243.059 95.81 240.937 96.5292 239.335 97.0205C234.799 89.0243 232.727 85.3786 226.397 77.4464C227.607 77.0619 229.245 76.5492 230.42 76.1149C236.351 82.9647 239.057 86.0835 244.661 95.2618" fill="white"/>
<path opacity="0.3" d="M248.591 102.454C246.896 103.037 244.639 103.806 242.895 104.326L240.139 98.6298C241.763 98.1101 243.927 97.4194 245.529 96.8497L248.563 102.475" fill="white"/>
<path opacity="0.3" d="M264.741 97.1986C263.861 98.1985 262.926 99.1493 261.942 100.047C256.851 91.844 256.759 91.6874 253.476 87.4863C254.356 86.6933 255.186 85.8467 255.961 84.9514" fill="white"/>
<path opacity="0.3" d="M263.352 104.995C260.153 107.188 256.691 108.97 253.049 110.3C248.919 101.293 247.217 97.5617 240.616 87.8708C244.02 86.4467 246.078 85.5922 248.997 83.5558C255.213 91.2886 257.784 94.4857 263.338 105.003" fill="white"/>
<path opacity="0.7" d="M173.214 55.9C171.79 55.5582 171.462 55.487 170.216 55.0954L169.988 55.017L170.807 54.6183L172.658 53.7638C174.581 53.002 177.123 51.9196 179.067 51.2574L179.693 51.4497L180.406 51.6277C178.205 52.8524 175.279 54.5186 173.171 55.9" fill="white"/>
<path opacity="0.3" d="M268.92 95.2334L271.149 99.6125L271.234 99.7976C269.711 96.9494 267.639 93.0759 265.937 90.2918L265.282 89.1027L268.92 95.2334Z" fill="white"/>
<path d="M270.48 123.359C266.485 125.965 266.407 126.015 261.102 128.4C257.614 129.81 254.048 131.021 250.422 132.025L249.859 129.476C248.805 125.367 247.274 119.913 246.007 115.861C251.646 114.145 258.667 112.009 264.684 107.787C268.443 116.645 268.664 117.179 270.466 123.359" fill="white"/>
<path d="M190.125 61.9524C187.398 62.0378 186.743 62.0521 183.617 62.0165C183.859 60.2292 184.173 57.8581 184.443 56.078C186.159 56.078 186.465 56.078 188.046 56.078C188.466 57.7656 189.022 60.0085 189.399 61.7032H190.054L190.125 61.9951" fill="white"/>
<path d="M183.781 57.6374C181.745 57.5591 181.488 57.5448 179.964 57.4309L180.456 56.5622C179.929 56.5124 179.231 56.4554 178.704 56.3984L180.968 53.7283L182.25 52.3967L183.34 52.4893C184.308 52.5534 184.329 52.5534 184.856 52.5676C184.514 54.0914 184.073 56.1278 183.781 57.6516" fill="white"/>
<path d="M163.516 73.2098C161.907 72.9464 159.764 72.5832 158.162 72.2842C164.819 63.8963 168.408 59.8803 177.209 53.771C177.707 53.8636 178.369 53.9846 178.868 54.0629C173.335 59.1825 170.138 62.3583 163.516 73.1956" fill="white"/>
<path d="M181.559 63.6257C180.541 63.5758 179.181 63.5046 178.163 63.4405L177.493 65.2491L176.269 65.1566C177.137 63.2198 178.305 60.6493 179.252 58.7482C180.263 58.8194 181.616 58.9048 182.627 58.9475C182.3 60.3716 181.858 62.2158 181.559 63.6257Z" fill="white"/>
<path d="M186.9 51.9268L187.163 52.5961H187.006L187.719 54.7892C186.252 54.7892 185.988 54.7892 184.571 54.7892C184.771 53.8137 185.013 52.5107 185.234 51.5423L185.518 50.3674H186.266L186.928 51.9126" fill="white"/>
<path d="M132.976 103.87C132.556 104.675 131.481 105.957 130.078 105.672C128.127 104.96 129.203 101.62 131.175 100.73C132.791 100.018 133.888 101.442 133.204 103.351C133.139 103.528 133.063 103.702 132.976 103.87Z" fill="white"/>
<path opacity="0.3" d="M241.335 82.5803C241.841 83.2283 242.581 84.5812 241.805 85.0369C240.217 85.5496 237.533 82.0819 238.031 80.9782C238.416 80.195 240.168 81.0281 241.335 82.5803Z" fill="white"/>
<path d="M213.523 76.9836C209.158 77.6957 207.991 77.8523 202.508 78.4077C201.596 75.9725 200.372 72.7114 199.368 70.3118C203.298 69.8988 204.01 69.8276 207.293 69.322L208.325 70.8387L209.408 70.6607C210.654 72.5476 212.341 75.0469 213.523 76.9765" fill="white"/>
<path opacity="0.3" d="M201.618 78.4932C196.804 78.8564 195.665 78.9418 190.04 79.1127C189.812 76.649 189.499 73.3522 189.242 70.8886C193.13 70.7604 194.177 70.7319 198.648 70.3901C199.567 72.8111 200.784 76.0438 201.618 78.4932Z" fill="white"/>
<path opacity="0.4" d="M214.712 88.5331C209.073 89.2451 207.734 89.4231 201.005 89.9571C200.393 87.1944 199.581 83.5487 198.869 80.7718C203.796 80.3801 205.121 80.2733 210.661 79.5613C211.907 82.2386 213.544 85.8273 214.691 88.5473" fill="white"/>
<path d="M164.883 89.4232C159.578 88.8393 158.154 88.7111 152.351 87.7498C153.718 85.0654 155.548 81.4981 157.015 78.8635C161.287 79.5756 162.441 79.7251 167.802 80.2876C166.898 83.0147 165.709 86.6533 164.883 89.4018" fill="white"/>
<path opacity="0.3" d="M169.911 110.642C166.913 110.428 162.918 110.129 159.942 109.859C161.288 103.45 162.562 97.4478 164.926 89.423C165.774 86.6816 166.92 83.0146 167.846 80.3088C169.925 80.4868 172.702 80.7076 174.788 80.85C172.652 91.3954 171.619 97.4834 169.953 110.642" fill="white"/>
<path opacity="0.3" d="M199.923 90.0425C194.049 90.3416 192.653 90.4128 185.875 90.4698C185.875 87.6928 185.875 83.9901 185.875 81.2132C190.859 81.1633 192.183 81.1491 197.979 80.8429C198.592 83.5985 199.403 87.2513 199.952 90.0425" fill="white"/>
<path opacity="0.3" d="M176.717 101.827L172.609 101.642C173.022 98.637 173.577 94.6353 174.033 91.6732L177.7 91.837C177.401 94.8418 176.988 98.8506 176.725 101.863" fill="white"/>
<path opacity="0.3" d="M195.373 125.225C184.33 125.431 181.132 125.424 169.448 124.897C170.003 118.795 170.637 111.874 171.741 103.372C181.617 103.814 184.329 103.849 194.056 103.657C194.469 109.496 194.939 116.118 195.373 125.225Z" fill="white"/>
<path opacity="0.3" d="M189.136 79.0343C182.4 79.0343 180.463 79.0343 173.399 78.6285C175.187 72.1773 175.536 70.8387 177.494 65.2491L178.163 63.4406C179.181 63.4975 180.541 63.583 181.559 63.6257C184.571 63.704 185.12 63.7182 187.84 63.6898C188.217 67.5775 188.644 71.978 189.136 79.0343Z" fill="white"/>
<path opacity="0.4" d="M244.048 147.469C240.851 148.11 236.586 148.893 233.368 149.491C232.52 140.384 232.399 138.746 230.975 130.359C234.023 129.817 238.096 129.07 241.115 128.443C243.044 138.412 243.158 139.024 244.048 147.469Z" fill="white"/>
<path opacity="0.4" d="M230.825 179.176L230.113 179.283C221.505 180.444 220.394 180.593 213.309 181.234L213.437 178.82C213.953 167.744 213.865 156.649 213.174 145.582C221.761 144.742 223.313 144.592 230.569 143.546C231.801 158.335 231.858 165.996 230.847 179.148" fill="white"/>
<path opacity="0.7" d="M233.653 128.109C228.213 128.742 220.95 129.533 215.489 130.045C213.915 116.096 213.63 113.583 211.679 100.972C216.664 100.488 223.221 99.8047 228.156 99.2137C231.09 112.743 231.624 115.149 233.653 128.109Z" fill="white"/>
<path opacity="0.7" d="M202.216 182.288C189.969 182.53 182.578 182.68 166.963 182.082L164.67 181.975C164.67 177.802 164.706 172.234 164.755 168.054C164.862 162.985 165.019 156.213 165.183 151.143C179.715 151.677 185.568 151.855 201.945 151.449C202.166 164.024 202.23 167.406 202.216 182.288Z" fill="white"/>
<path d="M206.516 109.809C203.398 110.008 199.239 110.25 196.113 110.386C195.629 104.59 195.081 98.0245 194.191 90.2917C196.726 90.1778 200.108 89.9997 202.643 89.8289C203.818 95.1763 205.156 101.222 206.516 109.809Z" fill="white"/>
<path d="M229.195 92.67L227.308 93.083C223.036 84.8589 222.78 84.3675 218.764 78.13L220.266 77.8025C225.25 85.2861 225.528 85.7347 229.202 92.6486" fill="white"/>
<path opacity="0.3" d="M232.122 91.9794L230.32 92.4138C225.742 84.2608 225.464 83.7695 221.149 77.6175L222.573 77.2686C227.871 84.6809 228.184 85.1011 232.114 91.9794" fill="white"/>
<path opacity="0.3" d="M234.877 91.246L233.183 91.7088C228.305 83.6271 228.013 83.1643 223.42 77.0549L224.766 76.6918C230.377 84.0116 230.712 84.4459 234.877 91.246Z" fill="white"/>
<path opacity="0.7" d="M196.377 142.57C196.302 143.314 195.953 144.002 195.397 144.501C194.841 145.001 194.119 145.274 193.372 145.269C190.396 145.183 189.392 142.05 191.129 140.334C193.023 138.469 196.313 139.686 196.384 142.278C196.391 142.375 196.391 142.473 196.384 142.57" fill="white"/>
<path d="M207.741 118.403C207.773 119.771 207.269 121.097 206.339 122.099C205.408 123.102 204.123 123.702 202.757 123.772C197.06 123.772 194.96 117.364 198.385 114.117C201.81 110.87 207.641 113.604 207.77 118.389" fill="white"/>
<path d="M206.516 55.5938L207.94 56.2489C216.164 60.4784 216.164 60.4784 220.138 63.1272L219.312 63.5117L217.994 64.0671L217.282 64.3377L216.955 64.0885C209.87 59.1042 209.443 58.8122 204.793 56.3272L202.849 55.3446L202.956 55.3019L203.632 55.0384L204.401 54.6824L206.538 55.5938" fill="white"/>
<path d="M201.639 58.3637L201.126 57.965L199.033 56.4127L201.639 58.3637Z" fill="white"/>
<path d="M199.033 56.4126L201.881 58.5488C200.991 58.7268 199.809 58.9546 198.912 59.1042C196.875 59.4032 195.401 59.6168 192.503 59.8162C191.642 58.1571 190.488 55.9498 189.534 54.3406C191.292 54.2183 193.041 53.9804 194.768 53.6285L199.04 56.4126" fill="white"/>
<path opacity="0.3" d="M195.814 67.1147C195.985 67.6558 196.056 68.7168 195.102 68.8521C193.4 68.8521 192.66 66.1249 193.479 65.4058C194.191 64.8077 195.437 65.8971 195.814 67.1147Z" fill="white"/>
<path opacity="0.3" d="M191.756 67.3568C191.848 67.9407 191.756 68.9661 190.787 69.0657C189.199 69.0088 188.794 66.4454 189.612 65.655C190.431 64.8647 191.549 66.0609 191.749 67.3568" fill="white"/>
<path opacity="0.7" d="M186.523 142.734C186.427 143.471 186.061 144.147 185.495 144.628C184.929 145.11 184.204 145.364 183.461 145.34C180.492 145.169 179.573 142.008 181.36 140.356C183.297 138.554 186.537 139.872 186.537 142.492C186.544 142.589 186.544 142.687 186.537 142.784" fill="white"/>
<path opacity="0.7" d="M176.724 142.591C176.617 143.319 176.241 143.98 175.67 144.444C175.099 144.908 174.375 145.141 173.641 145.098C173.058 145.091 172.49 144.909 172.011 144.575C171.533 144.242 171.165 143.772 170.956 143.228C170.748 142.683 170.707 142.088 170.841 141.52C170.974 140.952 171.275 140.437 171.704 140.042C172.139 139.651 172.677 139.394 173.254 139.302C173.832 139.211 174.423 139.289 174.957 139.527C175.491 139.765 175.944 140.154 176.262 140.644C176.579 141.135 176.747 141.708 176.746 142.292C176.746 142.385 176.746 142.506 176.746 142.591" fill="white"/>
</g>
<path opacity="0.8" d="M161.957 135.008C161.088 139.651 156.567 148.217 145.68 147.376C130.684 144.528 129.744 126.079 141.009 118.98C151.689 112.266 164.399 121.999 161.957 135.008Z" fill="white"/>
<path d="M145.224 146.08C144.739 146.08 144.241 146.08 143.721 146.023C137.128 144.777 132.514 140.327 131.339 134.139C130.733 130.841 131.125 127.437 132.466 124.363C133.807 121.29 136.035 118.686 138.865 116.887C141.122 115.39 143.775 114.605 146.483 114.632C149.191 114.66 151.828 115.5 154.053 117.043C159.215 120.554 161.658 126.791 160.461 133.328C159.578 137.878 155.313 146.08 145.224 146.08ZM146.398 115.463C143.87 115.479 141.399 116.221 139.278 117.599C136.582 119.309 134.459 121.786 133.182 124.712C131.904 127.638 131.53 130.879 132.108 134.018C133.219 139.871 137.59 144.072 143.807 145.254C154.359 146.059 158.76 137.728 159.614 133.207C160.782 126.991 158.468 121.059 153.576 117.741C151.471 116.266 148.969 115.464 146.398 115.441V115.463Z" fill="white"/>
<path d="M148.378 111.041C148.338 111.047 148.297 111.047 148.257 111.041C148.207 111.025 148.16 110.999 148.12 110.965C148.08 110.93 148.047 110.889 148.023 110.842C147.999 110.795 147.985 110.743 147.981 110.691C147.977 110.638 147.984 110.585 148 110.535C157.969 79.5257 175.151 55.1381 193.984 45.2977C194.031 45.2729 194.083 45.2576 194.136 45.2528C194.189 45.2479 194.243 45.2536 194.294 45.2695C194.345 45.2854 194.392 45.3111 194.433 45.3453C194.474 45.3794 194.508 45.4213 194.533 45.4686C194.579 45.5635 194.587 45.6725 194.555 45.7731C194.523 45.8738 194.454 45.9584 194.362 46.0097C175.706 55.7576 158.66 79.9672 148.791 110.806C148.756 110.884 148.697 110.949 148.623 110.992C148.549 111.034 148.463 111.051 148.378 111.041Z" fill="white"/>
<path d="M142.097 193.845C142.005 193.845 141.916 193.813 141.844 193.754C141.773 193.696 141.724 193.615 141.706 193.524C139.142 180.593 138.494 166.424 139.783 151.4C139.788 151.347 139.803 151.296 139.827 151.25C139.852 151.203 139.885 151.162 139.925 151.128C139.965 151.094 140.012 151.069 140.062 151.053C140.112 151.037 140.165 151.032 140.218 151.036C140.27 151.041 140.321 151.056 140.367 151.08C140.414 151.105 140.455 151.138 140.489 151.178C140.523 151.219 140.548 151.265 140.564 151.315C140.58 151.366 140.585 151.418 140.581 151.471C139.306 166.424 139.947 180.515 142.496 193.367C142.515 193.472 142.492 193.58 142.432 193.668C142.372 193.756 142.28 193.817 142.176 193.837L142.097 193.845Z" fill="white"/>
<path d="M160.483 232.537C160.431 232.538 160.38 232.528 160.332 232.508C160.284 232.489 160.241 232.46 160.205 232.423C153.02 225.367 147.31 214.765 143.685 201.805C143.659 201.702 143.674 201.593 143.728 201.502C143.781 201.41 143.868 201.342 143.97 201.314C144.021 201.299 144.074 201.294 144.126 201.3C144.178 201.306 144.229 201.322 144.275 201.348C144.321 201.374 144.361 201.409 144.393 201.451C144.425 201.493 144.448 201.541 144.462 201.592C148.022 214.451 153.683 224.925 160.767 231.882C160.842 231.958 160.884 232.06 160.884 232.167C160.884 232.273 160.842 232.376 160.767 232.452C160.686 232.515 160.585 232.545 160.483 232.537Z" fill="white"/>
<path d="M252.956 168.902L245.836 163.867C245.598 163.699 245.325 163.587 245.038 163.539C244.75 163.491 244.456 163.508 244.176 163.59L229.11 168.019C228.866 168.09 228.638 168.208 228.44 168.368C228.242 168.527 228.078 168.723 227.956 168.946C227.834 169.169 227.758 169.414 227.731 169.667C227.704 169.919 227.727 170.175 227.799 170.418L235.582 196.906C235.727 197.398 236.061 197.811 236.511 198.057C236.961 198.303 237.49 198.36 237.982 198.216L273.406 187.806C273.649 187.734 273.876 187.615 274.073 187.456C274.27 187.296 274.434 187.1 274.555 186.877C274.676 186.654 274.752 186.409 274.778 186.157C274.805 185.905 274.781 185.65 274.709 185.407L269.269 166.894C269.198 166.65 269.079 166.422 268.92 166.224C268.761 166.026 268.564 165.862 268.341 165.74C268.118 165.619 267.873 165.542 267.621 165.515C267.368 165.488 267.113 165.511 266.869 165.583L254.594 169.193C254.316 169.27 254.025 169.283 253.742 169.232C253.459 169.182 253.19 169.069 252.956 168.902Z" fill="#263238"/>
<path d="M266.965 148.282L235.702 151.507L239.083 184.287L270.347 181.062L266.965 148.282Z" fill="white"/>
<path d="M234.251 173.786L237.861 196.244C237.891 196.484 237.974 196.715 238.103 196.919C238.233 197.124 238.405 197.298 238.609 197.429C238.812 197.56 239.042 197.644 239.282 197.677C239.521 197.71 239.766 197.69 239.997 197.618L275.421 187.208C275.928 187.046 276.361 186.709 276.643 186.258C276.926 185.808 277.04 185.271 276.966 184.745L273.356 162.287C273.325 162.047 273.242 161.816 273.113 161.612C272.984 161.407 272.812 161.233 272.608 161.102C272.405 160.971 272.175 160.886 271.935 160.854C271.695 160.821 271.451 160.841 271.22 160.912L235.796 171.323C235.289 171.485 234.856 171.822 234.573 172.272C234.291 172.723 234.176 173.259 234.251 173.786Z" fill="#136CFB"/>
<g opacity="0.3">
<path d="M234.251 173.786L237.861 196.244C237.891 196.484 237.974 196.715 238.103 196.919C238.233 197.124 238.405 197.298 238.609 197.429C238.812 197.56 239.042 197.644 239.282 197.677C239.521 197.71 239.766 197.69 239.997 197.618L275.421 187.208C275.928 187.046 276.361 186.709 276.643 186.258C276.926 185.808 277.04 185.271 276.966 184.745L273.356 162.287C273.325 162.047 273.242 161.816 273.113 161.612C272.984 161.407 272.812 161.233 272.608 161.102C272.405 160.971 272.175 160.886 271.935 160.854C271.695 160.821 271.451 160.841 271.22 160.912L235.796 171.323C235.289 171.485 234.856 171.822 234.573 172.272C234.291 172.723 234.176 173.259 234.251 173.786Z" fill="white"/>
</g>
<path d="M175.517 175.629L155.317 162.903L143.191 182.151L163.391 194.877L175.517 175.629Z" fill="white"/>
<path d="M150.029 59.7379L144.547 54.8959C144.364 54.7334 144.146 54.6148 143.911 54.5494C143.675 54.484 143.427 54.4734 143.187 54.5186L130.206 56.8683C129.996 56.9052 129.796 56.9832 129.617 57.0978C129.437 57.2124 129.282 57.3613 129.16 57.5359C129.039 57.7106 128.953 57.9076 128.907 58.1156C128.862 58.3237 128.858 58.5386 128.896 58.7481L133.026 81.5763C133.063 81.7858 133.141 81.9859 133.255 82.165C133.37 82.3441 133.519 82.4987 133.694 82.6199C133.869 82.7411 134.066 82.8264 134.274 82.8709C134.482 82.9155 134.697 82.9183 134.906 82.8793L165.467 77.361C165.677 77.3232 165.877 77.2444 166.057 77.1291C166.236 77.0139 166.391 76.8643 166.513 76.6891C166.634 76.5138 166.72 76.3163 166.766 76.1078C166.811 75.8994 166.815 75.684 166.777 75.4741L163.886 59.51C163.81 59.0874 163.569 58.7123 163.217 58.4667C162.864 58.2211 162.429 58.1252 162.006 58.1998L151.389 60.1366C151.147 60.1789 150.899 60.1649 150.663 60.0958C150.427 60.0266 150.21 59.9042 150.029 59.7379Z" fill="#136CFB"/>
<path opacity="0.3" d="M150.029 59.7379L144.547 54.8959C144.364 54.7334 144.146 54.6148 143.911 54.5494C143.675 54.484 143.427 54.4734 143.187 54.5186L130.206 56.8683C129.996 56.9052 129.796 56.9832 129.617 57.0978C129.437 57.2124 129.282 57.3613 129.16 57.5359C129.039 57.7106 128.953 57.9076 128.907 58.1156C128.862 58.3237 128.858 58.5386 128.896 58.7481L133.026 81.5763C133.063 81.7858 133.141 81.9859 133.255 82.165C133.37 82.3441 133.519 82.4987 133.694 82.6199C133.869 82.7411 134.066 82.8264 134.274 82.8709C134.482 82.9155 134.697 82.9183 134.906 82.8793L165.467 77.361C165.677 77.3232 165.877 77.2444 166.057 77.1291C166.236 77.0139 166.391 76.8643 166.513 76.6891C166.634 76.5138 166.72 76.3163 166.766 76.1078C166.811 75.8994 166.815 75.684 166.777 75.4741L163.886 59.51C163.81 59.0874 163.569 58.7123 163.217 58.4667C162.864 58.2211 162.429 58.1252 162.006 58.1998L151.389 60.1366C151.147 60.1789 150.899 60.1649 150.663 60.0958C150.427 60.0266 150.21 59.9042 150.029 59.7379Z" fill="white"/>
<path d="M149.325 60.9982L143.842 56.1634C143.66 56.0001 143.442 55.8805 143.206 55.8139C142.971 55.7472 142.723 55.7353 142.482 55.7789L129.501 58.1287C129.079 58.205 128.704 58.4457 128.458 58.798C128.213 59.1503 128.117 59.5856 128.191 60.0085L132.321 82.8366C132.397 83.2592 132.638 83.6344 132.99 83.8799C133.343 84.1255 133.778 84.2214 134.201 84.1468L164.755 78.6498C164.964 78.6129 165.165 78.5349 165.344 78.4203C165.524 78.3057 165.679 78.1569 165.8 77.9822C165.922 77.8075 166.008 77.6105 166.054 77.4025C166.099 77.1945 166.103 76.9795 166.065 76.77L163.174 60.7988C163.096 60.3775 162.855 60.0042 162.503 59.7601C162.15 59.516 161.716 59.421 161.294 59.4958L150.713 61.4112C150.466 61.454 150.211 61.439 149.971 61.3674C149.73 61.2957 149.509 61.1694 149.325 60.9982Z" fill="#136CFB"/>
<path opacity="0.6" d="M149.325 60.9982L143.842 56.1634C143.66 56.0001 143.442 55.8805 143.206 55.8139C142.971 55.7472 142.723 55.7353 142.482 55.7789L129.501 58.1287C129.079 58.205 128.704 58.4457 128.458 58.798C128.213 59.1503 128.117 59.5856 128.191 60.0085L132.321 82.8366C132.397 83.2592 132.638 83.6344 132.99 83.8799C133.343 84.1255 133.778 84.2214 134.201 84.1468L164.755 78.6498C164.964 78.6129 165.165 78.5349 165.344 78.4203C165.524 78.3057 165.679 78.1569 165.8 77.9822C165.922 77.8075 166.008 77.6105 166.054 77.4025C166.099 77.1945 166.103 76.9795 166.065 76.77L163.174 60.7988C163.096 60.3775 162.855 60.0042 162.503 59.7601C162.15 59.516 161.716 59.421 161.294 59.4958L150.713 61.4112C150.466 61.454 150.211 61.439 149.971 61.3674C149.73 61.2957 149.509 61.1694 149.325 60.9982Z" fill="white"/>
<path d="M162.241 178.194L160.369 172.141C160.305 171.939 160.197 171.754 160.053 171.599C159.909 171.444 159.732 171.322 159.535 171.244L148.855 167.129C148.506 167 148.121 167.013 147.782 167.165C147.443 167.317 147.176 167.595 147.039 167.94L139.833 186.696C139.704 187.043 139.716 187.428 139.867 187.767C140.017 188.106 140.294 188.373 140.638 188.511L165.723 198.188C166.071 198.317 166.455 198.305 166.794 198.154C167.133 198.004 167.401 197.728 167.539 197.383L172.587 184.26C172.716 183.913 172.704 183.528 172.554 183.189C172.403 182.85 172.127 182.583 171.783 182.445L163.089 179.091C162.889 179.015 162.709 178.894 162.563 178.739C162.416 178.584 162.306 178.397 162.241 178.194Z" fill="#136CFB"/>
<path opacity="0.6" d="M162.241 178.194L160.369 172.141C160.305 171.939 160.197 171.754 160.053 171.599C159.909 171.444 159.732 171.322 159.535 171.244L148.855 167.129C148.506 167 148.121 167.013 147.782 167.165C147.443 167.317 147.176 167.595 147.039 167.94L139.833 186.696C139.704 187.043 139.716 187.428 139.867 187.767C140.017 188.106 140.294 188.373 140.638 188.511L165.723 198.188C166.071 198.317 166.455 198.305 166.794 198.154C167.133 198.004 167.401 197.728 167.539 197.383L172.587 184.26C172.716 183.913 172.704 183.528 172.554 183.189C172.403 182.85 172.127 182.583 171.783 182.445L163.089 179.091C162.889 179.015 162.709 178.894 162.563 178.739C162.416 178.584 162.306 178.397 162.241 178.194Z" fill="black"/>
<path d="M175.517 175.629L155.317 162.903L143.191 182.151L163.391 194.877L175.517 175.629Z" fill="white"/>
<path opacity="0.3" d="M175.511 175.63L160.257 166.02L148.131 185.269L163.385 194.879L175.511 175.63Z" fill="#136CFB"/>
<path d="M187.217 174.822L169.223 159.131L150.995 180.033L168.989 195.725L187.217 174.822Z" fill="white"/>
<path d="M161.152 178.813L159.28 172.761C159.215 172.558 159.107 172.372 158.961 172.217C158.816 172.062 158.637 171.941 158.439 171.864L147.759 167.748C147.411 167.619 147.026 167.631 146.687 167.782C146.348 167.932 146.081 168.209 145.943 168.553L138.701 187.315C138.573 187.664 138.586 188.049 138.738 188.388C138.889 188.727 139.168 188.994 139.513 189.131L164.598 198.807C164.946 198.936 165.331 198.924 165.67 198.774C166.009 198.624 166.276 198.347 166.414 198.003L171.477 184.88C171.606 184.532 171.594 184.148 171.443 183.809C171.293 183.47 171.016 183.202 170.672 183.064L161.971 179.71C161.777 179.631 161.603 179.509 161.461 179.354C161.32 179.198 161.214 179.014 161.152 178.813Z" fill="#136CFB"/>
<path opacity="0.4" d="M161.152 178.813L159.28 172.761C159.215 172.558 159.107 172.372 158.961 172.217C158.816 172.062 158.637 171.941 158.439 171.864L147.759 167.748C147.411 167.619 147.026 167.631 146.687 167.782C146.348 167.932 146.081 168.209 145.943 168.553L138.701 187.315C138.573 187.664 138.586 188.049 138.738 188.388C138.889 188.727 139.168 188.994 139.513 189.131L164.598 198.807C164.946 198.936 165.331 198.924 165.67 198.774C166.009 198.624 166.276 198.347 166.414 198.003L171.477 184.88C171.606 184.532 171.594 184.148 171.443 183.809C171.293 183.47 171.016 183.202 170.672 183.064L161.971 179.71C161.777 179.631 161.603 179.509 161.461 179.354C161.32 179.198 161.214 179.014 161.152 178.813Z" fill="black"/>
<path d="M249.168 88.9247C247.545 85.3214 244.925 82.2577 241.617 80.0956C238.309 77.9334 234.452 76.7629 230.5 76.7225C226.548 76.6821 222.668 77.7733 219.316 79.8674C215.965 81.9614 213.283 84.9708 211.586 88.5402C211.246 88.5079 210.903 88.4936 210.561 88.4975C208.228 88.4971 205.927 89.0484 203.847 90.1064C201.767 91.1644 199.967 92.6991 198.593 94.5853C197.219 96.4715 196.311 98.6558 195.942 100.96C195.573 103.264 195.754 105.623 196.47 107.844H259.721C260.343 105.91 260.561 103.869 260.361 101.847C260.161 99.8257 259.547 97.867 258.557 96.093C257.567 94.319 256.223 92.7677 254.607 91.5357C252.992 90.3037 251.141 89.4174 249.168 88.9318V88.9247Z" fill="white"/>
<path d="M207.278 192.121C208.91 188.495 211.546 185.411 214.875 183.235C218.203 181.058 222.085 179.88 226.061 179.839C230.038 179.798 233.943 180.895 237.316 183.002C240.689 185.11 243.388 188.138 245.095 191.73C245.429 191.73 245.807 191.687 246.127 191.687C248.474 191.691 250.787 192.248 252.878 193.313C254.969 194.379 256.779 195.923 258.161 197.82C259.543 199.717 260.458 201.913 260.832 204.23C261.205 206.547 261.027 208.919 260.311 211.154H196.654C196.031 209.208 195.814 207.154 196.017 205.12C196.22 203.087 196.838 201.116 197.835 199.332C198.831 197.547 200.183 195.986 201.808 194.746C203.432 193.505 205.294 192.612 207.278 192.121Z" fill="white"/>
<path d="M142.61 80.2448C142.311 80.2443 142.013 80.2729 141.72 80.3302C141.224 78.7346 140.25 77.3296 138.93 76.3048C137.61 75.28 136.008 74.6848 134.339 74.5994C132.67 74.514 131.015 74.9426 129.597 75.8273C128.18 76.7121 127.068 78.0103 126.411 79.547C126.143 79.5044 125.871 79.483 125.599 79.4829C124.162 79.4829 122.784 80.0538 121.768 81.07C120.752 82.0862 120.181 83.4644 120.181 84.9016C120.18 85.465 120.269 86.025 120.444 86.5606H147.246C147.392 86.0879 147.466 85.5958 147.466 85.1009C147.466 83.813 146.955 82.5778 146.044 81.6671C145.133 80.7564 143.898 80.2448 142.61 80.2448Z" fill="white"/>
<path d="M136.985 207.907C136.597 207.906 136.211 207.944 135.831 208.021C135.19 205.954 133.93 204.134 132.221 202.806C130.512 201.478 128.436 200.706 126.275 200.595C124.114 200.484 121.97 201.039 120.134 202.185C118.298 203.331 116.858 205.013 116.008 207.003C115.659 206.948 115.307 206.922 114.954 206.925C113.849 206.923 112.759 207.182 111.773 207.681C110.787 208.18 109.933 208.906 109.281 209.797C108.628 210.689 108.196 211.723 108.018 212.814C107.841 213.905 107.924 215.022 108.261 216.075H142.973C143.265 215.134 143.332 214.138 143.169 213.167C143.006 212.196 142.618 211.277 142.036 210.483C141.454 209.689 140.694 209.042 139.816 208.595C138.939 208.148 137.969 207.912 136.985 207.907Z" fill="white"/>
<path d="M68.8781 117.492C67.746 119.535 66.5284 121.764 65.3891 123.9C64.2498 126.036 63.1177 128.215 62.0496 130.359C60.9815 132.502 59.9989 134.631 59.2014 136.767C58.7813 137.807 58.4395 138.839 58.1547 139.772C57.9303 140.493 57.766 141.231 57.6634 141.979L57.5708 141.175C57.7307 142.542 58.0633 143.885 58.5606 145.169C59.1387 146.679 59.8166 148.149 60.5899 149.57C61.3732 151.065 62.2703 152.546 63.2102 154.034C63.6802 154.746 64.1573 155.522 64.6343 156.256L66.1011 158.392L66.2364 158.591C66.6208 159.187 66.7907 159.896 66.7182 160.601C66.6457 161.306 66.335 161.966 65.8375 162.471C65.3399 162.976 64.6851 163.296 63.981 163.379C63.2769 163.462 62.5655 163.303 61.9642 162.927C61.0527 162.322 60.2837 161.767 59.4862 161.147C58.6888 160.528 57.934 159.894 57.1863 159.232C55.6687 157.884 54.2415 156.438 52.9141 154.903C51.5278 153.296 50.2886 151.569 49.2114 149.74C48.0028 147.712 47.1006 145.517 46.5341 143.225C46.4907 143.053 46.4644 142.876 46.4558 142.698V142.421C46.3775 140.639 46.521 138.855 46.883 137.109C47.1727 135.664 47.5459 134.238 48.0009 132.836C48.8276 130.233 49.7975 127.678 50.9061 125.182C51.967 122.725 53.1277 120.369 54.331 118.062C55.5344 115.754 56.7947 113.49 58.233 111.169C59.1 109.817 60.4558 108.853 62.017 108.478C63.5783 108.103 65.2242 108.345 66.6106 109.155C67.9971 109.965 69.0168 111.28 69.4566 112.824C69.8965 114.369 69.7224 116.023 68.9707 117.442L68.8781 117.492Z" fill="#263238"/>
<path d="M67.0269 159.061L70.2311 162.422L62.8472 166.231C62.0606 165.139 61.4325 163.94 60.9816 162.671C60.6913 161.764 60.7707 160.778 61.2027 159.929C61.6346 159.08 62.3842 158.435 63.2886 158.135C63.9355 157.92 64.6301 157.893 65.2918 158.057C65.9535 158.221 66.5552 158.569 67.0269 159.061Z" fill="#FFB573"/>
<path d="M70.11 169.621L67.3046 170.504C66.7658 170.672 66.1849 170.645 65.6639 170.428C65.143 170.21 64.7154 169.816 64.4564 169.315L62.8472 166.231L70.2311 162.415L71.6552 166.545C71.7605 166.848 71.8039 167.169 71.7829 167.489C71.7619 167.81 71.6768 168.123 71.5327 168.409C71.3887 168.696 71.1885 168.951 70.9442 169.159C70.6998 169.367 70.4161 169.524 70.11 169.621Z" fill="#FFB573"/>
<path d="M132.913 131.476L138.609 127.56L141.258 135.45C141.258 135.45 135.654 138.376 133.625 135.649L132.913 131.476Z" fill="#FFB573"/>
<path d="M145.715 128.813L146.156 131.733C146.241 132.297 146.123 132.873 145.824 133.358C145.524 133.843 145.061 134.206 144.519 134.382L141.222 135.45L138.63 127.56L142.902 126.813C143.219 126.754 143.544 126.759 143.859 126.828C144.173 126.898 144.471 127.03 144.733 127.216C144.995 127.403 145.218 127.641 145.386 127.915C145.555 128.189 145.667 128.495 145.715 128.813Z" fill="#FFB573"/>
<path d="M61.1665 288.091H66.2719L66.8985 287.507L67.8384 288.091C70.9571 288.091 75.1653 287.977 77.1662 287.293C77.2256 287.06 77.2191 286.814 77.1475 286.584C77.0758 286.354 76.9418 286.149 76.7603 285.99C76.7603 285.99 68.5077 283.434 67.76 281.718H61.5083" fill="#263238"/>
<path d="M63.8225 215.875C63.6231 189.451 63.1745 168.595 65.6809 158.463L89.036 154.689C89.036 154.689 84.7637 199.42 79.5587 217.926C74.3536 236.432 68.7641 282.131 68.7641 282.131H60.7963C60.7963 282.131 57.9481 237.842 63.8225 215.875Z" fill="#136CFB"/>
<path opacity="0.2" d="M80.7336 176.841L85.0771 188.098C83.6957 197.967 82.0367 208.036 80.2494 215.313C78.3483 202.14 79.7225 180.551 80.7336 176.841Z" fill="black"/>
<path d="M123.663 280.515C123.663 280.515 111.914 281.412 110.625 279.995L104.459 281.889L106.189 288.091L109.984 286.93L110.412 286.175L111.53 286.453C114.606 285.513 122.744 282.893 124.496 281.64C124.474 281.394 124.384 281.159 124.237 280.96C124.09 280.762 123.892 280.608 123.663 280.515Z" fill="#263238"/>
<path d="M88.566 217.499C80.7063 198.229 75.5011 177.981 73.0933 157.309L98.6058 153.13C98.6058 153.13 102.387 199.263 104.032 218.225C105.755 237.941 112.377 279.924 112.377 279.924L104.16 282.444C104.16 282.444 89.392 241.993 88.566 217.499Z" fill="#136CFB"/>
<path d="M69.6401 88.9032C70.7865 93.8875 71.2351 100.88 69.4692 104.718C72.1465 106.854 76.4188 109.46 81.8232 108.99C87.2276 108.52 85.9673 104.924 84.3795 103.151C80.3564 101.478 80.0645 99.5127 80.8833 97.7041L69.6401 88.9032Z" fill="#FFB573"/>
<path d="M64.5132 106.306C64.5132 106.306 67.5892 103.173 68.8994 102.389C70.2095 101.606 80.7122 101.072 83.183 101.343C85.6538 101.613 88.8794 105.031 88.8794 105.031L64.5132 106.306Z" fill="#136CFB"/>
<path d="M85.0059 85.3359C85.0771 85.8344 85.4047 86.1975 85.718 86.1477C86.0313 86.0978 86.252 85.6493 86.1737 85.1508C86.0954 84.6524 85.7749 84.2964 85.4616 84.3462C85.1483 84.396 84.9347 84.8446 85.0059 85.3359Z" fill="#263238"/>
<path d="M85.0771 86.0409C85.8979 87.4647 86.9115 88.7682 88.0891 89.9144C87.7862 90.209 87.4233 90.4347 87.0251 90.576C86.6269 90.7173 86.2029 90.771 85.7821 90.7333L85.0771 86.0409Z" fill="#ED893E"/>
<path d="M85.5758 82.0962C85.546 82.1355 85.5071 82.1671 85.4624 82.1881C85.4178 82.2092 85.3687 82.2192 85.3194 82.2172C84.9512 82.1892 84.5817 82.2504 84.2421 82.3954C83.9025 82.5404 83.6029 82.765 83.3684 83.0503C83.318 83.1008 83.2511 83.1315 83.18 83.137C83.1088 83.1425 83.038 83.1223 82.9804 83.0802C82.9228 83.0381 82.8822 82.9767 82.8659 82.9073C82.8495 82.8378 82.8586 82.7648 82.8914 82.7014C83.1851 82.3389 83.5615 82.0521 83.9889 81.8651C84.4163 81.678 84.8823 81.5961 85.3479 81.6262C85.3863 81.628 85.4239 81.6374 85.4586 81.6538C85.4933 81.6702 85.5245 81.6932 85.5503 81.7217C85.5761 81.7501 85.596 81.7834 85.6089 81.8195C85.6219 81.8557 85.6275 81.894 85.6256 81.9324C85.6232 81.9903 85.606 82.0467 85.5758 82.0962Z" fill="#263238"/>
<path d="M68.0306 86.5464C69.3122 92.5917 69.7537 96.1946 73.3068 98.8434C78.64 102.824 85.7605 98.8434 86.3088 92.5133C86.8001 86.817 84.6212 77.8951 78.284 76.414C76.8829 76.0943 75.4238 76.1331 74.0417 76.5268C72.6597 76.9206 71.3992 77.6566 70.377 78.6667C69.3548 79.6768 68.6039 80.9285 68.1938 82.3058C67.7836 83.6831 67.7275 85.1416 68.0306 86.5464Z" fill="#FFB573"/>
<path d="M80.9971 88.9033C84.6642 85.9625 82.7844 81.6903 81.8018 80.9426C84.7995 80.5012 87.6334 76.5493 85.6254 73.0603C84.9134 73.2454 84.7069 74.3277 84.7069 74.3277C84.7069 74.3277 80.1641 71.5365 76.1624 71.921C76.4936 72.3908 76.903 72.8003 77.3728 73.1315C74.4687 72.4951 71.4406 72.7431 68.6788 73.8435C69.3908 74.1141 70.8932 74.6837 70.8932 74.6837C70.8932 74.6837 62.9397 77.1261 65.9089 80.3801C59.4151 80.9141 65.9944 94.1582 71.413 96.4439C76.8317 98.7295 83.0122 91.4026 80.9971 88.9033Z" fill="#263238"/>
<path d="M67.5607 80.7148C64.0005 78.4648 61.7148 79.7037 61.7148 79.7037C61.7148 79.7037 65.1754 80.9498 67.5607 80.7148Z" fill="#263238"/>
<path d="M78.5976 88.2268C79.0037 89.4823 79.8751 90.5346 81.0328 91.1676C82.5139 91.9295 83.4466 90.4983 83.1689 88.768C82.9482 87.2157 81.9157 84.9514 80.3564 84.9158C78.797 84.8802 78.028 86.6318 78.5976 88.2268Z" fill="#FFB573"/>
<path d="M64.8125 105.594C73.1221 103.949 85.0275 103.165 93.0238 103.963C95.0044 104.168 96.8611 105.025 98.3029 106.399C99.7447 107.772 100.69 109.585 100.992 111.553C102.85 123.53 101.704 144.785 100.992 166.153C82.87 173.751 63.538 168.816 63.538 168.816C62.8259 164.544 64.0862 150.388 64.9621 142.798C63.3386 135.151 59.9777 126.506 57.749 116.36C57.4904 115.188 57.4688 113.976 57.6856 112.796C57.9024 111.616 58.3532 110.491 59.0115 109.488C59.6697 108.484 60.5221 107.623 61.5184 106.954C62.5146 106.285 63.6347 105.823 64.8125 105.594Z" fill="#263238"/>
<path d="M99.4109 108.513L103.078 114.209C104.317 116.125 105.584 118.012 106.852 119.863C107.493 120.812 108.141 121.717 108.796 122.576C109.437 123.473 110.092 124.342 110.754 125.161C111.416 125.979 112.092 126.77 112.733 127.468C113.267 128.057 113.843 128.607 114.456 129.112L113.744 128.735C114.994 129.376 116.33 129.832 117.71 130.088C119.371 130.42 121.054 130.632 122.745 130.722C124.518 130.85 126.305 130.864 128.185 130.85C129.11 130.85 130.043 130.85 130.969 130.786L133.724 130.672H133.924C134.65 130.638 135.365 130.86 135.945 131.299C136.524 131.738 136.932 132.366 137.097 133.074C137.262 133.782 137.174 134.526 136.848 135.176C136.522 135.825 135.979 136.341 135.312 136.632C133.393 137.482 131.415 138.196 129.395 138.768C127.366 139.345 125.302 139.79 123.215 140.099C122.154 140.256 121.078 140.363 119.968 140.434C118.84 140.513 117.708 140.527 116.578 140.477C114.07 140.405 111.59 139.924 109.237 139.053C109.093 138.995 108.953 138.928 108.817 138.853L108.518 138.675C107.166 137.847 105.896 136.893 104.723 135.827C103.655 134.887 102.729 133.926 101.825 132.979C100.087 131.116 98.4472 129.165 96.9116 127.133C95.3879 125.168 93.978 123.146 92.6038 121.109C91.2295 119.073 89.9621 117.036 88.7089 114.815C87.9712 113.409 87.7985 111.775 88.2262 110.246C88.6539 108.717 89.6497 107.41 91.0097 106.591C92.3697 105.772 93.9911 105.504 95.5423 105.842C97.0934 106.179 98.457 107.096 99.3539 108.406L99.4109 108.513Z" fill="#263238"/>
<path d="M252.095 279.489C252.008 279.49 251.924 279.458 251.86 279.4C251.795 279.342 251.755 279.262 251.746 279.176C249.966 265.647 254.338 253.742 263.138 248.159C263.178 248.133 263.222 248.116 263.268 248.108C263.315 248.099 263.363 248.101 263.408 248.111C263.454 248.122 263.498 248.142 263.536 248.17C263.574 248.197 263.606 248.233 263.63 248.273C263.655 248.313 263.671 248.357 263.679 248.403C263.687 248.45 263.685 248.497 263.675 248.542C263.664 248.588 263.645 248.631 263.617 248.669C263.59 248.707 263.556 248.74 263.516 248.764C254.971 254.197 250.699 265.811 252.443 279.083C252.456 279.177 252.43 279.271 252.373 279.346C252.315 279.421 252.231 279.47 252.137 279.482L252.095 279.489Z" fill="#263238"/>
<path d="M268.123 251.214V245.71L263.352 242.954L258.574 245.71V251.214L263.352 253.97L268.123 251.214Z" fill="white"/>
<path d="M263.352 254.326C263.29 254.327 263.229 254.312 263.174 254.283L258.396 251.527C258.342 251.495 258.298 251.449 258.267 251.394C258.235 251.339 258.219 251.277 258.218 251.214V245.71C258.219 245.647 258.235 245.585 258.267 245.53C258.298 245.475 258.342 245.429 258.396 245.397L263.174 242.641C263.228 242.61 263.29 242.593 263.352 242.593C263.415 242.593 263.476 242.61 263.53 242.641L268.301 245.397C268.355 245.429 268.399 245.475 268.431 245.53C268.462 245.585 268.478 245.647 268.479 245.71V251.214C268.478 251.277 268.462 251.339 268.431 251.394C268.399 251.449 268.355 251.495 268.301 251.527L263.53 254.283C263.475 254.311 263.414 254.325 263.352 254.326ZM258.93 251.015L263.352 253.564L267.767 251.015V245.909L263.352 243.36L258.93 245.909V251.015Z" fill="#136CFB"/>
<path d="M272.53 242.591V240.348L270.586 239.223L268.643 240.348V242.591L270.586 243.709L272.53 242.591Z" fill="white"/>
<path d="M270.587 244.065C270.525 244.065 270.464 244.051 270.409 244.022L268.465 242.897C268.411 242.866 268.366 242.822 268.335 242.768C268.304 242.714 268.287 242.653 268.287 242.591V240.348C268.287 240.285 268.304 240.223 268.335 240.168C268.366 240.113 268.411 240.067 268.465 240.035L270.409 238.917C270.463 238.886 270.524 238.869 270.587 238.869C270.649 238.869 270.71 238.886 270.765 238.917L272.708 240.035C272.762 240.067 272.807 240.113 272.838 240.168C272.869 240.223 272.886 240.285 272.886 240.348V242.591C272.886 242.653 272.869 242.714 272.838 242.768C272.807 242.822 272.762 242.866 272.708 242.897L270.765 244.022C270.71 244.051 270.648 244.065 270.587 244.065ZM268.999 242.42L270.587 243.339L272.174 242.42V240.59L270.587 239.672L268.999 240.59V242.42Z" fill="#136CFB"/>
<path d="M226.377 251.363V249.128L224.433 248.003L222.489 249.128V251.363L224.433 252.488L226.377 251.363Z" fill="white"/>
<path d="M224.432 252.844C224.369 252.846 224.307 252.828 224.254 252.795L222.31 251.677C222.257 251.645 222.213 251.6 222.182 251.546C222.151 251.493 222.134 251.432 222.132 251.371V249.128C222.133 249.065 222.149 249.003 222.181 248.948C222.212 248.893 222.256 248.847 222.31 248.814L224.254 247.696C224.308 247.665 224.37 247.649 224.432 247.649C224.495 247.649 224.556 247.665 224.61 247.696L226.554 248.814C226.608 248.847 226.653 248.893 226.684 248.948C226.715 249.003 226.732 249.065 226.732 249.128V251.371C226.73 251.432 226.713 251.493 226.682 251.546C226.651 251.6 226.607 251.645 226.554 251.677L224.61 252.795C224.557 252.828 224.495 252.846 224.432 252.844ZM222.844 251.164L224.432 252.075L226.02 251.164V249.327L224.432 248.416L222.844 249.327V251.164Z" fill="#136CFB"/>
<path d="M245.665 234.659V232.416L243.728 231.298L241.784 232.416V234.659L243.728 235.784L245.665 234.659Z" fill="white"/>
<path d="M243.728 236.133C243.666 236.134 243.605 236.119 243.55 236.09L241.606 234.965C241.551 234.935 241.506 234.891 241.475 234.837C241.443 234.783 241.427 234.721 241.428 234.659V232.452C241.427 232.389 241.443 232.328 241.475 232.274C241.506 232.22 241.551 232.175 241.606 232.145L243.55 231.02C243.604 230.989 243.666 230.973 243.728 230.973C243.791 230.973 243.852 230.989 243.906 231.02L245.843 232.145C245.898 232.175 245.943 232.22 245.975 232.274C246.006 232.328 246.022 232.389 246.021 232.452V234.695C246.022 234.757 246.006 234.818 245.975 234.872C245.943 234.926 245.898 234.971 245.843 235.001L243.906 236.126C243.848 236.141 243.787 236.144 243.728 236.133ZM242.14 234.452L243.728 235.371L245.309 234.452V232.622L243.728 231.74L242.14 232.658V234.452Z" fill="#136CFB"/>
<path d="M257.471 232.701V229.553L254.751 227.98L252.023 229.553V232.701L254.751 234.274L257.471 232.701Z" fill="white"/>
<path d="M254.751 234.63C254.688 234.633 254.625 234.615 254.573 234.581L251.846 233.007C251.791 232.977 251.745 232.933 251.714 232.879C251.682 232.825 251.666 232.763 251.668 232.701V229.554C251.667 229.49 251.683 229.428 251.714 229.373C251.745 229.318 251.791 229.272 251.846 229.24L254.573 227.667C254.627 227.635 254.688 227.619 254.751 227.619C254.813 227.619 254.875 227.635 254.929 227.667L257.656 229.24C257.71 229.273 257.754 229.319 257.786 229.374C257.817 229.429 257.833 229.49 257.834 229.554V232.701C257.833 232.763 257.817 232.824 257.786 232.878C257.754 232.931 257.71 232.976 257.656 233.007L254.929 234.588C254.875 234.618 254.813 234.633 254.751 234.63ZM252.38 232.494L254.751 233.861L257.122 232.494V229.76L254.751 228.386L252.38 229.76V232.494Z" fill="#136CFB"/>
<path d="M248.499 276.285C248.404 276.285 248.314 276.248 248.247 276.181C248.18 276.114 248.143 276.023 248.143 275.929C248.143 262.543 242.446 251.57 233.19 247.305C233.147 247.285 233.109 247.257 233.077 247.222C233.045 247.187 233.021 247.146 233.005 247.102C232.989 247.058 232.982 247.01 232.984 246.963C232.987 246.916 232.999 246.87 233.019 246.828C233.038 246.785 233.066 246.747 233.1 246.715C233.134 246.684 233.174 246.659 233.218 246.643C233.262 246.627 233.308 246.62 233.355 246.623C233.401 246.625 233.447 246.637 233.489 246.657C242.952 251.043 248.826 262.258 248.826 275.929C248.827 276.019 248.793 276.105 248.732 276.171C248.672 276.237 248.588 276.278 248.499 276.285Z" fill="#263238"/>
<path d="M238.139 249.733V244.222L233.368 241.466L228.597 244.222V249.733L233.368 252.489L238.139 249.733Z" fill="white"/>
<path d="M233.368 252.845C233.305 252.846 233.243 252.828 233.19 252.795L228.419 250.039C228.364 250.009 228.319 249.965 228.288 249.911C228.256 249.857 228.24 249.795 228.241 249.733V244.222C228.24 244.159 228.256 244.098 228.288 244.044C228.319 243.99 228.364 243.945 228.419 243.915L233.19 241.16C233.244 241.129 233.305 241.112 233.368 241.112C233.43 241.112 233.492 241.129 233.546 241.16L238.317 243.915C238.372 243.945 238.417 243.99 238.448 244.044C238.48 244.098 238.496 244.159 238.495 244.222V249.733C238.496 249.795 238.48 249.857 238.448 249.911C238.417 249.965 238.372 250.009 238.317 250.039L233.546 252.795C233.493 252.828 233.431 252.846 233.368 252.845ZM228.953 249.526L233.368 252.076L237.783 249.526V244.428L233.368 241.879L228.953 244.428V249.526Z" fill="#136CFB"/>
<path d="M251.283 273.508C251.206 273.508 251.131 273.483 251.069 273.437C251.007 273.391 250.962 273.326 250.941 273.252L250.898 273.109C248.157 263.468 245.316 253.5 249.908 239.978C249.941 239.889 250.006 239.816 250.091 239.775C250.177 239.734 250.274 239.727 250.364 239.757C250.452 239.788 250.525 239.852 250.566 239.936C250.608 240.02 250.614 240.117 250.585 240.206C246.063 253.521 248.869 263.376 251.589 272.91L251.624 273.059C251.638 273.104 251.642 273.151 251.637 273.198C251.631 273.244 251.617 273.289 251.595 273.33C251.572 273.371 251.542 273.408 251.506 273.437C251.469 273.466 251.427 273.488 251.382 273.501L251.283 273.508Z" fill="#263238"/>
<path d="M255.021 242.847V237.336L250.251 234.581L245.48 237.336V242.847L250.251 245.603L255.021 242.847Z" fill="white"/>
<path d="M250.251 245.98C250.188 245.983 250.126 245.965 250.073 245.931L245.302 243.175C245.247 243.145 245.202 243.101 245.17 243.047C245.139 242.993 245.123 242.931 245.124 242.869V237.358C245.123 237.295 245.139 237.234 245.17 237.18C245.202 237.126 245.247 237.081 245.302 237.051L250.073 234.296C250.127 234.264 250.188 234.248 250.251 234.248C250.313 234.248 250.375 234.264 250.429 234.296L255.2 237.051C255.253 237.082 255.298 237.127 255.329 237.181C255.361 237.234 255.377 237.295 255.378 237.358V242.869C255.377 242.931 255.361 242.992 255.329 243.046C255.298 243.099 255.253 243.144 255.2 243.175L250.429 245.931C250.375 245.964 250.314 245.981 250.251 245.98ZM245.836 242.662L250.251 245.211L254.665 242.662V237.564L250.251 235.015L245.836 237.564V242.662Z" fill="#136CFB"/>
<path d="M264.442 270.19H235.668C234.871 270.186 234.108 269.867 233.545 269.303C232.982 268.739 232.665 267.975 232.663 267.178C232.665 266.382 232.982 265.619 233.545 265.055C234.108 264.492 234.872 264.175 235.668 264.173H264.442C265.238 264.175 266.001 264.492 266.564 265.055C267.127 265.619 267.445 266.382 267.447 267.178C267.445 267.975 267.128 268.739 266.565 269.303C266.002 269.867 265.239 270.186 264.442 270.19Z" fill="white"/>
<path d="M264.441 270.56H235.668C234.802 270.52 233.985 270.149 233.387 269.522C232.789 268.895 232.455 268.062 232.455 267.196C232.455 266.329 232.789 265.496 233.387 264.87C233.985 264.243 234.802 263.871 235.668 263.831H264.441C265.307 263.871 266.124 264.243 266.722 264.87C267.321 265.496 267.655 266.329 267.655 267.196C267.655 268.062 267.321 268.895 266.722 269.522C266.124 270.149 265.307 270.52 264.441 270.56ZM235.682 264.543C235.002 264.579 234.362 264.873 233.893 265.367C233.425 265.861 233.164 266.515 233.164 267.196C233.164 267.876 233.425 268.531 233.893 269.025C234.362 269.518 235.002 269.813 235.682 269.848H264.441C265.121 269.813 265.761 269.518 266.23 269.025C266.699 268.531 266.96 267.876 266.96 267.196C266.96 266.515 266.699 265.861 266.23 265.367C265.761 264.873 265.121 264.579 264.441 264.543H235.682Z" fill="#136CFB"/>
<path d="M260.063 288.091H240.026C239.527 288.092 239.045 287.912 238.669 287.585C238.294 287.257 238.049 286.805 237.982 286.311L235.718 270.19H264.37L262.113 286.296C262.048 286.793 261.803 287.25 261.426 287.58C261.049 287.91 260.564 288.092 260.063 288.091Z" fill="#136CFB"/>
</svg>
