<svg width="312" height="220" viewBox="0 0 312 220" fill="none" xmlns="http://www.w3.org/2000/svg">
<rect x="1" width="311" height="179" rx="4" fill="white"/>
<rect x="1.5" y="0.5" width="310" height="178" rx="3.5" stroke="#959595" stroke-opacity="0.15"/>
<path d="M1.36 192.028C1.21 192.04 1.096 192.019 1.018 191.965C0.94 191.911 0.901 191.83 0.901 191.722C0.901 191.524 1.012 191.422 1.234 191.416L1.504 191.398C1.81 191.38 2.038 191.287 2.188 191.119C2.338 190.945 2.413 190.669 2.413 190.291V185.971C2.413 185.857 2.449 185.767 2.521 185.701C2.593 185.629 2.68 185.593 2.782 185.593C2.896 185.593 2.986 185.629 3.052 185.701C3.118 185.767 3.151 185.857 3.151 185.971V190.3C3.151 190.852 3.025 191.269 2.773 191.551C2.521 191.827 2.14 191.98 1.63 192.01L1.36 192.028ZM6.40155 187.492C7.49955 187.492 8.04855 188.068 8.04855 189.22V191.668C8.04855 191.776 8.01555 191.863 7.94955 191.929C7.88955 191.995 7.80555 192.028 7.69755 192.028C7.58955 192.028 7.50255 191.995 7.43655 191.929C7.37055 191.863 7.33755 191.776 7.33755 191.668V191.236C7.22355 191.494 7.04955 191.695 6.81555 191.839C6.58155 191.977 6.31155 192.046 6.00555 192.046C5.72355 192.046 5.46255 191.989 5.22255 191.875C4.98855 191.761 4.80255 191.602 4.66455 191.398C4.52655 191.194 4.45755 190.969 4.45755 190.723C4.45755 190.393 4.54155 190.138 4.70955 189.958C4.87755 189.772 5.15355 189.64 5.53755 189.562C5.92155 189.478 6.45555 189.436 7.13955 189.436H7.33755V189.139C7.33755 188.779 7.26255 188.515 7.11255 188.347C6.96855 188.179 6.73155 188.095 6.40155 188.095C5.99355 188.095 5.57955 188.206 5.15955 188.428C4.99755 188.53 4.88355 188.581 4.81755 188.581C4.74555 188.581 4.68555 188.554 4.63755 188.5C4.58955 188.446 4.56555 188.377 4.56555 188.293C4.56555 188.209 4.58955 188.137 4.63755 188.077C4.69155 188.011 4.77555 187.945 4.88955 187.879C5.09955 187.759 5.33655 187.666 5.60055 187.6C5.87055 187.528 6.13755 187.492 6.40155 187.492ZM6.10455 191.47C6.46455 191.47 6.75855 191.35 6.98655 191.11C7.22055 190.864 7.33755 190.549 7.33755 190.165V189.904H7.17555C6.64755 189.904 6.24555 189.928 5.96955 189.976C5.69355 190.018 5.49555 190.093 5.37555 190.201C5.26155 190.303 5.20455 190.456 5.20455 190.66C5.20455 190.894 5.28855 191.089 5.45655 191.245C5.63055 191.395 5.84655 191.47 6.10455 191.47ZM11.588 187.492C12.638 187.492 13.163 188.071 13.163 189.229V191.668C13.163 191.782 13.13 191.872 13.064 191.938C13.004 191.998 12.917 192.028 12.803 192.028C12.689 192.028 12.599 191.998 12.533 191.938C12.467 191.872 12.434 191.782 12.434 191.668V189.274C12.434 188.866 12.353 188.569 12.191 188.383C12.035 188.197 11.783 188.104 11.435 188.104C11.033 188.104 10.712 188.227 10.472 188.473C10.232 188.719 10.112 189.052 10.112 189.472V191.668C10.112 191.782 10.079 191.872 10.013 191.938C9.95301 191.998 9.86601 192.028 9.75201 192.028C9.63801 192.028 9.54801 191.998 9.48201 191.938C9.41601 191.872 9.38301 191.782 9.38301 191.668V187.87C9.38301 187.762 9.41601 187.675 9.48201 187.609C9.54801 187.543 9.63801 187.51 9.75201 187.51C9.86001 187.51 9.94401 187.543 10.004 187.609C10.07 187.675 10.103 187.759 10.103 187.861V188.32C10.247 188.05 10.448 187.846 10.706 187.708C10.964 187.564 11.258 187.492 11.588 187.492Z" fill="#232323"/>
<path d="M28.152 192.028C28.038 192.028 27.948 191.995 27.882 191.929C27.816 191.857 27.783 191.764 27.783 191.65V185.998C27.783 185.89 27.816 185.803 27.882 185.737C27.954 185.671 28.047 185.638 28.161 185.638H31.437C31.545 185.638 31.629 185.665 31.689 185.719C31.749 185.773 31.779 185.851 31.779 185.953C31.779 186.049 31.749 186.124 31.689 186.178C31.629 186.232 31.545 186.259 31.437 186.259H28.512V188.446H31.257C31.365 188.446 31.449 188.473 31.509 188.527C31.569 188.581 31.599 188.659 31.599 188.761C31.599 188.857 31.569 188.932 31.509 188.986C31.449 189.04 31.365 189.067 31.257 189.067H28.512V191.65C28.512 191.764 28.479 191.857 28.413 191.929C28.353 191.995 28.266 192.028 28.152 192.028ZM35.9899 190.966C36.0559 190.966 36.1129 190.993 36.1609 191.047C36.2089 191.101 36.2329 191.17 36.2329 191.254C36.2329 191.404 36.1279 191.542 35.9179 191.668C35.7019 191.794 35.4739 191.89 35.2339 191.956C34.9939 192.016 34.7599 192.046 34.5319 192.046C33.8539 192.046 33.3169 191.845 32.9209 191.443C32.5309 191.041 32.3359 190.486 32.3359 189.778C32.3359 189.328 32.4229 188.932 32.5969 188.59C32.7709 188.242 33.0139 187.972 33.3259 187.78C33.6439 187.588 34.0039 187.492 34.4059 187.492C34.9759 187.492 35.4289 187.678 35.7649 188.05C36.1009 188.422 36.2689 188.926 36.2689 189.562C36.2689 189.682 36.2449 189.769 36.1969 189.823C36.1489 189.877 36.0709 189.904 35.9629 189.904H33.0649C33.1189 190.936 33.6079 191.452 34.5319 191.452C34.7659 191.452 34.9669 191.422 35.1349 191.362C35.3029 191.296 35.4829 191.209 35.6749 191.101C35.8309 191.011 35.9359 190.966 35.9899 190.966ZM34.4149 188.059C34.0309 188.059 33.7219 188.179 33.4879 188.419C33.2599 188.659 33.1249 188.998 33.0829 189.436H35.6299C35.6179 188.992 35.5069 188.653 35.2969 188.419C35.0869 188.179 34.7929 188.059 34.4149 188.059ZM39.548 187.492C39.932 187.492 40.271 187.585 40.565 187.771C40.859 187.957 41.087 188.221 41.249 188.563C41.411 188.905 41.492 189.301 41.492 189.751C41.492 190.207 41.411 190.609 41.249 190.957C41.087 191.299 40.859 191.566 40.565 191.758C40.271 191.95 39.932 192.046 39.548 192.046C39.206 192.046 38.906 191.971 38.648 191.821C38.396 191.671 38.204 191.458 38.072 191.182V191.668C38.072 191.776 38.039 191.863 37.973 191.929C37.913 191.995 37.826 192.028 37.712 192.028C37.598 192.028 37.508 191.995 37.442 191.929C37.376 191.863 37.343 191.776 37.343 191.668V185.944C37.343 185.842 37.376 185.758 37.442 185.692C37.508 185.626 37.598 185.593 37.712 185.593C37.826 185.593 37.913 185.626 37.973 185.692C38.039 185.752 38.072 185.836 38.072 185.944V188.356C38.204 188.08 38.396 187.867 38.648 187.717C38.906 187.567 39.206 187.492 39.548 187.492ZM39.404 191.443C39.83 191.443 40.16 191.296 40.394 191.002C40.628 190.702 40.745 190.285 40.745 189.751C40.745 189.229 40.628 188.824 40.394 188.536C40.16 188.248 39.83 188.104 39.404 188.104C38.978 188.104 38.648 188.248 38.414 188.536C38.186 188.824 38.072 189.235 38.072 189.769C38.072 190.303 38.186 190.717 38.414 191.011C38.648 191.299 38.978 191.443 39.404 191.443Z" fill="#232323"/>
<path d="M59.417 185.593C59.531 185.593 59.618 185.629 59.678 185.701C59.744 185.767 59.777 185.857 59.777 185.971V191.668C59.777 191.776 59.747 191.863 59.687 191.929C59.627 191.995 59.543 192.028 59.435 192.028C59.327 192.028 59.246 191.995 59.192 191.929C59.138 191.863 59.111 191.776 59.111 191.668V187.069L57.158 190.813C57.074 190.987 56.951 191.074 56.789 191.074C56.633 191.074 56.51 190.987 56.42 190.813L54.458 187.114V191.668C54.458 191.776 54.428 191.863 54.368 191.929C54.314 191.995 54.233 192.028 54.125 192.028C54.017 192.028 53.933 191.995 53.873 191.929C53.813 191.863 53.783 191.776 53.783 191.668V185.971C53.783 185.857 53.816 185.767 53.882 185.701C53.948 185.629 54.038 185.593 54.152 185.593C54.302 185.593 54.422 185.68 54.512 185.854L56.798 190.237L59.057 185.854C59.105 185.758 59.156 185.692 59.21 185.656C59.27 185.614 59.339 185.593 59.417 185.593ZM63.0334 187.492C64.1314 187.492 64.6804 188.068 64.6804 189.22V191.668C64.6804 191.776 64.6474 191.863 64.5814 191.929C64.5214 191.995 64.4374 192.028 64.3294 192.028C64.2214 192.028 64.1344 191.995 64.0684 191.929C64.0024 191.863 63.9694 191.776 63.9694 191.668V191.236C63.8554 191.494 63.6814 191.695 63.4474 191.839C63.2134 191.977 62.9434 192.046 62.6374 192.046C62.3554 192.046 62.0944 191.989 61.8544 191.875C61.6204 191.761 61.4344 191.602 61.2964 191.398C61.1584 191.194 61.0894 190.969 61.0894 190.723C61.0894 190.393 61.1734 190.138 61.3414 189.958C61.5094 189.772 61.7854 189.64 62.1694 189.562C62.5534 189.478 63.0874 189.436 63.7714 189.436H63.9694V189.139C63.9694 188.779 63.8944 188.515 63.7444 188.347C63.6004 188.179 63.3634 188.095 63.0334 188.095C62.6254 188.095 62.2114 188.206 61.7914 188.428C61.6294 188.53 61.5154 188.581 61.4494 188.581C61.3774 188.581 61.3174 188.554 61.2694 188.5C61.2214 188.446 61.1974 188.377 61.1974 188.293C61.1974 188.209 61.2214 188.137 61.2694 188.077C61.3234 188.011 61.4074 187.945 61.5214 187.879C61.7314 187.759 61.9684 187.666 62.2324 187.6C62.5024 187.528 62.7694 187.492 63.0334 187.492ZM62.7364 191.47C63.0964 191.47 63.3904 191.35 63.6184 191.11C63.8524 190.864 63.9694 190.549 63.9694 190.165V189.904H63.8074C63.2794 189.904 62.8774 189.928 62.6014 189.976C62.3254 190.018 62.1274 190.093 62.0074 190.201C61.8934 190.303 61.8364 190.456 61.8364 190.66C61.8364 190.894 61.9204 191.089 62.0884 191.245C62.2624 191.395 62.4784 191.47 62.7364 191.47ZM68.1838 187.51C68.4358 187.492 68.5618 187.594 68.5618 187.816C68.5618 187.912 68.5348 187.99 68.4808 188.05C68.4268 188.104 68.3338 188.137 68.2018 188.149L67.9318 188.176C67.5298 188.212 67.2298 188.356 67.0318 188.608C66.8398 188.854 66.7438 189.145 66.7438 189.481V191.668C66.7438 191.788 66.7108 191.878 66.6448 191.938C66.5788 191.998 66.4918 192.028 66.3838 192.028C66.2758 192.028 66.1858 191.998 66.1138 191.938C66.0478 191.872 66.0148 191.782 66.0148 191.668V187.87C66.0148 187.756 66.0508 187.669 66.1228 187.609C66.1948 187.543 66.2818 187.51 66.3838 187.51C66.4798 187.51 66.5608 187.543 66.6268 187.609C66.6928 187.669 66.7258 187.753 66.7258 187.861V188.365C66.8518 188.101 67.0288 187.9 67.2568 187.762C67.4908 187.624 67.7578 187.543 68.0578 187.519L68.1838 187.51Z" fill="#232323"/>
<path d="M85.246 191.56C85.27 191.608 85.282 191.659 85.282 191.713C85.282 191.803 85.246 191.878 85.174 191.938C85.108 191.998 85.027 192.028 84.931 192.028C84.781 192.028 84.676 191.956 84.616 191.812L83.977 190.354H80.584L79.936 191.812C79.876 191.956 79.771 192.028 79.621 192.028C79.525 192.028 79.441 191.998 79.369 191.938C79.297 191.872 79.261 191.794 79.261 191.704C79.261 191.656 79.273 191.608 79.297 191.56L81.871 185.836C81.907 185.752 81.961 185.689 82.033 185.647C82.105 185.605 82.183 185.584 82.267 185.584C82.357 185.584 82.438 185.608 82.51 185.656C82.582 185.698 82.636 185.758 82.672 185.836L85.246 191.56ZM83.707 189.742L82.276 186.511L80.854 189.742H83.707ZM88.4191 187.492C88.8031 187.492 89.1421 187.588 89.4361 187.78C89.7301 187.972 89.9581 188.242 90.1201 188.59C90.2821 188.932 90.3631 189.331 90.3631 189.787C90.3631 190.243 90.2821 190.642 90.1201 190.984C89.9581 191.32 89.7301 191.581 89.4361 191.767C89.1481 191.953 88.8091 192.046 88.4191 192.046C88.0771 192.046 87.7771 191.971 87.5191 191.821C87.2671 191.671 87.0751 191.458 86.9431 191.182V193.297C86.9431 193.405 86.9101 193.489 86.8441 193.549C86.7841 193.615 86.6971 193.648 86.5831 193.648C86.4691 193.648 86.3791 193.615 86.3131 193.549C86.2471 193.483 86.2141 193.399 86.2141 193.297V187.87C86.2141 187.762 86.2471 187.675 86.3131 187.609C86.3791 187.543 86.4691 187.51 86.5831 187.51C86.6971 187.51 86.7841 187.543 86.8441 187.609C86.9101 187.675 86.9431 187.762 86.9431 187.87V188.356C87.0751 188.08 87.2671 187.867 87.5191 187.717C87.7771 187.567 88.0771 187.492 88.4191 187.492ZM88.2751 191.443C88.7011 191.443 89.0311 191.299 89.2651 191.011C89.4991 190.723 89.6161 190.315 89.6161 189.787C89.6161 189.259 89.4991 188.848 89.2651 188.554C89.0311 188.254 88.7011 188.104 88.2751 188.104C87.8491 188.104 87.5191 188.248 87.2851 188.536C87.0571 188.824 86.9431 189.235 86.9431 189.769C86.9431 190.303 87.0571 190.717 87.2851 191.011C87.5191 191.299 87.8491 191.443 88.2751 191.443ZM93.6213 187.51C93.8733 187.492 93.9993 187.594 93.9993 187.816C93.9993 187.912 93.9723 187.99 93.9183 188.05C93.8643 188.104 93.7713 188.137 93.6393 188.149L93.3693 188.176C92.9673 188.212 92.6673 188.356 92.4693 188.608C92.2773 188.854 92.1813 189.145 92.1813 189.481V191.668C92.1813 191.788 92.1483 191.878 92.0823 191.938C92.0163 191.998 91.9293 192.028 91.8213 192.028C91.7133 192.028 91.6233 191.998 91.5513 191.938C91.4853 191.872 91.4523 191.782 91.4523 191.668V187.87C91.4523 187.756 91.4883 187.669 91.5603 187.609C91.6323 187.543 91.7193 187.51 91.8213 187.51C91.9173 187.51 91.9983 187.543 92.0643 187.609C92.1303 187.669 92.1633 187.753 92.1633 187.861V188.365C92.2893 188.101 92.4663 187.9 92.6943 187.762C92.9283 187.624 93.1953 187.543 93.4953 187.519L93.6213 187.51Z" fill="#232323"/>
<path d="M111.417 185.593C111.531 185.593 111.618 185.629 111.678 185.701C111.744 185.767 111.777 185.857 111.777 185.971V191.668C111.777 191.776 111.747 191.863 111.687 191.929C111.627 191.995 111.543 192.028 111.435 192.028C111.327 192.028 111.246 191.995 111.192 191.929C111.138 191.863 111.111 191.776 111.111 191.668V187.069L109.158 190.813C109.074 190.987 108.951 191.074 108.789 191.074C108.633 191.074 108.51 190.987 108.42 190.813L106.458 187.114V191.668C106.458 191.776 106.428 191.863 106.368 191.929C106.314 191.995 106.233 192.028 106.125 192.028C106.017 192.028 105.933 191.995 105.873 191.929C105.813 191.863 105.783 191.776 105.783 191.668V185.971C105.783 185.857 105.816 185.767 105.882 185.701C105.948 185.629 106.038 185.593 106.152 185.593C106.302 185.593 106.422 185.68 106.512 185.854L108.798 190.237L111.057 185.854C111.105 185.758 111.156 185.692 111.21 185.656C111.27 185.614 111.339 185.593 111.417 185.593ZM115.033 187.492C116.131 187.492 116.68 188.068 116.68 189.22V191.668C116.68 191.776 116.647 191.863 116.581 191.929C116.521 191.995 116.437 192.028 116.329 192.028C116.221 192.028 116.134 191.995 116.068 191.929C116.002 191.863 115.969 191.776 115.969 191.668V191.236C115.855 191.494 115.681 191.695 115.447 191.839C115.213 191.977 114.943 192.046 114.637 192.046C114.355 192.046 114.094 191.989 113.854 191.875C113.62 191.761 113.434 191.602 113.296 191.398C113.158 191.194 113.089 190.969 113.089 190.723C113.089 190.393 113.173 190.138 113.341 189.958C113.509 189.772 113.785 189.64 114.169 189.562C114.553 189.478 115.087 189.436 115.771 189.436H115.969V189.139C115.969 188.779 115.894 188.515 115.744 188.347C115.6 188.179 115.363 188.095 115.033 188.095C114.625 188.095 114.211 188.206 113.791 188.428C113.629 188.53 113.515 188.581 113.449 188.581C113.377 188.581 113.317 188.554 113.269 188.5C113.221 188.446 113.197 188.377 113.197 188.293C113.197 188.209 113.221 188.137 113.269 188.077C113.323 188.011 113.407 187.945 113.521 187.879C113.731 187.759 113.968 187.666 114.232 187.6C114.502 187.528 114.769 187.492 115.033 187.492ZM114.736 191.47C115.096 191.47 115.39 191.35 115.618 191.11C115.852 190.864 115.969 190.549 115.969 190.165V189.904H115.807C115.279 189.904 114.877 189.928 114.601 189.976C114.325 190.018 114.127 190.093 114.007 190.201C113.893 190.303 113.836 190.456 113.836 190.66C113.836 190.894 113.92 191.089 114.088 191.245C114.262 191.395 114.478 191.47 114.736 191.47ZM118.384 192.028C118.276 192.028 118.186 191.998 118.114 191.938C118.048 191.872 118.015 191.782 118.015 191.668V187.87C118.015 187.756 118.048 187.669 118.114 187.609C118.186 187.543 118.276 187.51 118.384 187.51C118.492 187.51 118.579 187.543 118.645 187.609C118.711 187.669 118.744 187.756 118.744 187.87V191.668C118.744 191.788 118.711 191.878 118.645 191.938C118.579 191.998 118.492 192.028 118.384 192.028ZM118.384 186.565C118.24 186.565 118.123 186.523 118.033 186.439C117.943 186.355 117.898 186.244 117.898 186.106C117.898 185.974 117.943 185.866 118.033 185.782C118.123 185.698 118.24 185.656 118.384 185.656C118.528 185.656 118.645 185.698 118.735 185.782C118.825 185.866 118.87 185.974 118.87 186.106C118.87 186.244 118.825 186.355 118.735 186.439C118.645 186.523 118.528 186.565 118.384 186.565Z" fill="#232323"/>
<path d="M131.36 192.028C131.21 192.04 131.096 192.019 131.018 191.965C130.94 191.911 130.901 191.83 130.901 191.722C130.901 191.524 131.012 191.422 131.234 191.416L131.504 191.398C131.81 191.38 132.038 191.287 132.188 191.119C132.338 190.945 132.413 190.669 132.413 190.291V185.971C132.413 185.857 132.449 185.767 132.521 185.701C132.593 185.629 132.68 185.593 132.782 185.593C132.896 185.593 132.986 185.629 133.052 185.701C133.118 185.767 133.151 185.857 133.151 185.971V190.3C133.151 190.852 133.025 191.269 132.773 191.551C132.521 191.827 132.14 191.98 131.63 192.01L131.36 192.028ZM137.941 187.51C138.055 187.51 138.142 187.543 138.202 187.609C138.268 187.675 138.301 187.762 138.301 187.87V191.677C138.301 191.779 138.268 191.863 138.202 191.929C138.142 191.995 138.055 192.028 137.941 192.028C137.833 192.028 137.746 191.998 137.68 191.938C137.62 191.872 137.59 191.788 137.59 191.686V191.236C137.452 191.5 137.257 191.701 137.005 191.839C136.759 191.977 136.48 192.046 136.168 192.046C135.646 192.046 135.253 191.902 134.989 191.614C134.725 191.32 134.593 190.888 134.593 190.318V187.87C134.593 187.762 134.626 187.675 134.692 187.609C134.758 187.543 134.848 187.51 134.962 187.51C135.076 187.51 135.163 187.543 135.223 187.609C135.289 187.675 135.322 187.762 135.322 187.87V190.3C135.322 190.69 135.4 190.978 135.556 191.164C135.712 191.344 135.958 191.434 136.294 191.434C136.678 191.434 136.987 191.311 137.221 191.065C137.455 190.813 137.572 190.483 137.572 190.075V187.87C137.572 187.762 137.605 187.675 137.671 187.609C137.737 187.543 137.827 187.51 137.941 187.51ZM141.86 187.492C142.91 187.492 143.435 188.071 143.435 189.229V191.668C143.435 191.782 143.402 191.872 143.336 191.938C143.276 191.998 143.189 192.028 143.075 192.028C142.961 192.028 142.871 191.998 142.805 191.938C142.739 191.872 142.706 191.782 142.706 191.668V189.274C142.706 188.866 142.625 188.569 142.463 188.383C142.307 188.197 142.055 188.104 141.707 188.104C141.305 188.104 140.984 188.227 140.744 188.473C140.504 188.719 140.384 189.052 140.384 189.472V191.668C140.384 191.782 140.351 191.872 140.285 191.938C140.225 191.998 140.138 192.028 140.024 192.028C139.91 192.028 139.82 191.998 139.754 191.938C139.688 191.872 139.655 191.782 139.655 191.668V187.87C139.655 187.762 139.688 187.675 139.754 187.609C139.82 187.543 139.91 187.51 140.024 187.51C140.132 187.51 140.216 187.543 140.276 187.609C140.342 187.675 140.375 187.759 140.375 187.861V188.32C140.519 188.05 140.72 187.846 140.978 187.708C141.236 187.564 141.53 187.492 141.86 187.492Z" fill="#232323"/>
<path d="M157.36 192.028C157.21 192.04 157.096 192.019 157.018 191.965C156.94 191.911 156.901 191.83 156.901 191.722C156.901 191.524 157.012 191.422 157.234 191.416L157.504 191.398C157.81 191.38 158.038 191.287 158.188 191.119C158.338 190.945 158.413 190.669 158.413 190.291V185.971C158.413 185.857 158.449 185.767 158.521 185.701C158.593 185.629 158.68 185.593 158.782 185.593C158.896 185.593 158.986 185.629 159.052 185.701C159.118 185.767 159.151 185.857 159.151 185.971V190.3C159.151 190.852 159.025 191.269 158.773 191.551C158.521 191.827 158.14 191.98 157.63 192.01L157.36 192.028ZM163.941 187.51C164.055 187.51 164.142 187.543 164.202 187.609C164.268 187.675 164.301 187.762 164.301 187.87V191.677C164.301 191.779 164.268 191.863 164.202 191.929C164.142 191.995 164.055 192.028 163.941 192.028C163.833 192.028 163.746 191.998 163.68 191.938C163.62 191.872 163.59 191.788 163.59 191.686V191.236C163.452 191.5 163.257 191.701 163.005 191.839C162.759 191.977 162.48 192.046 162.168 192.046C161.646 192.046 161.253 191.902 160.989 191.614C160.725 191.32 160.593 190.888 160.593 190.318V187.87C160.593 187.762 160.626 187.675 160.692 187.609C160.758 187.543 160.848 187.51 160.962 187.51C161.076 187.51 161.163 187.543 161.223 187.609C161.289 187.675 161.322 187.762 161.322 187.87V190.3C161.322 190.69 161.4 190.978 161.556 191.164C161.712 191.344 161.958 191.434 162.294 191.434C162.678 191.434 162.987 191.311 163.221 191.065C163.455 190.813 163.572 190.483 163.572 190.075V187.87C163.572 187.762 163.605 187.675 163.671 187.609C163.737 187.543 163.827 187.51 163.941 187.51ZM166.024 192.028C165.916 192.028 165.826 191.998 165.754 191.938C165.688 191.872 165.655 191.782 165.655 191.668V185.953C165.655 185.839 165.688 185.752 165.754 185.692C165.826 185.626 165.916 185.593 166.024 185.593C166.126 185.593 166.21 185.626 166.276 185.692C166.348 185.752 166.384 185.839 166.384 185.953V191.668C166.384 191.782 166.348 191.872 166.276 191.938C166.21 191.998 166.126 192.028 166.024 192.028Z" fill="#232323"/>
<path d="M189.246 191.56C189.27 191.608 189.282 191.659 189.282 191.713C189.282 191.803 189.246 191.878 189.174 191.938C189.108 191.998 189.027 192.028 188.931 192.028C188.781 192.028 188.676 191.956 188.616 191.812L187.977 190.354H184.584L183.936 191.812C183.876 191.956 183.771 192.028 183.621 192.028C183.525 192.028 183.441 191.998 183.369 191.938C183.297 191.872 183.261 191.794 183.261 191.704C183.261 191.656 183.273 191.608 183.297 191.56L185.871 185.836C185.907 185.752 185.961 185.689 186.033 185.647C186.105 185.605 186.183 185.584 186.267 185.584C186.357 185.584 186.438 185.608 186.51 185.656C186.582 185.698 186.636 185.758 186.672 185.836L189.246 191.56ZM187.707 189.742L186.276 186.511L184.854 189.742H187.707ZM193.544 187.51C193.658 187.51 193.745 187.543 193.805 187.609C193.871 187.675 193.904 187.762 193.904 187.87V191.677C193.904 191.779 193.871 191.863 193.805 191.929C193.745 191.995 193.658 192.028 193.544 192.028C193.436 192.028 193.349 191.998 193.283 191.938C193.223 191.872 193.193 191.788 193.193 191.686V191.236C193.055 191.5 192.86 191.701 192.608 191.839C192.362 191.977 192.083 192.046 191.771 192.046C191.249 192.046 190.856 191.902 190.592 191.614C190.328 191.32 190.196 190.888 190.196 190.318V187.87C190.196 187.762 190.229 187.675 190.295 187.609C190.361 187.543 190.451 187.51 190.565 187.51C190.679 187.51 190.766 187.543 190.826 187.609C190.892 187.675 190.925 187.762 190.925 187.87V190.3C190.925 190.69 191.003 190.978 191.159 191.164C191.315 191.344 191.561 191.434 191.897 191.434C192.281 191.434 192.59 191.311 192.824 191.065C193.058 190.813 193.175 190.483 193.175 190.075V187.87C193.175 187.762 193.208 187.675 193.274 187.609C193.34 187.543 193.43 187.51 193.544 187.51ZM198.814 187.51C198.928 187.51 199.018 187.543 199.084 187.609C199.15 187.675 199.183 187.762 199.183 187.87V191.686C199.183 192.34 199.015 192.832 198.679 193.162C198.343 193.498 197.845 193.666 197.185 193.666C196.543 193.666 196.009 193.54 195.583 193.288C195.367 193.168 195.259 193.03 195.259 192.874C195.259 192.79 195.28 192.721 195.322 192.667C195.37 192.613 195.43 192.586 195.502 192.586C195.562 192.586 195.67 192.628 195.826 192.712C196.036 192.82 196.243 192.907 196.447 192.973C196.651 193.039 196.894 193.072 197.176 193.072C197.602 193.072 197.923 192.958 198.139 192.73C198.355 192.508 198.463 192.181 198.463 191.749V190.975C198.337 191.257 198.142 191.473 197.878 191.623C197.62 191.773 197.314 191.848 196.96 191.848C196.576 191.848 196.234 191.758 195.934 191.578C195.64 191.398 195.409 191.143 195.241 190.813C195.079 190.483 194.998 190.102 194.998 189.67C194.998 189.238 195.079 188.857 195.241 188.527C195.409 188.197 195.64 187.942 195.934 187.762C196.234 187.582 196.576 187.492 196.96 187.492C197.308 187.492 197.611 187.567 197.869 187.717C198.127 187.867 198.322 188.08 198.454 188.356V187.87C198.454 187.762 198.484 187.675 198.544 187.609C198.61 187.543 198.7 187.51 198.814 187.51ZM197.104 191.245C197.524 191.245 197.854 191.107 198.094 190.831C198.334 190.549 198.454 190.162 198.454 189.67C198.454 189.184 198.334 188.803 198.094 188.527C197.86 188.245 197.53 188.104 197.104 188.104C196.678 188.104 196.342 188.245 196.096 188.527C195.856 188.803 195.736 189.184 195.736 189.67C195.736 190.162 195.856 190.549 196.096 190.831C196.342 191.107 196.678 191.245 197.104 191.245Z" fill="#232323"/>
<path d="M211.808 192.055C211.358 192.055 210.926 191.989 210.512 191.857C210.104 191.719 209.777 191.536 209.531 191.308C209.441 191.224 209.396 191.119 209.396 190.993C209.396 190.909 209.42 190.837 209.468 190.777C209.516 190.711 209.573 190.678 209.639 190.678C209.717 190.678 209.801 190.711 209.891 190.777C210.449 191.209 211.085 191.425 211.799 191.425C212.315 191.425 212.711 191.326 212.987 191.128C213.263 190.93 213.401 190.648 213.401 190.282C213.401 190.072 213.335 189.904 213.203 189.778C213.071 189.646 212.897 189.541 212.681 189.463C212.465 189.385 212.174 189.304 211.808 189.22C211.316 189.106 210.911 188.986 210.593 188.86C210.281 188.734 210.026 188.554 209.828 188.32C209.636 188.086 209.54 187.78 209.54 187.402C209.54 187.042 209.636 186.724 209.828 186.448C210.026 186.166 210.299 185.95 210.647 185.8C211.001 185.644 211.403 185.566 211.853 185.566C212.273 185.566 212.663 185.632 213.023 185.764C213.389 185.89 213.695 186.073 213.941 186.313C214.037 186.409 214.085 186.514 214.085 186.628C214.085 186.712 214.061 186.787 214.013 186.853C213.965 186.913 213.908 186.943 213.842 186.943C213.776 186.943 213.689 186.91 213.581 186.844C213.287 186.604 213.014 186.436 212.762 186.34C212.51 186.244 212.207 186.196 211.853 186.196C211.355 186.196 210.968 186.301 210.692 186.511C210.416 186.715 210.278 187.003 210.278 187.375C210.278 187.693 210.398 187.933 210.638 188.095C210.884 188.251 211.259 188.389 211.763 188.509C212.309 188.641 212.738 188.764 213.05 188.878C213.362 188.986 213.62 189.151 213.824 189.373C214.034 189.595 214.139 189.892 214.139 190.264C214.139 190.618 214.04 190.93 213.842 191.2C213.65 191.47 213.377 191.68 213.023 191.83C212.669 191.98 212.264 192.055 211.808 192.055ZM218.623 190.966C218.689 190.966 218.746 190.993 218.794 191.047C218.842 191.101 218.866 191.17 218.866 191.254C218.866 191.404 218.761 191.542 218.551 191.668C218.335 191.794 218.107 191.89 217.867 191.956C217.627 192.016 217.393 192.046 217.165 192.046C216.487 192.046 215.95 191.845 215.554 191.443C215.164 191.041 214.969 190.486 214.969 189.778C214.969 189.328 215.056 188.932 215.23 188.59C215.404 188.242 215.647 187.972 215.959 187.78C216.277 187.588 216.637 187.492 217.039 187.492C217.609 187.492 218.062 187.678 218.398 188.05C218.734 188.422 218.902 188.926 218.902 189.562C218.902 189.682 218.878 189.769 218.83 189.823C218.782 189.877 218.704 189.904 218.596 189.904H215.698C215.752 190.936 216.241 191.452 217.165 191.452C217.399 191.452 217.6 191.422 217.768 191.362C217.936 191.296 218.116 191.209 218.308 191.101C218.464 191.011 218.569 190.966 218.623 190.966ZM217.048 188.059C216.664 188.059 216.355 188.179 216.121 188.419C215.893 188.659 215.758 188.998 215.716 189.436H218.263C218.251 188.992 218.14 188.653 217.93 188.419C217.72 188.179 217.426 188.059 217.048 188.059ZM222.181 187.492C222.565 187.492 222.904 187.588 223.198 187.78C223.492 187.972 223.72 188.242 223.882 188.59C224.044 188.932 224.125 189.331 224.125 189.787C224.125 190.243 224.044 190.642 223.882 190.984C223.72 191.32 223.492 191.581 223.198 191.767C222.91 191.953 222.571 192.046 222.181 192.046C221.839 192.046 221.539 191.971 221.281 191.821C221.029 191.671 220.837 191.458 220.705 191.182V193.297C220.705 193.405 220.672 193.489 220.606 193.549C220.546 193.615 220.459 193.648 220.345 193.648C220.231 193.648 220.141 193.615 220.075 193.549C220.009 193.483 219.976 193.399 219.976 193.297V187.87C219.976 187.762 220.009 187.675 220.075 187.609C220.141 187.543 220.231 187.51 220.345 187.51C220.459 187.51 220.546 187.543 220.606 187.609C220.672 187.675 220.705 187.762 220.705 187.87V188.356C220.837 188.08 221.029 187.867 221.281 187.717C221.539 187.567 221.839 187.492 222.181 187.492ZM222.037 191.443C222.463 191.443 222.793 191.299 223.027 191.011C223.261 190.723 223.378 190.315 223.378 189.787C223.378 189.259 223.261 188.848 223.027 188.554C222.793 188.254 222.463 188.104 222.037 188.104C221.611 188.104 221.281 188.248 221.047 188.536C220.819 188.824 220.705 189.235 220.705 189.769C220.705 190.303 220.819 190.717 221.047 191.011C221.281 191.299 221.611 191.443 222.037 191.443Z" fill="#232323"/>
<path d="M238.438 192.055C237.85 192.055 237.337 191.923 236.899 191.659C236.467 191.395 236.134 191.02 235.9 190.534C235.666 190.048 235.549 189.475 235.549 188.815C235.549 188.149 235.663 187.573 235.891 187.087C236.125 186.595 236.458 186.22 236.89 185.962C237.328 185.698 237.844 185.566 238.438 185.566C239.032 185.566 239.545 185.698 239.977 185.962C240.415 186.22 240.748 186.595 240.976 187.087C241.21 187.573 241.327 188.146 241.327 188.806C241.327 189.466 241.21 190.042 240.976 190.534C240.742 191.02 240.406 191.395 239.968 191.659C239.536 191.923 239.026 192.055 238.438 192.055ZM238.438 191.425C239.11 191.425 239.632 191.2 240.004 190.75C240.382 190.294 240.571 189.646 240.571 188.806C240.571 187.966 240.385 187.321 240.013 186.871C239.641 186.421 239.116 186.196 238.438 186.196C237.766 186.196 237.241 186.424 236.863 186.88C236.491 187.33 236.305 187.972 236.305 188.806C236.305 189.64 236.491 190.285 236.863 190.741C237.241 191.197 237.766 191.425 238.438 191.425ZM244.357 192.046C243.949 192.046 243.586 191.953 243.268 191.767C242.956 191.581 242.713 191.317 242.539 190.975C242.371 190.633 242.287 190.237 242.287 189.787C242.287 189.337 242.374 188.938 242.548 188.59C242.728 188.242 242.977 187.972 243.295 187.78C243.613 187.588 243.979 187.492 244.393 187.492C244.621 187.492 244.846 187.525 245.068 187.591C245.296 187.651 245.494 187.741 245.662 187.861C245.77 187.933 245.845 188.005 245.887 188.077C245.935 188.143 245.959 188.218 245.959 188.302C245.959 188.386 245.935 188.455 245.887 188.509C245.845 188.563 245.788 188.59 245.716 188.59C245.674 188.59 245.629 188.578 245.581 188.554C245.533 188.53 245.491 188.506 245.455 188.482C245.425 188.458 245.404 188.443 245.392 188.437C245.236 188.335 245.086 188.254 244.942 188.194C244.804 188.134 244.633 188.104 244.429 188.104C243.991 188.104 243.649 188.254 243.403 188.554C243.163 188.848 243.043 189.259 243.043 189.787C243.043 190.315 243.163 190.723 243.403 191.011C243.649 191.299 243.991 191.443 244.429 191.443C244.633 191.443 244.807 191.413 244.951 191.353C245.101 191.293 245.251 191.212 245.401 191.11C245.467 191.068 245.53 191.032 245.59 191.002C245.65 190.972 245.701 190.957 245.743 190.957C245.809 190.957 245.863 190.984 245.905 191.038C245.953 191.092 245.977 191.161 245.977 191.245C245.977 191.323 245.956 191.395 245.914 191.461C245.872 191.521 245.794 191.59 245.68 191.668C245.512 191.782 245.308 191.875 245.068 191.947C244.834 192.013 244.597 192.046 244.357 192.046ZM248.888 191.452C249.098 191.47 249.203 191.566 249.203 191.74C249.203 191.842 249.164 191.92 249.086 191.974C249.014 192.022 248.903 192.04 248.753 192.028L248.51 192.01C248.03 191.974 247.676 191.83 247.448 191.578C247.22 191.326 247.106 190.945 247.106 190.435V188.176H246.503C246.401 188.176 246.32 188.152 246.26 188.104C246.206 188.05 246.179 187.981 246.179 187.897C246.179 187.807 246.206 187.735 246.26 187.681C246.32 187.627 246.401 187.6 246.503 187.6H247.106V186.583C247.106 186.469 247.139 186.382 247.205 186.322C247.271 186.256 247.361 186.223 247.475 186.223C247.583 186.223 247.67 186.256 247.736 186.322C247.802 186.382 247.835 186.469 247.835 186.583V187.6H248.834C248.93 187.6 249.005 187.627 249.059 187.681C249.119 187.735 249.149 187.807 249.149 187.897C249.149 187.981 249.119 188.05 249.059 188.104C249.005 188.152 248.93 188.176 248.834 188.176H247.835V190.471C247.835 190.801 247.901 191.041 248.033 191.191C248.171 191.335 248.375 191.416 248.645 191.434L248.888 191.452Z" fill="#232323"/>
<path d="M266.526 185.593C266.634 185.593 266.718 185.629 266.778 185.701C266.838 185.767 266.868 185.857 266.868 185.971V191.65C266.868 191.764 266.835 191.857 266.769 191.929C266.709 191.995 266.622 192.028 266.508 192.028C266.394 192.028 266.295 191.977 266.211 191.875L262.476 186.88V191.65C262.476 191.764 262.443 191.857 262.377 191.929C262.317 191.995 262.233 192.028 262.125 192.028C262.017 192.028 261.933 191.995 261.873 191.929C261.813 191.857 261.783 191.764 261.783 191.65V185.971C261.783 185.857 261.813 185.767 261.873 185.701C261.939 185.629 262.029 185.593 262.143 185.593C262.263 185.593 262.365 185.644 262.449 185.746L266.175 190.741V185.971C266.175 185.857 266.205 185.767 266.265 185.701C266.331 185.629 266.418 185.593 266.526 185.593ZM270.146 192.046C269.732 192.046 269.366 191.953 269.048 191.767C268.736 191.581 268.493 191.317 268.319 190.975C268.151 190.627 268.067 190.225 268.067 189.769C268.067 189.313 268.151 188.914 268.319 188.572C268.493 188.224 268.736 187.957 269.048 187.771C269.366 187.585 269.732 187.492 270.146 187.492C270.56 187.492 270.926 187.585 271.244 187.771C271.562 187.957 271.805 188.224 271.973 188.572C272.147 188.914 272.234 189.313 272.234 189.769C272.234 190.225 272.147 190.627 271.973 190.975C271.805 191.317 271.562 191.581 271.244 191.767C270.926 191.953 270.56 192.046 270.146 192.046ZM270.146 191.443C270.578 191.443 270.908 191.302 271.136 191.02C271.37 190.732 271.487 190.315 271.487 189.769C271.487 189.235 271.37 188.824 271.136 188.536C270.902 188.242 270.572 188.095 270.146 188.095C269.72 188.095 269.39 188.242 269.156 188.536C268.922 188.824 268.805 189.235 268.805 189.769C268.805 190.309 268.919 190.723 269.147 191.011C269.381 191.299 269.714 191.443 270.146 191.443ZM276.427 187.735C276.493 187.591 276.598 187.519 276.742 187.519C276.832 187.519 276.913 187.549 276.985 187.609C277.057 187.669 277.093 187.744 277.093 187.834C277.093 187.888 277.081 187.936 277.057 187.978L275.302 191.758C275.266 191.836 275.212 191.899 275.14 191.947C275.068 191.989 274.99 192.01 274.906 192.01C274.828 192.01 274.753 191.989 274.681 191.947C274.609 191.899 274.552 191.836 274.51 191.758L272.764 187.978C272.74 187.936 272.728 187.891 272.728 187.843C272.728 187.753 272.767 187.675 272.845 187.609C272.929 187.543 273.019 187.51 273.115 187.51C273.175 187.51 273.232 187.528 273.286 187.564C273.346 187.6 273.391 187.651 273.421 187.717L274.924 191.092L276.427 187.735Z" fill="#232323"/>
<path d="M288.161 191.983C288.047 191.983 287.954 191.95 287.882 191.884C287.816 191.818 287.783 191.731 287.783 191.623V185.998C287.783 185.89 287.816 185.803 287.882 185.737C287.954 185.671 288.047 185.638 288.161 185.638H289.916C290.93 185.638 291.713 185.914 292.265 186.466C292.823 187.012 293.102 187.792 293.102 188.806C293.102 189.82 292.823 190.603 292.265 191.155C291.707 191.707 290.924 191.983 289.916 191.983H288.161ZM289.871 191.353C291.515 191.353 292.337 190.504 292.337 188.806C292.337 187.114 291.515 186.268 289.871 186.268H288.521V191.353H289.871ZM297.721 190.966C297.787 190.966 297.844 190.993 297.892 191.047C297.94 191.101 297.964 191.17 297.964 191.254C297.964 191.404 297.859 191.542 297.649 191.668C297.433 191.794 297.205 191.89 296.965 191.956C296.725 192.016 296.491 192.046 296.263 192.046C295.585 192.046 295.048 191.845 294.652 191.443C294.262 191.041 294.067 190.486 294.067 189.778C294.067 189.328 294.154 188.932 294.328 188.59C294.502 188.242 294.745 187.972 295.057 187.78C295.375 187.588 295.735 187.492 296.137 187.492C296.707 187.492 297.16 187.678 297.496 188.05C297.832 188.422 298 188.926 298 189.562C298 189.682 297.976 189.769 297.928 189.823C297.88 189.877 297.802 189.904 297.694 189.904H294.796C294.85 190.936 295.339 191.452 296.263 191.452C296.497 191.452 296.698 191.422 296.866 191.362C297.034 191.296 297.214 191.209 297.406 191.101C297.562 191.011 297.667 190.966 297.721 190.966ZM296.146 188.059C295.762 188.059 295.453 188.179 295.219 188.419C294.991 188.659 294.856 188.998 294.814 189.436H297.361C297.349 188.992 297.238 188.653 297.028 188.419C296.818 188.179 296.524 188.059 296.146 188.059ZM300.883 192.046C300.475 192.046 300.112 191.953 299.794 191.767C299.482 191.581 299.239 191.317 299.065 190.975C298.897 190.633 298.813 190.237 298.813 189.787C298.813 189.337 298.9 188.938 299.074 188.59C299.254 188.242 299.503 187.972 299.821 187.78C300.139 187.588 300.505 187.492 300.919 187.492C301.147 187.492 301.372 187.525 301.594 187.591C301.822 187.651 302.02 187.741 302.188 187.861C302.296 187.933 302.371 188.005 302.413 188.077C302.461 188.143 302.485 188.218 302.485 188.302C302.485 188.386 302.461 188.455 302.413 188.509C302.371 188.563 302.314 188.59 302.242 188.59C302.2 188.59 302.155 188.578 302.107 188.554C302.059 188.53 302.017 188.506 301.981 188.482C301.951 188.458 301.93 188.443 301.918 188.437C301.762 188.335 301.612 188.254 301.468 188.194C301.33 188.134 301.159 188.104 300.955 188.104C300.517 188.104 300.175 188.254 299.929 188.554C299.689 188.848 299.569 189.259 299.569 189.787C299.569 190.315 299.689 190.723 299.929 191.011C300.175 191.299 300.517 191.443 300.955 191.443C301.159 191.443 301.333 191.413 301.477 191.353C301.627 191.293 301.777 191.212 301.927 191.11C301.993 191.068 302.056 191.032 302.116 191.002C302.176 190.972 302.227 190.957 302.269 190.957C302.335 190.957 302.389 190.984 302.431 191.038C302.479 191.092 302.503 191.161 302.503 191.245C302.503 191.323 302.482 191.395 302.44 191.461C302.398 191.521 302.32 191.59 302.206 191.668C302.038 191.782 301.834 191.875 301.594 191.947C301.36 192.013 301.123 192.046 300.883 192.046Z" fill="#232323"/>
<rect x="2" y="88.7079" width="6.43277" height="88.9866" fill="#136CFB"/>
<rect x="9.50488" y="119.8" width="6.43277" height="57.8949" fill="#00116E"/>
<rect x="28.5869" y="106.934" width="6.43277" height="70.7604" fill="#136CFB"/>
<rect x="36.0918" y="100.501" width="6.43277" height="77.1932" fill="#00116E"/>
<rect x="53.1733" y="124.088" width="6.43277" height="53.6064" fill="#136CFB"/>
<rect x="60.6782" y="115.511" width="6.43277" height="62.1834" fill="#00116E"/>
<rect x="78.8325" y="54.3999" width="6.43277" height="123.295" fill="#136CFB"/>
<rect x="86.3374" y="88.7079" width="6.43277" height="88.9866" fill="#00116E"/>
<rect x="106.492" y="89.78" width="6.43277" height="87.9145" fill="#136CFB"/>
<rect x="113.996" y="43.6786" width="6.43277" height="134.016" fill="#00116E"/>
<rect x="130.476" y="4" width="6" height="174" fill="#136CFB"/>
<rect x="137.655" y="98.3571" width="6.43277" height="79.3374" fill="#00116E"/>
<rect x="154.881" y="124.088" width="6.43277" height="53.6064" fill="#136CFB"/>
<rect x="162.386" y="74.7703" width="6.43277" height="102.924" fill="#00116E"/>
<rect x="184.468" y="106.934" width="6.43277" height="70.7604" fill="#136CFB"/>
<rect x="191.973" y="61.9048" width="6.43277" height="115.79" fill="#00116E"/>
<rect x="209.199" y="36.1737" width="6.43277" height="141.521" fill="#136CFB"/>
<rect x="216.704" y="57.6162" width="6.43277" height="120.078" fill="#00116E"/>
<rect x="235.476" y="4" width="7" height="174" fill="#136CFB"/>
<rect x="243.363" y="111" width="6.43277" height="66.4719" fill="#00116E"/>
<rect x="261.517" y="71.554" width="6.43277" height="106.141" fill="#136CFB"/>
<rect x="269.022" y="121.944" width="6.43277" height="55.7506" fill="#00116E"/>
<rect x="291.032" y="36.1737" width="6.43277" height="141.521" fill="#136CFB"/>
<rect x="298.537" y="133.737" width="6.43277" height="43.9572" fill="#00116E"/>
<path d="M16.28 218.05C16.1533 218.05 16.0533 218.013 15.98 217.94C15.9067 217.86 15.87 217.757 15.87 217.63V211.35C15.87 211.23 15.9067 211.133 15.98 211.06C16.06 210.987 16.1633 210.95 16.29 210.95H18.66C19.4 210.95 19.9733 211.13 20.38 211.49C20.7933 211.85 21 212.36 21 213.02C21 213.68 20.7933 214.193 20.38 214.56C19.9667 214.927 19.3933 215.11 18.66 215.11H16.69V217.63C16.69 217.757 16.6533 217.86 16.58 217.94C16.5067 218.013 16.4067 218.05 16.28 218.05ZM18.58 214.43C19.6533 214.43 20.19 213.96 20.19 213.02C20.19 212.093 19.6533 211.63 18.58 211.63H16.69V214.43H18.58ZM24.5077 213.03C24.7877 213.01 24.9277 213.123 24.9277 213.37C24.9277 213.477 24.8977 213.563 24.8377 213.63C24.7777 213.69 24.6743 213.727 24.5277 213.74L24.2277 213.77C23.781 213.81 23.4477 213.97 23.2277 214.25C23.0143 214.523 22.9077 214.847 22.9077 215.22V217.65C22.9077 217.783 22.871 217.883 22.7977 217.95C22.7243 218.017 22.6277 218.05 22.5077 218.05C22.3877 218.05 22.2877 218.017 22.2077 217.95C22.1343 217.877 22.0977 217.777 22.0977 217.65V213.43C22.0977 213.303 22.1377 213.207 22.2177 213.14C22.2977 213.067 22.3943 213.03 22.5077 213.03C22.6143 213.03 22.7043 213.067 22.7777 213.14C22.851 213.207 22.8877 213.3 22.8877 213.42V213.98C23.0277 213.687 23.2243 213.463 23.4777 213.31C23.7377 213.157 24.0343 213.067 24.3677 213.04L24.5077 213.03ZM26.033 218.05C25.913 218.05 25.813 218.017 25.733 217.95C25.6597 217.877 25.623 217.777 25.623 217.65V213.43C25.623 213.303 25.6597 213.207 25.733 213.14C25.813 213.067 25.913 213.03 26.033 213.03C26.153 213.03 26.2497 213.067 26.323 213.14C26.3964 213.207 26.433 213.303 26.433 213.43V217.65C26.433 217.783 26.3964 217.883 26.323 217.95C26.2497 218.017 26.153 218.05 26.033 218.05ZM26.033 211.98C25.873 211.98 25.743 211.933 25.643 211.84C25.543 211.747 25.493 211.623 25.493 211.47C25.493 211.323 25.543 211.203 25.643 211.11C25.743 211.017 25.873 210.97 26.033 210.97C26.193 210.97 26.323 211.017 26.423 211.11C26.523 211.203 26.573 211.323 26.573 211.47C26.573 211.623 26.523 211.747 26.423 211.84C26.323 211.933 26.193 211.98 26.033 211.98ZM33.3673 213.01C34.4473 213.01 34.9873 213.653 34.9873 214.94V217.65C34.9873 217.777 34.9506 217.877 34.8773 217.95C34.8039 218.017 34.7073 218.05 34.5873 218.05C34.4673 218.05 34.3673 218.017 34.2873 217.95C34.2139 217.877 34.1773 217.777 34.1773 217.65V214.96C34.1773 214.513 34.0973 214.19 33.9373 213.99C33.7773 213.79 33.5273 213.69 33.1873 213.69C32.7806 213.69 32.4606 213.827 32.2273 214.1C31.9939 214.373 31.8773 214.743 31.8773 215.21V217.65C31.8773 217.777 31.8373 217.877 31.7573 217.95C31.6839 218.017 31.5873 218.05 31.4673 218.05C31.3473 218.05 31.2506 218.017 31.1773 217.95C31.1039 217.877 31.0673 217.777 31.0673 217.65V214.96C31.0673 214.513 30.9873 214.19 30.8273 213.99C30.6673 213.79 30.4139 213.69 30.0673 213.69C29.6673 213.69 29.3473 213.827 29.1073 214.1C28.8739 214.373 28.7573 214.743 28.7573 215.21V217.65C28.7573 217.777 28.7206 217.877 28.6473 217.95C28.5739 218.017 28.4773 218.05 28.3573 218.05C28.2373 218.05 28.1373 218.017 28.0573 217.95C27.9839 217.877 27.9473 217.777 27.9473 217.65V213.43C27.9473 213.31 27.9839 213.213 28.0573 213.14C28.1373 213.067 28.2373 213.03 28.3573 213.03C28.4706 213.03 28.5639 213.067 28.6373 213.14C28.7106 213.207 28.7473 213.3 28.7473 213.42V213.9C28.8939 213.613 29.0973 213.393 29.3573 213.24C29.6173 213.087 29.9173 213.01 30.2573 213.01C31.0173 213.01 31.5139 213.33 31.7473 213.97C31.8873 213.677 32.1006 213.443 32.3873 213.27C32.6739 213.097 33.0006 213.01 33.3673 213.01ZM38.4529 213.01C39.6729 213.01 40.2829 213.65 40.2829 214.93V217.65C40.2829 217.77 40.2462 217.867 40.1729 217.94C40.1062 218.013 40.0129 218.05 39.8929 218.05C39.7729 218.05 39.6762 218.013 39.6029 217.94C39.5296 217.867 39.4929 217.77 39.4929 217.65V217.17C39.3662 217.457 39.1729 217.68 38.9129 217.84C38.6529 217.993 38.3529 218.07 38.0129 218.07C37.6996 218.07 37.4096 218.007 37.1429 217.88C36.8829 217.753 36.6762 217.577 36.5229 217.35C36.3696 217.123 36.2929 216.873 36.2929 216.6C36.2929 216.233 36.3862 215.95 36.5729 215.75C36.7596 215.543 37.0662 215.397 37.4929 215.31C37.9196 215.217 38.5129 215.17 39.2729 215.17H39.4929V214.84C39.4929 214.44 39.4096 214.147 39.2429 213.96C39.0829 213.773 38.8196 213.68 38.4529 213.68C37.9996 213.68 37.5396 213.803 37.0729 214.05C36.8929 214.163 36.7662 214.22 36.6929 214.22C36.6129 214.22 36.5462 214.19 36.4929 214.13C36.4396 214.07 36.4129 213.993 36.4129 213.9C36.4129 213.807 36.4396 213.727 36.4929 213.66C36.5529 213.587 36.6462 213.513 36.7729 213.44C37.0062 213.307 37.2696 213.203 37.5629 213.13C37.8629 213.05 38.1596 213.01 38.4529 213.01ZM38.1229 217.43C38.5229 217.43 38.8496 217.297 39.1029 217.03C39.3629 216.757 39.4929 216.407 39.4929 215.98V215.69H39.3129C38.7262 215.69 38.2796 215.717 37.9729 215.77C37.6662 215.817 37.4462 215.9 37.3129 216.02C37.1862 216.133 37.1229 216.303 37.1229 216.53C37.1229 216.79 37.2162 217.007 37.4029 217.18C37.5962 217.347 37.8362 217.43 38.1229 217.43ZM44.1756 213.03C44.4556 213.01 44.5956 213.123 44.5956 213.37C44.5956 213.477 44.5656 213.563 44.5056 213.63C44.4456 213.69 44.3423 213.727 44.1956 213.74L43.8956 213.77C43.449 213.81 43.1156 213.97 42.8956 214.25C42.6823 214.523 42.5756 214.847 42.5756 215.22V217.65C42.5756 217.783 42.539 217.883 42.4656 217.95C42.3923 218.017 42.2956 218.05 42.1756 218.05C42.0556 218.05 41.9556 218.017 41.8756 217.95C41.8023 217.877 41.7656 217.777 41.7656 217.65V213.43C41.7656 213.303 41.8056 213.207 41.8856 213.14C41.9656 213.067 42.0623 213.03 42.1756 213.03C42.2823 213.03 42.3723 213.067 42.4456 213.14C42.519 213.207 42.5556 213.3 42.5556 213.42V213.98C42.6956 213.687 42.8923 213.463 43.1456 213.31C43.4056 213.157 43.7023 213.067 44.0356 213.04L44.1756 213.03ZM49.1038 213.28C49.1771 213.12 49.2938 213.04 49.4538 213.04C49.5538 213.04 49.6438 213.073 49.7238 213.14C49.8038 213.207 49.8438 213.29 49.8438 213.39C49.8438 213.45 49.8304 213.503 49.8038 213.55L46.9938 219.61C46.9604 219.683 46.9104 219.74 46.8438 219.78C46.7838 219.82 46.7204 219.84 46.6538 219.84C46.5538 219.84 46.4638 219.807 46.3838 219.74C46.3104 219.68 46.2738 219.6 46.2738 219.5C46.2738 219.447 46.2871 219.393 46.3137 219.34L47.0138 217.83L45.0338 213.55C45.0071 213.503 44.9938 213.453 44.9938 213.4C44.9938 213.3 45.0371 213.213 45.1238 213.14C45.2171 213.067 45.3171 213.03 45.4238 213.03C45.4904 213.03 45.5538 213.05 45.6138 213.09C45.6804 213.13 45.7304 213.187 45.7638 213.26L47.4338 217.01L49.1038 213.28ZM56.3786 218.08C55.7253 218.08 55.1553 217.933 54.6686 217.64C54.1886 217.347 53.8186 216.93 53.5586 216.39C53.2986 215.85 53.1686 215.213 53.1686 214.48C53.1686 213.74 53.2953 213.1 53.5486 212.56C53.8086 212.013 54.1786 211.597 54.6586 211.31C55.1453 211.017 55.7186 210.87 56.3786 210.87C57.0386 210.87 57.6086 211.017 58.0886 211.31C58.5753 211.597 58.9453 212.013 59.1986 212.56C59.4586 213.1 59.5886 213.737 59.5886 214.47C59.5886 215.203 59.4586 215.843 59.1986 216.39C58.9386 216.93 58.5653 217.347 58.0786 217.64C57.5986 217.933 57.0319 218.08 56.3786 218.08ZM56.3786 217.38C57.1253 217.38 57.7053 217.13 58.1186 216.63C58.5386 216.123 58.7486 215.403 58.7486 214.47C58.7486 213.537 58.5419 212.82 58.1286 212.32C57.7153 211.82 57.1319 211.57 56.3786 211.57C55.6319 211.57 55.0486 211.823 54.6286 212.33C54.2153 212.83 54.0086 213.543 54.0086 214.47C54.0086 215.397 54.2153 216.113 54.6286 216.62C55.0486 217.127 55.6319 217.38 56.3786 217.38ZM63.3953 213.01C63.822 213.01 64.1986 213.117 64.5253 213.33C64.852 213.543 65.1053 213.843 65.2853 214.23C65.4653 214.61 65.5553 215.053 65.5553 215.56C65.5553 216.067 65.4653 216.51 65.2853 216.89C65.1053 217.263 64.852 217.553 64.5253 217.76C64.2053 217.967 63.8286 218.07 63.3953 218.07C63.0153 218.07 62.682 217.987 62.3953 217.82C62.1153 217.653 61.902 217.417 61.7553 217.11V219.46C61.7553 219.58 61.7186 219.673 61.6453 219.74C61.5786 219.813 61.482 219.85 61.3553 219.85C61.2286 219.85 61.1286 219.813 61.0553 219.74C60.982 219.667 60.9453 219.573 60.9453 219.46V213.43C60.9453 213.31 60.982 213.213 61.0553 213.14C61.1286 213.067 61.2286 213.03 61.3553 213.03C61.482 213.03 61.5786 213.067 61.6453 213.14C61.7186 213.213 61.7553 213.31 61.7553 213.43V213.97C61.902 213.663 62.1153 213.427 62.3953 213.26C62.682 213.093 63.0153 213.01 63.3953 213.01ZM63.2353 217.4C63.7086 217.4 64.0753 217.24 64.3353 216.92C64.5953 216.6 64.7253 216.147 64.7253 215.56C64.7253 214.973 64.5953 214.517 64.3353 214.19C64.0753 213.857 63.7086 213.69 63.2353 213.69C62.762 213.69 62.3953 213.85 62.1353 214.17C61.882 214.49 61.7553 214.947 61.7553 215.54C61.7553 216.133 61.882 216.593 62.1353 216.92C62.3953 217.24 62.762 217.4 63.2353 217.4ZM70.5356 216.87C70.609 216.87 70.6723 216.9 70.7256 216.96C70.779 217.02 70.8056 217.097 70.8056 217.19C70.8056 217.357 70.689 217.51 70.4556 217.65C70.2156 217.79 69.9623 217.897 69.6956 217.97C69.429 218.037 69.169 218.07 68.9156 218.07C68.1623 218.07 67.5656 217.847 67.1256 217.4C66.6923 216.953 66.4756 216.337 66.4756 215.55C66.4756 215.05 66.5723 214.61 66.7656 214.23C66.959 213.843 67.229 213.543 67.5756 213.33C67.929 213.117 68.329 213.01 68.7756 213.01C69.409 213.01 69.9123 213.217 70.2856 213.63C70.659 214.043 70.8456 214.603 70.8456 215.31C70.8456 215.443 70.819 215.54 70.7656 215.6C70.7123 215.66 70.6256 215.69 70.5056 215.69H67.2856C67.3456 216.837 67.889 217.41 68.9156 217.41C69.1756 217.41 69.399 217.377 69.5856 217.31C69.7723 217.237 69.9723 217.14 70.1856 217.02C70.359 216.92 70.4756 216.87 70.5356 216.87ZM68.7856 213.64C68.359 213.64 68.0156 213.773 67.7556 214.04C67.5023 214.307 67.3523 214.683 67.3056 215.17H70.1356C70.1223 214.677 69.999 214.3 69.7656 214.04C69.5323 213.773 69.2056 213.64 68.7856 213.64ZM74.4491 213.03C74.7291 213.01 74.8691 213.123 74.8691 213.37C74.8691 213.477 74.8391 213.563 74.7791 213.63C74.7191 213.69 74.6157 213.727 74.4691 213.74L74.1691 213.77C73.7224 213.81 73.3891 213.97 73.1691 214.25C72.9557 214.523 72.8491 214.847 72.8491 215.22V217.65C72.8491 217.783 72.8124 217.883 72.7391 217.95C72.6657 218.017 72.5691 218.05 72.4491 218.05C72.3291 218.05 72.2291 218.017 72.1491 217.95C72.0757 217.877 72.0391 217.777 72.0391 217.65V213.43C72.0391 213.303 72.0791 213.207 72.1591 213.14C72.2391 213.067 72.3357 213.03 72.4491 213.03C72.5557 213.03 72.6457 213.067 72.7191 213.14C72.7924 213.207 72.8291 213.3 72.8291 213.42V213.98C72.9691 213.687 73.1657 213.463 73.4191 213.31C73.6791 213.157 73.9757 213.067 74.3091 213.04L74.4491 213.03ZM77.5154 213.01C78.7354 213.01 79.3454 213.65 79.3454 214.93V217.65C79.3454 217.77 79.3087 217.867 79.2354 217.94C79.1687 218.013 79.0754 218.05 78.9554 218.05C78.8354 218.05 78.7387 218.013 78.6654 217.94C78.5921 217.867 78.5554 217.77 78.5554 217.65V217.17C78.4287 217.457 78.2354 217.68 77.9754 217.84C77.7154 217.993 77.4154 218.07 77.0754 218.07C76.7621 218.07 76.4721 218.007 76.2054 217.88C75.9454 217.753 75.7387 217.577 75.5854 217.35C75.4321 217.123 75.3554 216.873 75.3554 216.6C75.3554 216.233 75.4487 215.95 75.6354 215.75C75.8221 215.543 76.1287 215.397 76.5554 215.31C76.9821 215.217 77.5754 215.17 78.3354 215.17H78.5554V214.84C78.5554 214.44 78.4721 214.147 78.3054 213.96C78.1454 213.773 77.8821 213.68 77.5154 213.68C77.0621 213.68 76.6021 213.803 76.1354 214.05C75.9554 214.163 75.8287 214.22 75.7554 214.22C75.6754 214.22 75.6087 214.19 75.5554 214.13C75.5021 214.07 75.4754 213.993 75.4754 213.9C75.4754 213.807 75.5021 213.727 75.5554 213.66C75.6154 213.587 75.7087 213.513 75.8354 213.44C76.0687 213.307 76.3321 213.203 76.6254 213.13C76.9254 213.05 77.2221 213.01 77.5154 213.01ZM77.1854 217.43C77.5854 217.43 77.9121 217.297 78.1654 217.03C78.4254 216.757 78.5554 216.407 78.5554 215.98V215.69H78.3754C77.7887 215.69 77.3421 215.717 77.0354 215.77C76.7287 215.817 76.5087 215.9 76.3754 216.02C76.2487 216.133 76.1854 216.303 76.1854 216.53C76.1854 216.79 76.2787 217.007 76.4654 217.18C76.6587 217.347 76.8987 217.43 77.1854 217.43ZM83.0781 217.41C83.3115 217.43 83.4281 217.537 83.4281 217.73C83.4281 217.843 83.3848 217.93 83.2981 217.99C83.2181 218.043 83.0948 218.063 82.9281 218.05L82.6581 218.03C82.1248 217.99 81.7315 217.83 81.4781 217.55C81.2248 217.27 81.0981 216.847 81.0981 216.28V213.77H80.4281C80.3148 213.77 80.2248 213.743 80.1581 213.69C80.0981 213.63 80.0681 213.553 80.0681 213.46C80.0681 213.36 80.0981 213.28 80.1581 213.22C80.2248 213.16 80.3148 213.13 80.4281 213.13H81.0981V212C81.0981 211.873 81.1348 211.777 81.2081 211.71C81.2815 211.637 81.3815 211.6 81.5081 211.6C81.6281 211.6 81.7248 211.637 81.7981 211.71C81.8715 211.777 81.9081 211.873 81.9081 212V213.13H83.0181C83.1248 213.13 83.2081 213.16 83.2681 213.22C83.3348 213.28 83.3681 213.36 83.3681 213.46C83.3681 213.553 83.3348 213.63 83.2681 213.69C83.2081 213.743 83.1248 213.77 83.0181 213.77H81.9081V216.32C81.9081 216.687 81.9815 216.953 82.1281 217.12C82.2815 217.28 82.5081 217.37 82.8081 217.39L83.0781 217.41ZM84.6366 218.05C84.5166 218.05 84.4166 218.017 84.3366 217.95C84.2632 217.877 84.2266 217.777 84.2266 217.65V213.43C84.2266 213.303 84.2632 213.207 84.3366 213.14C84.4166 213.067 84.5166 213.03 84.6366 213.03C84.7566 213.03 84.8532 213.067 84.9266 213.14C84.9999 213.207 85.0366 213.303 85.0366 213.43V217.65C85.0366 217.783 84.9999 217.883 84.9266 217.95C84.8532 218.017 84.7566 218.05 84.6366 218.05ZM84.6366 211.98C84.4766 211.98 84.3466 211.933 84.2466 211.84C84.1466 211.747 84.0966 211.623 84.0966 211.47C84.0966 211.323 84.1466 211.203 84.2466 211.11C84.3466 211.017 84.4766 210.97 84.6366 210.97C84.7966 210.97 84.9266 211.017 85.0266 211.11C85.1266 211.203 85.1766 211.323 85.1766 211.47C85.1766 211.623 85.1266 211.747 85.0266 211.84C84.9266 211.933 84.7966 211.98 84.6366 211.98ZM88.5708 218.07C88.1108 218.07 87.7041 217.967 87.3508 217.76C87.0041 217.553 86.7341 217.26 86.5408 216.88C86.3541 216.493 86.2608 216.047 86.2608 215.54C86.2608 215.033 86.3541 214.59 86.5408 214.21C86.7341 213.823 87.0041 213.527 87.3508 213.32C87.7041 213.113 88.1108 213.01 88.5708 213.01C89.0308 213.01 89.4374 213.113 89.7908 213.32C90.1441 213.527 90.4141 213.823 90.6008 214.21C90.7941 214.59 90.8908 215.033 90.8908 215.54C90.8908 216.047 90.7941 216.493 90.6008 216.88C90.4141 217.26 90.1441 217.553 89.7908 217.76C89.4374 217.967 89.0308 218.07 88.5708 218.07ZM88.5708 217.4C89.0508 217.4 89.4174 217.243 89.6708 216.93C89.9308 216.61 90.0608 216.147 90.0608 215.54C90.0608 214.947 89.9308 214.49 89.6708 214.17C89.4108 213.843 89.0441 213.68 88.5708 213.68C88.0974 213.68 87.7308 213.843 87.4708 214.17C87.2108 214.49 87.0808 214.947 87.0808 215.54C87.0808 216.14 87.2074 216.6 87.4608 216.92C87.7208 217.24 88.0908 217.4 88.5708 217.4ZM94.5477 213.01C95.7143 213.01 96.2977 213.653 96.2977 214.94V217.65C96.2977 217.777 96.261 217.877 96.1877 217.95C96.121 218.017 96.0243 218.05 95.8977 218.05C95.771 218.05 95.671 218.017 95.5977 217.95C95.5243 217.877 95.4877 217.777 95.4877 217.65V214.99C95.4877 214.537 95.3977 214.207 95.2177 214C95.0443 213.793 94.7643 213.69 94.3777 213.69C93.931 213.69 93.5743 213.827 93.3077 214.1C93.041 214.373 92.9077 214.743 92.9077 215.21V217.65C92.9077 217.777 92.871 217.877 92.7977 217.95C92.731 218.017 92.6343 218.05 92.5077 218.05C92.381 218.05 92.281 218.017 92.2077 217.95C92.1343 217.877 92.0977 217.777 92.0977 217.65V213.43C92.0977 213.31 92.1343 213.213 92.2077 213.14C92.281 213.067 92.381 213.03 92.5077 213.03C92.6277 213.03 92.721 213.067 92.7877 213.14C92.861 213.213 92.8977 213.307 92.8977 213.42V213.93C93.0577 213.63 93.281 213.403 93.5677 213.25C93.8543 213.09 94.181 213.01 94.5477 213.01ZM99.4213 218.07C99.1146 218.07 98.8213 218.033 98.5413 217.96C98.2679 217.887 98.0246 217.783 97.8113 217.65C97.6913 217.57 97.6046 217.497 97.5513 217.43C97.5046 217.357 97.4813 217.27 97.4813 217.17C97.4813 217.083 97.5046 217.013 97.5513 216.96C97.6046 216.9 97.6713 216.87 97.7513 216.87C97.8313 216.87 97.9479 216.92 98.1013 217.02C98.3013 217.14 98.4979 217.237 98.6913 217.31C98.8913 217.377 99.1379 217.41 99.4313 217.41C99.7913 217.41 100.071 217.347 100.271 217.22C100.471 217.093 100.571 216.91 100.571 216.67C100.571 216.523 100.535 216.407 100.461 216.32C100.388 216.227 100.261 216.147 100.081 216.08C99.9013 216.007 99.6379 215.933 99.2913 215.86C98.7046 215.733 98.2846 215.563 98.0313 215.35C97.7779 215.137 97.6513 214.847 97.6513 214.48C97.6513 214.193 97.7313 213.94 97.8913 213.72C98.0513 213.5 98.2713 213.327 98.5513 213.2C98.8379 213.073 99.1613 213.01 99.5213 213.01C99.7813 213.01 100.031 213.047 100.271 213.12C100.518 213.187 100.735 213.283 100.921 213.41C101.148 213.57 101.261 213.737 101.261 213.91C101.261 213.997 101.235 214.07 101.181 214.13C101.128 214.19 101.065 214.22 100.991 214.22C100.911 214.22 100.791 214.163 100.631 214.05C100.445 213.93 100.268 213.837 100.101 213.77C99.9346 213.703 99.7279 213.67 99.4813 213.67C99.1679 213.67 98.9146 213.74 98.7213 213.88C98.5346 214.02 98.4413 214.207 98.4413 214.44C98.4413 214.587 98.4746 214.707 98.5413 214.8C98.6146 214.887 98.7313 214.967 98.8913 215.04C99.0579 215.107 99.2946 215.173 99.6012 215.24C100.055 215.34 100.405 215.45 100.651 215.57C100.905 215.69 101.085 215.837 101.191 216.01C101.298 216.183 101.351 216.403 101.351 216.67C101.351 217.09 101.175 217.43 100.821 217.69C100.468 217.943 100.001 218.07 99.4213 218.07Z" fill="black"/>
<circle cx="6" cy="215" r="5" fill="#136CFB"/>
<path d="M146.25 217.49C146.297 217.563 146.32 217.64 146.32 217.72C146.32 217.82 146.28 217.903 146.2 217.97C146.127 218.03 146.04 218.06 145.94 218.06C145.787 218.06 145.667 217.993 145.58 217.86L144.24 215.74C144.067 215.467 143.887 215.28 143.7 215.18C143.513 215.073 143.26 215.02 142.94 215.02H141.68V217.63C141.68 217.757 141.643 217.86 141.57 217.94C141.497 218.013 141.4 218.05 141.28 218.05C141.153 218.05 141.053 218.013 140.98 217.94C140.907 217.86 140.87 217.757 140.87 217.63V211.35C140.87 211.23 140.907 211.133 140.98 211.06C141.06 210.987 141.163 210.95 141.29 210.95H143.77C144.537 210.95 145.12 211.12 145.52 211.46C145.927 211.8 146.13 212.3 146.13 212.96C146.13 213.52 145.967 213.97 145.64 214.31C145.32 214.65 144.86 214.857 144.26 214.93C144.427 214.983 144.577 215.07 144.71 215.19C144.843 215.31 144.977 215.477 145.11 215.69L146.25 217.49ZM143.7 214.34C144.247 214.34 144.653 214.227 144.92 214C145.193 213.773 145.33 213.43 145.33 212.97C145.33 212.517 145.197 212.18 144.93 211.96C144.663 211.74 144.253 211.63 143.7 211.63H141.68V214.34H143.7ZM151.375 216.87C151.449 216.87 151.512 216.9 151.565 216.96C151.619 217.02 151.645 217.097 151.645 217.19C151.645 217.357 151.529 217.51 151.295 217.65C151.055 217.79 150.802 217.897 150.535 217.97C150.269 218.037 150.009 218.07 149.755 218.07C149.002 218.07 148.405 217.847 147.965 217.4C147.532 216.953 147.315 216.337 147.315 215.55C147.315 215.05 147.412 214.61 147.605 214.23C147.799 213.843 148.069 213.543 148.415 213.33C148.769 213.117 149.169 213.01 149.615 213.01C150.249 213.01 150.752 213.217 151.125 213.63C151.499 214.043 151.685 214.603 151.685 215.31C151.685 215.443 151.659 215.54 151.605 215.6C151.552 215.66 151.465 215.69 151.345 215.69H148.125C148.185 216.837 148.729 217.41 149.755 217.41C150.015 217.41 150.239 217.377 150.425 217.31C150.612 217.237 150.812 217.14 151.025 217.02C151.199 216.92 151.315 216.87 151.375 216.87ZM149.625 213.64C149.199 213.64 148.855 213.773 148.595 214.04C148.342 214.307 148.192 214.683 148.145 215.17H150.975C150.962 214.677 150.839 214.3 150.605 214.04C150.372 213.773 150.045 213.64 149.625 213.64ZM156.33 213.28C156.404 213.12 156.52 213.04 156.68 213.04C156.78 213.04 156.87 213.073 156.95 213.14C157.03 213.207 157.07 213.29 157.07 213.39C157.07 213.45 157.057 213.503 157.03 213.55L155.08 217.75C155.04 217.837 154.98 217.907 154.9 217.96C154.82 218.007 154.734 218.03 154.64 218.03C154.554 218.03 154.47 218.007 154.39 217.96C154.31 217.907 154.247 217.837 154.2 217.75L152.26 213.55C152.234 213.503 152.22 213.453 152.22 213.4C152.22 213.3 152.264 213.213 152.35 213.14C152.444 213.067 152.544 213.03 152.65 213.03C152.717 213.03 152.78 213.05 152.84 213.09C152.907 213.13 152.957 213.187 152.99 213.26L154.66 217.01L156.33 213.28ZM158.367 218.05C158.247 218.05 158.147 218.017 158.067 217.95C157.994 217.877 157.957 217.777 157.957 217.65V213.43C157.957 213.303 157.994 213.207 158.067 213.14C158.147 213.067 158.247 213.03 158.367 213.03C158.487 213.03 158.584 213.067 158.657 213.14C158.73 213.207 158.767 213.303 158.767 213.43V217.65C158.767 217.783 158.73 217.883 158.657 217.95C158.584 218.017 158.487 218.05 158.367 218.05ZM158.367 211.98C158.207 211.98 158.077 211.933 157.977 211.84C157.877 211.747 157.827 211.623 157.827 211.47C157.827 211.323 157.877 211.203 157.977 211.11C158.077 211.017 158.207 210.97 158.367 210.97C158.527 210.97 158.657 211.017 158.757 211.11C158.857 211.203 158.907 211.323 158.907 211.47C158.907 211.623 158.857 211.747 158.757 211.84C158.657 211.933 158.527 211.98 158.367 211.98ZM161.921 218.07C161.615 218.07 161.321 218.033 161.041 217.96C160.768 217.887 160.525 217.783 160.311 217.65C160.191 217.57 160.105 217.497 160.051 217.43C160.005 217.357 159.981 217.27 159.981 217.17C159.981 217.083 160.005 217.013 160.051 216.96C160.105 216.9 160.171 216.87 160.251 216.87C160.331 216.87 160.448 216.92 160.601 217.02C160.801 217.14 160.998 217.237 161.191 217.31C161.391 217.377 161.638 217.41 161.931 217.41C162.291 217.41 162.571 217.347 162.771 217.22C162.971 217.093 163.071 216.91 163.071 216.67C163.071 216.523 163.035 216.407 162.961 216.32C162.888 216.227 162.761 216.147 162.581 216.08C162.401 216.007 162.138 215.933 161.791 215.86C161.205 215.733 160.785 215.563 160.531 215.35C160.278 215.137 160.151 214.847 160.151 214.48C160.151 214.193 160.231 213.94 160.391 213.72C160.551 213.5 160.771 213.327 161.051 213.2C161.338 213.073 161.661 213.01 162.021 213.01C162.281 213.01 162.531 213.047 162.771 213.12C163.018 213.187 163.235 213.283 163.421 213.41C163.648 213.57 163.761 213.737 163.761 213.91C163.761 213.997 163.735 214.07 163.681 214.13C163.628 214.19 163.565 214.22 163.491 214.22C163.411 214.22 163.291 214.163 163.131 214.05C162.945 213.93 162.768 213.837 162.601 213.77C162.435 213.703 162.228 213.67 161.981 213.67C161.668 213.67 161.415 213.74 161.221 213.88C161.035 214.02 160.941 214.207 160.941 214.44C160.941 214.587 160.975 214.707 161.041 214.8C161.115 214.887 161.231 214.967 161.391 215.04C161.558 215.107 161.795 215.173 162.101 215.24C162.555 215.34 162.905 215.45 163.151 215.57C163.405 215.69 163.585 215.837 163.691 216.01C163.798 216.183 163.851 216.403 163.851 216.67C163.851 217.09 163.675 217.43 163.321 217.69C162.968 217.943 162.501 218.07 161.921 218.07ZM165.496 218.05C165.376 218.05 165.276 218.017 165.196 217.95C165.123 217.877 165.086 217.777 165.086 217.65V213.43C165.086 213.303 165.123 213.207 165.196 213.14C165.276 213.067 165.376 213.03 165.496 213.03C165.616 213.03 165.713 213.067 165.786 213.14C165.859 213.207 165.896 213.303 165.896 213.43V217.65C165.896 217.783 165.859 217.883 165.786 217.95C165.713 218.017 165.616 218.05 165.496 218.05ZM165.496 211.98C165.336 211.98 165.206 211.933 165.106 211.84C165.006 211.747 164.956 211.623 164.956 211.47C164.956 211.323 165.006 211.203 165.106 211.11C165.206 211.017 165.336 210.97 165.496 210.97C165.656 210.97 165.786 211.017 165.886 211.11C165.986 211.203 166.036 211.323 166.036 211.47C166.036 211.623 165.986 211.747 165.886 211.84C165.786 211.933 165.656 211.98 165.496 211.98ZM169.43 218.07C168.97 218.07 168.563 217.967 168.21 217.76C167.863 217.553 167.593 217.26 167.4 216.88C167.213 216.493 167.12 216.047 167.12 215.54C167.12 215.033 167.213 214.59 167.4 214.21C167.593 213.823 167.863 213.527 168.21 213.32C168.563 213.113 168.97 213.01 169.43 213.01C169.89 213.01 170.297 213.113 170.65 213.32C171.003 213.527 171.273 213.823 171.46 214.21C171.653 214.59 171.75 215.033 171.75 215.54C171.75 216.047 171.653 216.493 171.46 216.88C171.273 217.26 171.003 217.553 170.65 217.76C170.297 217.967 169.89 218.07 169.43 218.07ZM169.43 217.4C169.91 217.4 170.277 217.243 170.53 216.93C170.79 216.61 170.92 216.147 170.92 215.54C170.92 214.947 170.79 214.49 170.53 214.17C170.27 213.843 169.903 213.68 169.43 213.68C168.957 213.68 168.59 213.843 168.33 214.17C168.07 214.49 167.94 214.947 167.94 215.54C167.94 216.14 168.067 216.6 168.32 216.92C168.58 217.24 168.95 217.4 169.43 217.4ZM175.407 213.01C176.574 213.01 177.157 213.653 177.157 214.94V217.65C177.157 217.777 177.12 217.877 177.047 217.95C176.98 218.017 176.884 218.05 176.757 218.05C176.63 218.05 176.53 218.017 176.457 217.95C176.384 217.877 176.347 217.777 176.347 217.65V214.99C176.347 214.537 176.257 214.207 176.077 214C175.904 213.793 175.624 213.69 175.237 213.69C174.79 213.69 174.434 213.827 174.167 214.1C173.9 214.373 173.767 214.743 173.767 215.21V217.65C173.767 217.777 173.73 217.877 173.657 217.95C173.59 218.017 173.494 218.05 173.367 218.05C173.24 218.05 173.14 218.017 173.067 217.95C172.994 217.877 172.957 217.777 172.957 217.65V213.43C172.957 213.31 172.994 213.213 173.067 213.14C173.14 213.067 173.24 213.03 173.367 213.03C173.487 213.03 173.58 213.067 173.647 213.14C173.72 213.213 173.757 213.307 173.757 213.42V213.93C173.917 213.63 174.14 213.403 174.427 213.25C174.714 213.09 175.04 213.01 175.407 213.01ZM180.631 213.01C181.851 213.01 182.461 213.65 182.461 214.93V217.65C182.461 217.77 182.424 217.867 182.351 217.94C182.284 218.013 182.191 218.05 182.071 218.05C181.951 218.05 181.854 218.013 181.781 217.94C181.707 217.867 181.671 217.77 181.671 217.65V217.17C181.544 217.457 181.351 217.68 181.091 217.84C180.831 217.993 180.531 218.07 180.191 218.07C179.877 218.07 179.587 218.007 179.321 217.88C179.061 217.753 178.854 217.577 178.701 217.35C178.547 217.123 178.471 216.873 178.471 216.6C178.471 216.233 178.564 215.95 178.751 215.75C178.937 215.543 179.244 215.397 179.671 215.31C180.097 215.217 180.691 215.17 181.451 215.17H181.671V214.84C181.671 214.44 181.587 214.147 181.421 213.96C181.261 213.773 180.997 213.68 180.631 213.68C180.177 213.68 179.717 213.803 179.251 214.05C179.071 214.163 178.944 214.22 178.871 214.22C178.791 214.22 178.724 214.19 178.671 214.13C178.617 214.07 178.591 213.993 178.591 213.9C178.591 213.807 178.617 213.727 178.671 213.66C178.731 213.587 178.824 213.513 178.951 213.44C179.184 213.307 179.447 213.203 179.741 213.13C180.041 213.05 180.337 213.01 180.631 213.01ZM180.301 217.43C180.701 217.43 181.027 217.297 181.281 217.03C181.541 216.757 181.671 216.407 181.671 215.98V215.69H181.491C180.904 215.69 180.457 215.717 180.151 215.77C179.844 215.817 179.624 215.9 179.491 216.02C179.364 216.133 179.301 216.303 179.301 216.53C179.301 216.79 179.394 217.007 179.581 217.18C179.774 217.347 180.014 217.43 180.301 217.43ZM184.353 218.05C184.233 218.05 184.133 218.017 184.053 217.95C183.98 217.877 183.943 217.777 183.943 217.65V211.3C183.943 211.173 183.98 211.077 184.053 211.01C184.133 210.937 184.233 210.9 184.353 210.9C184.467 210.9 184.56 210.937 184.633 211.01C184.713 211.077 184.753 211.173 184.753 211.3V217.65C184.753 217.777 184.713 217.877 184.633 217.95C184.56 218.017 184.467 218.05 184.353 218.05ZM191.916 218.08C191.262 218.08 190.692 217.933 190.206 217.64C189.726 217.347 189.356 216.93 189.096 216.39C188.836 215.85 188.706 215.213 188.706 214.48C188.706 213.74 188.832 213.1 189.086 212.56C189.346 212.013 189.716 211.597 190.196 211.31C190.682 211.017 191.256 210.87 191.916 210.87C192.576 210.87 193.146 211.017 193.626 211.31C194.112 211.597 194.482 212.013 194.736 212.56C194.996 213.1 195.126 213.737 195.126 214.47C195.126 215.203 194.996 215.843 194.736 216.39C194.476 216.93 194.102 217.347 193.616 217.64C193.136 217.933 192.569 218.08 191.916 218.08ZM191.916 217.38C192.662 217.38 193.242 217.13 193.656 216.63C194.076 216.123 194.286 215.403 194.286 214.47C194.286 213.537 194.079 212.82 193.666 212.32C193.252 211.82 192.669 211.57 191.916 211.57C191.169 211.57 190.586 211.823 190.166 212.33C189.752 212.83 189.546 213.543 189.546 214.47C189.546 215.397 189.752 216.113 190.166 216.62C190.586 217.127 191.169 217.38 191.916 217.38ZM198.932 213.01C199.359 213.01 199.736 213.117 200.062 213.33C200.389 213.543 200.642 213.843 200.822 214.23C201.002 214.61 201.092 215.053 201.092 215.56C201.092 216.067 201.002 216.51 200.822 216.89C200.642 217.263 200.389 217.553 200.062 217.76C199.742 217.967 199.366 218.07 198.932 218.07C198.552 218.07 198.219 217.987 197.932 217.82C197.652 217.653 197.439 217.417 197.292 217.11V219.46C197.292 219.58 197.256 219.673 197.182 219.74C197.116 219.813 197.019 219.85 196.892 219.85C196.766 219.85 196.666 219.813 196.592 219.74C196.519 219.667 196.482 219.573 196.482 219.46V213.43C196.482 213.31 196.519 213.213 196.592 213.14C196.666 213.067 196.766 213.03 196.892 213.03C197.019 213.03 197.116 213.067 197.182 213.14C197.256 213.213 197.292 213.31 197.292 213.43V213.97C197.439 213.663 197.652 213.427 197.932 213.26C198.219 213.093 198.552 213.01 198.932 213.01ZM198.772 217.4C199.246 217.4 199.612 217.24 199.872 216.92C200.132 216.6 200.262 216.147 200.262 215.56C200.262 214.973 200.132 214.517 199.872 214.19C199.612 213.857 199.246 213.69 198.772 213.69C198.299 213.69 197.932 213.85 197.672 214.17C197.419 214.49 197.292 214.947 197.292 215.54C197.292 216.133 197.419 216.593 197.672 216.92C197.932 217.24 198.299 217.4 198.772 217.4ZM206.073 216.87C206.146 216.87 206.209 216.9 206.263 216.96C206.316 217.02 206.343 217.097 206.343 217.19C206.343 217.357 206.226 217.51 205.993 217.65C205.753 217.79 205.499 217.897 205.233 217.97C204.966 218.037 204.706 218.07 204.453 218.07C203.699 218.07 203.103 217.847 202.663 217.4C202.229 216.953 202.013 216.337 202.013 215.55C202.013 215.05 202.109 214.61 202.303 214.23C202.496 213.843 202.766 213.543 203.113 213.33C203.466 213.117 203.866 213.01 204.313 213.01C204.946 213.01 205.449 213.217 205.823 213.63C206.196 214.043 206.383 214.603 206.383 215.31C206.383 215.443 206.356 215.54 206.303 215.6C206.249 215.66 206.163 215.69 206.043 215.69H202.823C202.883 216.837 203.426 217.41 204.453 217.41C204.713 217.41 204.936 217.377 205.123 217.31C205.309 217.237 205.509 217.14 205.723 217.02C205.896 216.92 206.013 216.87 206.073 216.87ZM204.323 213.64C203.896 213.64 203.553 213.773 203.293 214.04C203.039 214.307 202.889 214.683 202.843 215.17H205.673C205.659 214.677 205.536 214.3 205.303 214.04C205.069 213.773 204.743 213.64 204.323 213.64ZM209.986 213.03C210.266 213.01 210.406 213.123 210.406 213.37C210.406 213.477 210.376 213.563 210.316 213.63C210.256 213.69 210.153 213.727 210.006 213.74L209.706 213.77C209.26 213.81 208.926 213.97 208.706 214.25C208.493 214.523 208.386 214.847 208.386 215.22V217.65C208.386 217.783 208.35 217.883 208.276 217.95C208.203 218.017 208.106 218.05 207.986 218.05C207.866 218.05 207.766 218.017 207.686 217.95C207.613 217.877 207.576 217.777 207.576 217.65V213.43C207.576 213.303 207.616 213.207 207.696 213.14C207.776 213.067 207.873 213.03 207.986 213.03C208.093 213.03 208.183 213.067 208.256 213.14C208.33 213.207 208.366 213.3 208.366 213.42V213.98C208.506 213.687 208.703 213.463 208.956 213.31C209.216 213.157 209.513 213.067 209.846 213.04L209.986 213.03ZM213.053 213.01C214.273 213.01 214.883 213.65 214.883 214.93V217.65C214.883 217.77 214.846 217.867 214.773 217.94C214.706 218.013 214.613 218.05 214.493 218.05C214.373 218.05 214.276 218.013 214.203 217.94C214.129 217.867 214.093 217.77 214.093 217.65V217.17C213.966 217.457 213.773 217.68 213.513 217.84C213.253 217.993 212.953 218.07 212.613 218.07C212.299 218.07 212.009 218.007 211.743 217.88C211.483 217.753 211.276 217.577 211.123 217.35C210.969 217.123 210.893 216.873 210.893 216.6C210.893 216.233 210.986 215.95 211.173 215.75C211.359 215.543 211.666 215.397 212.093 215.31C212.519 215.217 213.113 215.17 213.873 215.17H214.093V214.84C214.093 214.44 214.009 214.147 213.843 213.96C213.683 213.773 213.419 213.68 213.053 213.68C212.599 213.68 212.139 213.803 211.673 214.05C211.493 214.163 211.366 214.22 211.293 214.22C211.213 214.22 211.146 214.19 211.093 214.13C211.039 214.07 211.013 213.993 211.013 213.9C211.013 213.807 211.039 213.727 211.093 213.66C211.153 213.587 211.246 213.513 211.373 213.44C211.606 213.307 211.869 213.203 212.163 213.13C212.463 213.05 212.759 213.01 213.053 213.01ZM212.723 217.43C213.123 217.43 213.449 217.297 213.703 217.03C213.963 216.757 214.093 216.407 214.093 215.98V215.69H213.913C213.326 215.69 212.879 215.717 212.573 215.77C212.266 215.817 212.046 215.9 211.913 216.02C211.786 216.133 211.723 216.303 211.723 216.53C211.723 216.79 211.816 217.007 212.003 217.18C212.196 217.347 212.436 217.43 212.723 217.43ZM218.615 217.41C218.849 217.43 218.965 217.537 218.965 217.73C218.965 217.843 218.922 217.93 218.835 217.99C218.755 218.043 218.632 218.063 218.465 218.05L218.195 218.03C217.662 217.99 217.269 217.83 217.015 217.55C216.762 217.27 216.635 216.847 216.635 216.28V213.77H215.965C215.852 213.77 215.762 213.743 215.695 213.69C215.635 213.63 215.605 213.553 215.605 213.46C215.605 213.36 215.635 213.28 215.695 213.22C215.762 213.16 215.852 213.13 215.965 213.13H216.635V212C216.635 211.873 216.672 211.777 216.745 211.71C216.819 211.637 216.919 211.6 217.045 211.6C217.165 211.6 217.262 211.637 217.335 211.71C217.409 211.777 217.445 211.873 217.445 212V213.13H218.555C218.662 213.13 218.745 213.16 218.805 213.22C218.872 213.28 218.905 213.36 218.905 213.46C218.905 213.553 218.872 213.63 218.805 213.69C218.745 213.743 218.662 213.77 218.555 213.77H217.445V216.32C217.445 216.687 217.519 216.953 217.665 217.12C217.819 217.28 218.045 217.37 218.345 217.39L218.615 217.41ZM220.174 218.05C220.054 218.05 219.954 218.017 219.874 217.95C219.8 217.877 219.764 217.777 219.764 217.65V213.43C219.764 213.303 219.8 213.207 219.874 213.14C219.954 213.067 220.054 213.03 220.174 213.03C220.294 213.03 220.39 213.067 220.464 213.14C220.537 213.207 220.574 213.303 220.574 213.43V217.65C220.574 217.783 220.537 217.883 220.464 217.95C220.39 218.017 220.294 218.05 220.174 218.05ZM220.174 211.98C220.014 211.98 219.884 211.933 219.784 211.84C219.684 211.747 219.634 211.623 219.634 211.47C219.634 211.323 219.684 211.203 219.784 211.11C219.884 211.017 220.014 210.97 220.174 210.97C220.334 210.97 220.464 211.017 220.564 211.11C220.664 211.203 220.714 211.323 220.714 211.47C220.714 211.623 220.664 211.747 220.564 211.84C220.464 211.933 220.334 211.98 220.174 211.98ZM224.108 218.07C223.648 218.07 223.241 217.967 222.888 217.76C222.541 217.553 222.271 217.26 222.078 216.88C221.891 216.493 221.798 216.047 221.798 215.54C221.798 215.033 221.891 214.59 222.078 214.21C222.271 213.823 222.541 213.527 222.888 213.32C223.241 213.113 223.648 213.01 224.108 213.01C224.568 213.01 224.975 213.113 225.328 213.32C225.681 213.527 225.951 213.823 226.138 214.21C226.331 214.59 226.428 215.033 226.428 215.54C226.428 216.047 226.331 216.493 226.138 216.88C225.951 217.26 225.681 217.553 225.328 217.76C224.975 217.967 224.568 218.07 224.108 218.07ZM224.108 217.4C224.588 217.4 224.955 217.243 225.208 216.93C225.468 216.61 225.598 216.147 225.598 215.54C225.598 214.947 225.468 214.49 225.208 214.17C224.948 213.843 224.581 213.68 224.108 213.68C223.635 213.68 223.268 213.843 223.008 214.17C222.748 214.49 222.618 214.947 222.618 215.54C222.618 216.14 222.745 216.6 222.998 216.92C223.258 217.24 223.628 217.4 224.108 217.4ZM230.085 213.01C231.251 213.01 231.835 213.653 231.835 214.94V217.65C231.835 217.777 231.798 217.877 231.725 217.95C231.658 218.017 231.561 218.05 231.435 218.05C231.308 218.05 231.208 218.017 231.135 217.95C231.061 217.877 231.025 217.777 231.025 217.65V214.99C231.025 214.537 230.935 214.207 230.755 214C230.581 213.793 230.301 213.69 229.915 213.69C229.468 213.69 229.111 213.827 228.845 214.1C228.578 214.373 228.445 214.743 228.445 215.21V217.65C228.445 217.777 228.408 217.877 228.335 217.95C228.268 218.017 228.171 218.05 228.045 218.05C227.918 218.05 227.818 218.017 227.745 217.95C227.671 217.877 227.635 217.777 227.635 217.65V213.43C227.635 213.31 227.671 213.213 227.745 213.14C227.818 213.067 227.918 213.03 228.045 213.03C228.165 213.03 228.258 213.067 228.325 213.14C228.398 213.213 228.435 213.307 228.435 213.42V213.93C228.595 213.63 228.818 213.403 229.105 213.25C229.391 213.09 229.718 213.01 230.085 213.01ZM234.958 218.07C234.652 218.07 234.358 218.033 234.078 217.96C233.805 217.887 233.562 217.783 233.348 217.65C233.228 217.57 233.142 217.497 233.088 217.43C233.042 217.357 233.018 217.27 233.018 217.17C233.018 217.083 233.042 217.013 233.088 216.96C233.142 216.9 233.208 216.87 233.288 216.87C233.368 216.87 233.485 216.92 233.638 217.02C233.838 217.14 234.035 217.237 234.228 217.31C234.428 217.377 234.675 217.41 234.968 217.41C235.328 217.41 235.608 217.347 235.808 217.22C236.008 217.093 236.108 216.91 236.108 216.67C236.108 216.523 236.072 216.407 235.998 216.32C235.925 216.227 235.798 216.147 235.618 216.08C235.438 216.007 235.175 215.933 234.828 215.86C234.242 215.733 233.822 215.563 233.568 215.35C233.315 215.137 233.188 214.847 233.188 214.48C233.188 214.193 233.268 213.94 233.428 213.72C233.588 213.5 233.808 213.327 234.088 213.2C234.375 213.073 234.698 213.01 235.058 213.01C235.318 213.01 235.568 213.047 235.808 213.12C236.055 213.187 236.272 213.283 236.458 213.41C236.685 213.57 236.798 213.737 236.798 213.91C236.798 213.997 236.772 214.07 236.718 214.13C236.665 214.19 236.602 214.22 236.528 214.22C236.448 214.22 236.328 214.163 236.168 214.05C235.982 213.93 235.805 213.837 235.638 213.77C235.472 213.703 235.265 213.67 235.018 213.67C234.705 213.67 234.452 213.74 234.258 213.88C234.072 214.02 233.978 214.207 233.978 214.44C233.978 214.587 234.012 214.707 234.078 214.8C234.152 214.887 234.268 214.967 234.428 215.04C234.595 215.107 234.832 215.173 235.138 215.24C235.592 215.34 235.942 215.45 236.188 215.57C236.442 215.69 236.622 215.837 236.728 216.01C236.835 216.183 236.888 216.403 236.888 216.67C236.888 217.09 236.712 217.43 236.358 217.69C236.005 217.943 235.538 218.07 234.958 218.07Z" fill="black"/>
<circle cx="131" cy="215" r="5" fill="#00116E"/>
</svg>
